<?xml version="1.0" standalone="no"?>
<!DOCTYPE svg PUBLIC "-//W3C//DTD SVG 1.1//EN" "http://www.w3.org/Graphics/SVG/1.1/DTD/svg11.dtd" >
<svg xmlns="http://www.w3.org/2000/svg">
<metadata></metadata>
<defs>
<font id="comic_sans_ultralightultraLt" horiz-adv-x="1048" >
<font-face units-per-em="2048" ascent="1638" descent="-410" />
<missing-glyph horiz-adv-x="612" />
<glyph horiz-adv-x="2048" />
<glyph horiz-adv-x="2048" />
<glyph unicode="&#xd;" horiz-adv-x="2048" />
<glyph unicode=" "  horiz-adv-x="612" />
<glyph unicode="&#x09;" horiz-adv-x="612" />
<glyph unicode="&#xa0;" horiz-adv-x="612" />
<glyph unicode="!" horiz-adv-x="487" d="M192 38q0 15 12 26t27 11q18 0 35 -22q16 -21 16 -38q0 -16 -12 -27t-27 -11q-18 0 -35 22q-16 21 -16 39zM218 649q0 144 0.5 431.5t2.5 485.5q-2 34 19 34q20 0 22 -34l-1 -1235q-2 -31 -22 -31q-21 0 -19 31q-1 117 -1.5 197.5t-0.5 120.5z" />
<glyph unicode="&#x22;" horiz-adv-x="869" d="M193 1104q0 65 1 196.5t1 197.5q0 72 4 80t11 8t11.5 -8t4.5 -80q0 -64 -0.5 -191t-0.5 -190q0 -17 0.5 -49.5t0.5 -48.5q4 -75 -2.5 -80.5t-15.5 -4.5q-15 -1 -15 170zM576 1018l1 398q0 79 3 112q3 59 13 59q19 4 17 -23t-2 -66v-45v-42l-2 -391q7 -92 -15 -91 q-11 -1 -13.5 24.5t-1.5 64.5z" />
<glyph unicode="#" horiz-adv-x="1726" d="M46 481q0 8 5 13t11 5h387l16 56t17 56q32 107 64 215t66 216q2 7 4 15l4 16q-121 -2 -239.5 -3t-225.5 -3q-8 0 -13 5t-5 11q0 8 5 13t13 5q94 2 216.5 3t260.5 3q48 159 68.5 275t22.5 179q2 6 6 10.5t12 4.5t13 -4.5t5 -12.5q-2 -39 -8.5 -89.5t-18.5 -108.5 t-28 -122.5t-36 -131.5q86 1 173.5 2t173 1.5t167 0.5h153.5q46 158 67 272.5t24 177.5q0 6 5 10.5t13 4.5q15 0 15 -17q-2 -39 -8.5 -89t-18 -108t-27.5 -121.5t-35 -129.5q70 -1 129 -1.5t102 -2t68.5 -3.5t30.5 -5q6 -5 7.5 -11.5t-3.5 -12.5q-3 -8 -14 -8q-3 0 -5 1 t-5 3q-6 1 -31 2.5t-67 2t-98 1t-123 0.5q-5 -12 -8 -23l-6 -22q-35 -107 -67 -215.5t-63 -215.5q-8 -25 -15.5 -50t-16.5 -50q82 0 152.5 -0.5t122.5 -0.5t82.5 -0.5t33.5 -0.5q8 -2 12 -8t2 -14q-4 -14 -16 -14q-2 0 -4 2q-5 0 -36.5 0.5t-84 0.5t-122.5 0.5t-152 0.5 q-2 -9 -4.5 -18t-5.5 -17l-18 -64q-14 -48 -29 -98.5t-31 -99t-32.5 -94t-33.5 -83.5q-6 -9 -16 -9h-4t-4 1q-5 3 -7.5 9.5t0.5 12.5q17 37 33 81.5t31.5 93t30.5 98.5t29 98l20 63q2 6 3 12t3 14q-76 0 -159 -0.5t-168.5 -0.5t-171.5 -0.5t-167 -0.5q-3 -9 -5.5 -17.5 t-4.5 -15.5l-19 -64q-14 -48 -29 -98.5t-31 -99t-32.5 -94t-34.5 -83.5q-2 -5 -6 -7t-9 -2q-4 0 -6 1q-8 3 -10.5 9.5t0.5 12.5q17 37 33.5 81.5t32.5 93t31 98.5t29 98l18 63l4 12l4 12h-208.5t-168.5 -2q-6 0 -11 5t-5 13zM484 499q79 1 164 1.5t171 0.5h170h162l16 56 t16 54q31 107 63.5 215t66.5 216q3 8 6 17l6 18q-141 0 -314 -1t-353 -3q-5 -11 -8 -21l-6 -20q-34 -107 -66.5 -215.5t-63.5 -215.5q-15 -50 -30 -102z" />
<glyph unicode="$" horiz-adv-x="1381" d="M148 214q-2 14 12 21q6 2 13.5 -1t9.5 -11q22 -73 72.5 -117.5t117 -68.5t142.5 -30t149 -1v169.5v187t0.5 196.5t1.5 200q-60 2 -119 9t-113 30q-49 19 -91.5 55t-70.5 81.5t-37 98t9 106.5q22 67 69 115.5t104 81.5t116 53t104 30q8 2 15.5 3.5l17.5 3.5q0 90 1 158 t1 110q0 8 5 13t13 5q6 0 11 -5t5 -13v-129t-2 -135q53 6 119 6t131.5 -8t123 -25t93.5 -44q5 -5 6 -11.5t-4 -12.5t-12.5 -6.5t-12.5 2.5q-32 25 -86 40t-117 22.5t-126.5 7.5t-114.5 -6q-2 -148 -3 -299t-1 -302h15q54 -2 109 -4.5t108 -16.5q58 -14 111 -52t92.5 -90.5 t61 -113.5t17.5 -119q-6 -70 -35.5 -134t-77.5 -116.5t-111.5 -90.5t-136.5 -57q-32 -8 -71.5 -15t-83.5 -10q1 -74 1.5 -134t1.5 -104.5t2 -70.5t3 -32q3 -8 -0.5 -13.5t-11.5 -8.5h-4q-11 0 -18 10q-2 5 -3 32.5t-2 73t-1.5 107.5t-1.5 136q-17 -2 -33.5 -2h-33.5 q-71 0 -142 11.5t-131.5 39.5t-107 75.5t-68.5 118.5zM269 1035.5q9 -45.5 34 -85.5t62.5 -71.5t79.5 -49.5q53 -20 108 -26.5t113 -8.5q0 164 1 316.5t3 281.5q-6 -2 -12.5 -3t-12.5 -3q-35 -8 -89 -25.5t-109 -48t-102.5 -76t-68.5 -108.5q-16 -47 -7 -92.5zM698 10 q41 5 78 10.5t67 12.5q69 18 128.5 53.5t103.5 83.5t70.5 107t31.5 123q4 53 -14.5 108t-54 102.5t-83 82t-100.5 46.5q-51 14 -105 16t-105 4h-15q-1 -105 -1.5 -207t-0.5 -197v-182v-163z" />
<glyph unicode="%" horiz-adv-x="1680" d="M191 1369q2 46 18.5 92t47.5 82.5t77.5 61t109.5 29.5q53 5 101.5 -16t87.5 -62q42 -46 64.5 -105.5t19.5 -119.5q-4 -56 -30 -100t-65.5 -75t-87.5 -47t-96 -16q-14 0 -26 1t-24 3q-54 10 -92 38t-62 66t-34.5 82t-8.5 86zM225 1367q-2 -38 7 -76.5t29.5 -71t53.5 -56 t79 -31.5t96 2t91 36t69 67.5t31 95.5q3 53 -16 105t-58 94q-32 33 -70 50.5t-77 17.5h-14q-54 -4 -94.5 -25.5t-68 -54t-42 -73t-16.5 -80.5zM429.5 -20.5q-2.5 6.5 0.5 12.5q72 146 140 293.5t133 293.5q73 161 147.5 323.5t156.5 323.5q32 61 63 120t63 119l59 107 q3 6 9.5 8.5t12.5 -0.5t8.5 -10.5t-0.5 -13.5l-59 -107q-32 -60 -63 -119.5t-61 -119.5q-82 -159 -157 -321.5t-147 -323.5q-66 -147 -133.5 -294t-139.5 -293q-5 -10 -16 -10q-6 0 -8 2q-6 3 -8.5 9.5zM956 271q-6 60 13.5 114t61.5 99q29 33 67.5 56.5t81 36.5t87.5 15.5 t87 -7.5q63 -16 106 -45.5t68.5 -66.5t35 -78t7.5 -79q-2 -49 -22 -100t-56.5 -94.5t-89 -74.5t-119.5 -41q-9 -2 -19 -3t-21 -1q-55 0 -105.5 21.5t-89.5 58t-64 85.5t-29 104zM991 275q4 -53 29.5 -99.5t65 -79.5t90 -48.5t104.5 -7.5q60 9 106.5 37t79.5 67t51 84.5 t20 89.5q2 43 -10 80.5t-36.5 67.5t-61 52t-83.5 33q-15 3 -32 5.5t-34 2.5q-63 0 -122.5 -25.5t-100.5 -73.5q-36 -39 -53.5 -86.5t-12.5 -98.5z" />
<glyph unicode="&#x26;" horiz-adv-x="1322" d="M85.5 371q-1.5 68 24.5 134q14 37 36.5 75.5t50 74.5t59.5 68.5t65 57.5q48 36 102.5 68t110.5 63q13 7 26 13.5t25 14.5q-18 29 -34.5 61.5t-28.5 68.5t-19 75.5t-6 83.5q1 50 18.5 105.5t51 103t83 78.5t114.5 33h4q50 0 91 -23.5t68 -70.5q18 -31 26.5 -67t8 -73.5 t-10 -73.5t-28.5 -66q-25 -41 -57.5 -75.5t-70 -64.5t-78.5 -56.5t-84 -51.5q4 -8 8 -11q86 -131 165 -267t157 -273q8 -13 16 -27.5t16 -28.5q34 56 60 109t43.5 108.5t25.5 115.5t5 130q-1 8 4 13t13 5t13 -5t5 -11q3 -76 -5.5 -141t-28 -124.5t-48.5 -116.5t-67 -117 q14 -26 28.5 -50.5t29.5 -50.5q8 -17 18 -32t19 -32q26 -43 50.5 -85.5t44.5 -87.5q2 -6 1 -12.5t-9 -10.5q-2 0 -3 -1t-3 -1q-13 0 -17 11q-20 44 -44.5 86t-50.5 83q-9 17 -18 33t-17 31q-14 22 -26.5 42.5t-24.5 42.5q-36 -52 -82 -98t-99.5 -81t-114 -57.5t-126.5 -28 t-136 8t-142 49.5q-65 32 -111 83.5t-70.5 113t-26 129.5zM120.5 371.5q1.5 -61.5 23.5 -117t64 -102t101 -76.5q103 -52 201.5 -54.5t184.5 30.5t157.5 95t122.5 139q-11 18 -21 37t-21 38q-76 134 -154.5 270t-165.5 267q-8 8 -10 12q-13 -6 -25.5 -13.5t-26.5 -15.5 q-57 -31 -109.5 -61t-97.5 -65q-31 -24 -61.5 -54.5t-57 -65t-48 -71t-35.5 -71.5q-23 -60 -21.5 -121.5zM532 1229q-1 -41 5.5 -77.5t18 -70t27 -64.5t32.5 -59q84 47 157 102t121 133q16 26 24.5 58t9 65t-7 65t-22.5 58q-8 13 -19.5 26.5t-27 24.5t-36.5 18t-46 7h-4 q-55 -2 -98 -30.5t-73 -71t-45.5 -92t-15.5 -92.5z" />
<glyph unicode="'" horiz-adv-x="795" d="M356 1444q0 97 3 179q4 28 19 28q18 -3 20 -25t2 -59q0 -20 -1 -61t-1 -62q0 -29 1 -85.5t1 -150.5q0 -59 -21 -59q-15 0 -16 19q-4 46 -4 115q0 27 -1.5 80.5t-1.5 80.5z" />
<glyph unicode="(" horiz-adv-x="750" d="M124 423.5q-10 136.5 5.5 277t55.5 277.5t104 257.5t151.5 216.5t197.5 154q18 6 25 -8q3 -6 1.5 -12.5t-7.5 -10.5q-107 -56 -192 -149t-147.5 -209.5t-101 -250t-53 -270t-4.5 -269.5t46 -248q75 -245 185.5 -385.5t262.5 -183.5q15 -6 12 -22q-2 -6 -6.5 -9t-9.5 -3 h-7q-161 48 -277.5 193.5t-194.5 399.5q-36 118 -46 254.5z" />
<glyph unicode=")" horiz-adv-x="750" d="M167.5 -403.5q1.5 6.5 9.5 11.5q97 60 181.5 156.5t148.5 213.5t102.5 247.5t43.5 258.5q7 166 -22.5 326.5t-92 305t-154.5 267.5t-209 215q-14 11 -4 24q5 6 12 7t12 -5q121 -94 216 -220t158.5 -274.5t94.5 -313t24 -334.5q-4 -88 -23 -177.5t-51.5 -176t-77 -168 t-98 -152.5t-115 -130t-128.5 -100q-4 -2 -10 -2q-11 0 -14 8q-5 6 -3.5 12.5z" />
<glyph unicode="*" horiz-adv-x="1085" d="M61 1341.5q-4 6.5 0 14.5q2 6 8 9t14 1q3 -1 26.5 -8.5t59.5 -19.5t80 -27t87.5 -30t82.5 -29t66 -25l-20 345q-2 6 3 12t13 6t13.5 -5t5.5 -11l20 -351q25 7 74.5 19t109 24.5t122.5 22.5t115 12h2q6 0 11.5 -4.5t5.5 -12.5t-4.5 -13t-12.5 -5q-48 -2 -105.5 -10.5 t-113 -20.5t-104 -24t-77.5 -19q23 -21 54 -55t63.5 -72.5t63.5 -79t55.5 -74t39.5 -57t15 -28.5t-3.5 -9t-8.5 -7h-6q-3 0 -6.5 1.5t-5.5 4.5q-4 2 -4.5 3.5t-2.5 4.5q-5 9 -23.5 35t-44 60t-56.5 73t-61 75t-57 65t-45 43q-14 -24 -42.5 -55.5t-63.5 -65.5t-73 -68 t-71 -62.5t-57 -49t-32 -27.5q-8 -4 -10 -4q-11 0 -14 6q-5 6 -4.5 14t6.5 13q43 35 94 79.5t98.5 89t85 83.5t52.5 64q-24 10 -63.5 24t-84.5 29.5t-90.5 31t-83 28t-61.5 20t-25 8.5q-6 2 -10 8.5z" />
<glyph unicode="+" horiz-adv-x="984" d="M45.5 646q-1.5 7 3.5 13q3 8 9.5 9.5t12.5 -3.5q7 -5 31 -7t57 -3t72.5 -0.5t77.5 2.5t71.5 4.5t55.5 5.5q2 2 6 2l-2 184q0 1 -1.5 20t-1 46.5t5 57.5t15.5 53q3 6 9.5 8.5t12.5 -0.5t8.5 -9.5t-0.5 -12.5q-9 -20 -12.5 -47.5t-3.5 -52.5t1.5 -42.5t2.5 -18.5v-184 q37 1 85.5 1t92.5 -0.5t75.5 -1.5t34.5 -1q12 1 32.5 1.5t42 -1t40.5 -5.5t28 -13q13 -14 0 -27q-8 -4 -13 -4q-4 0 -12 4q-3 3 -14 5t-27 3.5t-35.5 1t-39.5 -1.5q-1 0 -16 0.5t-39.5 1.5t-55 1.5t-62.5 1t-62.5 0.5t-54.5 -1l2 -379q0 -8 -4 -13t-12 -5t-13 5t-5 13 l-2 375h-2q-13 -2 -43 -4t-69.5 -4.5t-82.5 -3.5t-82 0t-68.5 4.5t-41.5 11.5q-6 3 -7.5 10z" />
<glyph unicode="," horiz-adv-x="567" d="M181.5 -321.5q-0.5 6.5 2.5 14.5q19 37 80 191q53 125 82 178q38 71 43 74q10 7 19 -2.5t-2 -23.5q-42 -65 -172 -381q-26 -54 -28 -55q-8 -10 -18 -5q-6 3 -6.5 9.5z" />
<glyph unicode="-" horiz-adv-x="853" d="M111 535q0 8 6.5 14.5t12.5 4.5q5 -1 47 -0.5t104 2.5t134.5 4.5t138.5 5.5t115.5 5.5t65.5 3.5q8 2 14 -2t9 -10q3 -8 -0.5 -14t-11.5 -8q-21 -6 -73.5 -10.5t-119.5 -7t-139.5 -3.5t-134 -1.5t-104 -0.5h-47.5q-6 0 -11.5 5t-5.5 12z" />
<glyph unicode="." horiz-adv-x="345" d="M139 27q0 21 13.5 35.5t32.5 14.5q21 0 35 -14.5t14 -35.5q0 -20 -14 -33.5t-35 -13.5q-19 0 -32.5 13.5t-13.5 33.5z" />
<glyph unicode="/" horiz-adv-x="995" d="M93.5 -77.5q-2.5 6.5 2.5 12.5q24 47 46 98.5t45 103.5q19 42 35.5 80.5t33.5 70.5q31 63 60.5 120t56.5 112q49 95 93.5 182t86.5 175.5t83.5 182.5t83.5 203q12 30 25 57.5t27 53.5q26 46 49 100t41 135q2 6 7 10.5t13 1.5q17 -3 14 -20q-9 -42 -20 -76t-23 -63 t-25 -54.5t-25 -49.5l-26.5 -53t-24.5 -54q-42 -110 -83.5 -204.5t-83.5 -183.5t-86.5 -177t-92.5 -183q-29 -54 -59 -111t-61 -120q-15 -32 -31.5 -69.5t-34.5 -79.5q-23 -52 -47 -104t-47 -100q-5 -8 -16 -8h-4t-4 2q-6 3 -8.5 9.5z" />
<glyph unicode="0" horiz-adv-x="1155" d="M59 708v63q1 40 3.5 85t8.5 92t17 95t28 93q62 167 151 253q121 121 254 151.5t270 -30.5q53 -24 93.5 -58t70.5 -74.5t50 -85t33.5 -88t20.5 -85t10 -75.5q9 -70 10 -144t-4 -151q-3 -56 -8.5 -115.5t-16 -120.5t-28 -121t-45.5 -116q-35 -71 -84.5 -128t-108.5 -98 t-126 -63t-136 -22q-39 0 -76 8t-74 22q-73 27 -124 80.5t-86 121t-55.5 143t-31 145.5t-13.5 129t-3 94zM93 708q0 -34 2.5 -90t12.5 -123.5t29 -139t51 -136.5t80 -116.5t116 -78.5q33 -11 67.5 -17t70.5 -6q63 0 125 21t118 59.5t103 92.5t79 119q26 54 43 111.5t27 116 t15 117t8 113.5q5 75 4 147.5t-8 144.5q-5 47 -18.5 109t-42.5 123.5t-76 115.5t-119 87q-44 20 -86 28.5t-85 8.5q-169 0 -318 -149q-43 -43 -78.5 -102t-65.5 -140q-16 -44 -26 -90.5t-16 -92.5t-8.5 -89t-3.5 -81v-63z" />
<glyph unicode="1" horiz-adv-x="908" d="M162 1226q1 6 6 11q21 15 56.5 39t71 49.5t64.5 47t37 30.5q11 12 36 36t51 48t46.5 43t22.5 21q5 6 12 5t12 -8q10 -8 1 -19q-1 -5 -0.5 -16t0.5 -16v-15q-3 -32 -5 -71t-3 -79.5t-1 -81.5v-78q0 -40 -0.5 -73.5t-2.5 -56.5q-2 -57 -6.5 -114.5t-10.5 -118.5 q-13 -141 -22.5 -304t2.5 -356q0 -2 -1 -16.5t-2.5 -33.5l-3 -38t-2.5 -29q0 -7 -4.5 -12.5t-9.5 -5.5h-3q-6 0 -10.5 6.5t-4.5 14.5q0 9 1.5 28t3.5 38q2 22 4 48q-8 98 -8.5 187.5t3 171.5t10 157t12.5 145q5 63 10.5 120.5t7.5 114.5q2 21 2.5 54t0.5 73v78t1 82t3.5 80 t6.5 71v12q-15 -13 -33.5 -29.5t-36 -33t-32 -30.5t-21.5 -23q-8 -7 -26.5 -21.5t-43 -32t-51.5 -36.5t-50.5 -36t-41 -29t-22.5 -16q-13 -7 -23 5q-4 7 -3 13zM165 25q-8 9 0 18q2 5 8 6.5t11 -0.5q3 2 14.5 2h23.5q22 1 51.5 2t63 1t68.5 -0.5t68 -2.5q59 -5 111 -6 t91.5 0t62.5 3t24 3q8 -2 13 -5t5 -11q5 -16 -14 -21q-3 0 -41.5 -2.5t-103.5 -2.5q-33 0 -71.5 1.5t-81.5 3.5q-32 3 -66 4.5t-66.5 1.5t-61.5 -1t-50 -2q-20 -2 -31 -2.5t-16.5 0.5t-7.5 3t-4 7z" />
<glyph unicode="2" horiz-adv-x="1199" d="M157 1206q37 56 87 113.5t113 103t138 71.5t163 19q110 -9 193.5 -50t129.5 -113q42 -69 44 -155t-37 -186q-24 -66 -61 -113t-82 -82.5t-96.5 -63.5t-105.5 -55q-37 -18 -75.5 -39t-80.5 -44q-152 -94 -220.5 -216t-45.5 -262q6 -34 21 -53t37 -27.5t51 -9t64 1.5 q42 1 85 4.5t85 8.5q67 9 130.5 14t124.5 4q20 -2 37 -4.5t34 -7.5q8 -4 16 -5t17 -3q10 -2 21 -3t22 -3q27 0 52 -5q17 -5 15 -21q-5 -18 -21 -14q-11 2 -23 3t-24 3q-14 2 -26 3t-22 3q-9 2 -17.5 4t-16.5 4q-17 5 -33 7.5t-31 2.5q-59 4 -122.5 -2t-130.5 -14 q-40 -5 -83.5 -9t-87.5 -7q-11 0 -23 -1t-24 -1q-26 0 -52.5 4.5t-48.5 17.5t-38.5 37.5t-22.5 63.5q-23 148 51 280.5t233 230.5q41 26 81 46t79 40q52 27 101 53.5t91.5 59.5t77 76.5t57.5 104.5q72 186 -6 311q-42 63 -117 101t-179 46h-27q-77 0 -143 -26.5 t-121.5 -68.5t-100.5 -94t-78 -102q-3 -7 -10 -8t-12 4q-14 7 -6 22z" />
<glyph unicode="3" horiz-adv-x="1221" d="M158 250q0 16 16 16q15 0 15 -16q1 -44 21 -77t51 -58t69 -43t75 -32q88 -35 178 -32t185 45q20 8 41.5 22t41.5 30.5t37.5 34.5t29.5 36q42 63 46 150.5t-28 184.5q-17 49 -41 93t-53.5 78.5t-62.5 59.5t-68 37q-47 14 -86.5 18t-85.5 4q-9 2 -19 2h-21q-19 0 -17 18 q0 8 5.5 12t12.5 4h15q111 0 214 50.5t186 146.5q32 37 46.5 82.5t12 92.5t-22.5 91.5t-57 77.5q-58 54 -129.5 79t-154.5 22q-97 -5 -187.5 -49.5t-156.5 -118.5q-10 -10 -25 0q-6 5 -6 12t6 12q34 39 76.5 70.5t90 54.5t98.5 36.5t102 16.5h24q83 0 155 -28t131 -82 q41 -37 64 -87.5t26.5 -104t-13 -106t-52.5 -93.5q-60 -69 -129 -116.5t-146 -70.5q12 -2 25 -6t27 -9q40 -13 77 -39.5t69.5 -64t59 -84.5t44.5 -101q35 -102 28.5 -198t-52.5 -165q-14 -21 -32.5 -41t-40.5 -38.5t-45 -33.5t-46 -25q-112 -47 -215 -47q-44 0 -87 8.5 t-87 24.5q-38 15 -79.5 35.5t-76 49.5t-57 68t-22.5 91z" />
<glyph unicode="4" horiz-adv-x="1208" d="M59 509q-8 9 0 18q26 48 57 90.5t63 86.5q11 14 23 31l24 34q20 26 39.5 53.5t39.5 54.5q88 125 177 247.5t189 240.5q27 33 54.5 65t55.5 64l4 4q2 2 4 3.5t4 3.5q7 7 20 19.5t15 18.5q5 7 15 10q5 1 11.5 -3t7.5 -10v-3q8 -37 8 -69.5t-2 -56.5v-26q0 -30 0.5 -56 t1.5 -49t2 -45.5t2 -46.5q4 -17 4.5 -38.5t1.5 -45.5q3 -62 4.5 -130.5t-0.5 -151.5q0 -54 -1 -109.5t-3 -111.5q0 -17 -0.5 -35t-0.5 -36q30 1 65.5 1h69.5h63t45 -1q8 0 12.5 -5.5t4.5 -13.5q0 -5 -4.5 -10t-12.5 -5h-245q-2 -42 -2.5 -82.5t-0.5 -81.5q0 -70 -3 -119 q-2 -26 -3 -49.5t-1 -49t3 -54.5t9 -66q1 -8 -3.5 -14t-10.5 -7h-4q-12 0 -17 15q-6 39 -8.5 69.5t-3 56.5t1 50.5t3.5 50.5q1 23 2.5 52t1.5 65v81.5t2 82.5h-24q-44 0 -85.5 -2t-81.5 -4q-56 -3 -110 -5.5t-114 -0.5q-53 2 -94 5.5t-79 6.5q-48 2 -91.5 5t-88.5 1h-3 q-11 0 -13 7zM105 538h4q37 0 72.5 -3t74.5 -5q38 -3 79.5 -6t92.5 -4q60 -2 113 -0.5t108 4.5q42 2 83 4t87 2h25q0 18 0.5 36t2.5 35q3 111 3 221q2 83 0.5 151.5t-3.5 128.5q-2 23 -3 44.5t-3 38.5q-1 25 -2.5 48t-2.5 46.5t-1.5 49.5t-0.5 56v29q2 17 2.5 38t-2.5 45 q-5 -5 -9 -8t-9 -10q-5 -8 -9 -8q-29 -31 -56 -63.5t-53 -63.5q-100 -116 -190 -239.5t-176 -248.5q-20 -26 -39 -53t-38 -53q-13 -20 -25 -35.5t-23 -33.5q-28 -35 -54 -70t-48 -73z" />
<glyph unicode="5" horiz-adv-x="1179" d="M120 259q0 13 18 18q5 0 10 -5.5t5 -12.5q2 -65 43 -122.5t110 -95.5q65 -35 143.5 -45.5t179.5 5.5q88 15 161 66t126 122.5t83.5 155.5t32.5 164q2 181 -44 299.5t-143 179.5q-63 41 -135.5 50t-153.5 -17q-57 -18 -112 -52t-103.5 -78.5t-87.5 -97.5t-63 -110 q-4 -5 -7.5 -6.5t-8.5 -3.5q-14 0 -17 10q-8 21 -11 49t-2.5 59t3.5 62t6 58q0 9 1.5 17.5t1.5 13.5l3 46q5 47 9 96t6 92q1 16 2.5 33.5t3.5 33.5q4 28 6.5 56t0 55t-10.5 53t-25 50l-2 8t1 9q1 7 12 11q26 8 51 8t48 -2q11 0 18.5 -1t14.5 1q60 4 110.5 6.5t99 2.5 t98.5 -1.5t110 -4.5q30 -2 67.5 -3.5t74.5 -0.5t69 5.5t51 15.5q16 5 24 -8q5 -6 2 -12.5t-8 -11.5q-23 -13 -56.5 -18.5t-72 -6.5t-78.5 0.5t-75 2.5q-59 4 -108.5 6t-97.5 2t-98 -2.5t-109 -7.5h-16t-20 2q-17 0 -33.5 1t-34.5 -3q14 -26 20.5 -52.5t8 -54t-1 -55 t-5.5 -53.5q-3 -17 -4.5 -33t-2.5 -31q-2 -45 -6 -94.5t-9 -97.5l-3 -43q0 -8 -1.5 -16t-1.5 -18q-5 -36 -8 -80t1 -83q29 52 69 101t88 90t101.5 72t108.5 48q85 26 166.5 16.5t152.5 -53.5q104 -66 153 -192.5t45 -316.5q-2 -57 -17 -117t-41.5 -116.5t-64.5 -108t-85 -93 t-103 -69.5t-118 -38q-34 -5 -64 -7.5t-58 -2.5q-129 0 -224 52q-78 43 -122.5 109.5t-46.5 140.5z" />
<glyph unicode="6" horiz-adv-x="1210" d="M121.5 477.5q-3.5 78.5 5.5 153.5t29 138q44 142 99 254t129 205q43 57 89.5 99.5t94.5 83.5q38 32 75.5 65.5t74.5 74.5q5 6 12 6.5t11 -4.5q14 -13 0 -27q-36 -40 -74 -73.5t-75 -65.5q-48 -42 -92.5 -83.5t-87.5 -97.5q-71 -90 -125 -199t-100 -249q-3 -10 -5.5 -22.5 t-6.5 -24.5q40 31 71 50.5t61 36.5q13 7 24.5 14t26.5 15q57 35 127 59t144 30.5t146.5 -8.5t133.5 -59q76 -55 116.5 -143t42.5 -201q0 -68 -14 -135.5t-40.5 -128.5t-64 -111t-83.5 -84q-63 -50 -147 -81.5t-175 -31.5q-86 0 -167 35q-64 31 -110.5 85t-77.5 122.5 t-47.5 146t-20 156zM156 468q5 -100 31.5 -191.5t76 -165t126.5 -110.5q57 -28 119 -32.5t122 7.5t115 37.5t99 58.5q43 32 78 79.5t59.5 104.5t38 120.5t12.5 128.5q-2 104 -39 186t-104 130q-54 39 -120.5 52.5t-136 7.5t-136.5 -28t-122 -55q-13 -8 -25.5 -16t-24.5 -15 q-17 -10 -34.5 -20t-36.5 -22.5t-41 -28.5t-48 -38q-14 -90 -9 -190z" />
<glyph unicode="7" horiz-adv-x="1214" d="M76 1473q3 17 20 15q75 -12 134.5 -17.5t114.5 -7t112 0t129 4.5h5q47 2 92.5 4t92.5 5q42 2 85 3.5t87 2.5h6q22 1 48.5 1.5t54.5 -1t55.5 -5.5t51.5 -13q4 -2 7.5 -5.5t3.5 -8.5q0 -11 -6 -15q-36 -27 -64.5 -54t-52 -55t-44.5 -57t-42 -62q-140 -210 -260 -440.5 t-222 -484.5q-37 -99 -64 -182.5t-46 -161.5q-2 -13 -15 -13h-4q-8 1 -11.5 7.5t-1.5 14.5q19 79 45.5 163t65.5 184q100 256 220.5 488t262.5 442q21 32 41 60.5t42 54.5t47 51t55 51q-42 9 -86.5 8t-79.5 -1h-7q-44 -1 -86 -3.5t-85 -3.5q-45 -2 -91.5 -4.5t-93.5 -4.5h-4 q-73 -2 -131 -3t-114 0.5t-116 7t-137 16.5q-14 2 -14 19z" />
<glyph unicode="8" horiz-adv-x="1173" d="M130 302q-9 72 7 144t53.5 136t94 116t127.5 85q21 11 44 19.5t48 17.5q-17 7 -32.5 13t-31.5 12q-48 18 -88.5 41.5t-81.5 62.5q-39 39 -57.5 86t-21 95t9 95t33.5 86q25 46 63 82.5t84.5 61.5t100.5 38.5t111 13.5q95 0 177 -35.5t138 -102.5q29 -35 44.5 -76t17.5 -84 t-9 -86t-35 -83q-27 -42 -59 -72.5t-69 -53.5t-77.5 -41t-84.5 -36l-17 -8q-3 0 -5 -1.5t-4 -1.5q42 -11 82.5 -24.5t79.5 -34.5q31 -15 62 -32t59.5 -39t54.5 -50t48 -64q23 -39 36 -89t15 -102.5t-7 -102t-29 -87.5q-24 -44 -58 -81.5t-76 -67t-90 -51t-99 -31.5 q-34 -7 -68 -11t-69 -4q-37 0 -87.5 6t-102 25.5t-99 55t-78.5 95.5q-14 26 -24.5 53t-17.5 54q-9 29 -12 58zM164 306q4 -12 5.5 -26t6.5 -26q6 -26 16 -52t23 -49q28 -53 71 -85t90 -49t93.5 -22t81.5 -5q34 0 66.5 2.5t64.5 9.5q48 9 92.5 28.5t83.5 47t70 62.5t52 75 q18 34 26 79.5t6.5 93t-12.5 93.5t-32 81q-39 62 -91.5 101t-117.5 72q-44 21 -89 34.5t-89 28.5l-24 5l-18 -5q-29 -13 -58 -24t-56 -22q-66 -31 -118 -80t-86.5 -108.5t-50 -126t-6.5 -133.5zM227.5 1134q1.5 -43 17.5 -84.5t51 -75.5q36 -38 73 -59t84 -38 q53 -22 103 -34q12 4 25 8t24 9l19 9q43 18 81.5 35.5t73 39t64 49.5t54.5 67q22 34 32 72t7.5 75.5t-16 73.5t-38.5 67q-51 59 -126.5 93t-162.5 34q-53 0 -102 -12.5t-91.5 -36t-76.5 -56.5t-56 -74q-20 -36 -30.5 -77.5t-9 -84.5z" />
<glyph unicode="9" horiz-adv-x="1191" d="M118.5 969.5q-7.5 59.5 0 118t29 115t56.5 106.5q68 99 167.5 153.5t211.5 54.5h6q64 -2 125 -17.5t114 -43.5t96.5 -68t73.5 -89q39 -63 57 -132.5t22 -141t-2.5 -141t-17.5 -130.5q-5 -39 -17 -82t-29 -92q-49 -142 -125.5 -247.5t-182.5 -183.5q-28 -20 -49.5 -34.5 t-41.5 -27t-42 -25.5t-51 -29q-26 -15 -64 -31t-79.5 -29.5t-81.5 -22t-70 -9.5h-3q-6 0 -10.5 5t-6.5 12q0 7 5.5 12t11.5 5q29 1 67.5 9t78 20.5t75.5 27.5t60 29q30 17 52 30t41.5 25.5t39.5 26.5t47 34q104 74 177 176t120 239q16 46 27.5 87.5t16.5 77.5v4 q-37 -32 -80 -62.5t-78 -47.5q-28 -13 -60.5 -27.5t-65.5 -27t-64.5 -21.5t-57.5 -11q-173 -16 -288 56t-180 234q-23 56 -30.5 115.5zM152.5 974q6.5 -55 27.5 -108q61 -153 168 -218.5t268 -49.5q37 5 97 26.5t135 56.5q19 10 44 26t50 34.5t48.5 37.5t41.5 35 q7 56 10.5 116.5t-2 121t-22.5 119t-50 110.5q-28 46 -68.5 82.5t-89.5 62t-105 40t-116 15.5h-6q-104 0 -196 -49.5t-155 -141.5q-32 -48 -52 -100t-27 -106.5t-0.5 -109.5z" />
<glyph unicode=":" horiz-adv-x="497" d="M167 1076q0 17 12 28t29 11q43 0 43 -68q0 -17 -10.5 -29t-29.5 -12q-18 0 -29.5 12t-11.5 29q0 5 -1.5 14.5t-1.5 14.5zM200 221q0 18 12.5 28.5t30.5 10.5q44 0 44 -82q0 -20 -11.5 -31t-29.5 -11q-17 0 -29 10q-12 12 -12 32q0 7 -2.5 21.5t-2.5 21.5z" />
<glyph unicode=";" horiz-adv-x="612" d="M124 -123q21 54 102 184q84 135 113 151q17 10 25 -5.5t-7 -44.5q-16 -32 -68 -111q-73 -89 -89 -138q-34 -114 -67 -101q-28 14 -9 65zM257 1070q0 17 12 28t29 11q43 0 43 -68q0 -17 -10.5 -29t-29.5 -12q-18 0 -29.5 12t-11.5 29q0 5 -1.5 14.5t-1.5 14.5z" />
<glyph unicode="&#x3c;" horiz-adv-x="693" d="M15 620q0 12 13 22q29 18 51.5 34t40.5 31.5t33.5 30.5t31.5 32q17 19 36 37.5t42 38.5q18 17 35.5 32t37.5 30q42 35 83 71t74 83q3 5 10 6.5t14 -3.5q7 -4 7.5 -11t-2.5 -14q-35 -47 -78 -84.5t-86 -74.5q-18 -15 -36.5 -30t-36.5 -30q-22 -21 -39.5 -39t-35.5 -36 q-16 -17 -31 -32.5t-32.5 -30.5t-38 -31t-46.5 -32h2q20 -11 61 -39t98 -85q18 -20 47 -51t61 -64q21 -23 44.5 -47.5t44 -46.5t35.5 -37.5t20 -18.5q7 -2 9 -7.5t0 -12.5q-4 -13 -18 -13q-4 0 -6 2q-3 1 -8.5 4.5t-20.5 19t-44.5 46.5t-81.5 87q-32 33 -60.5 63.5 t-45.5 49.5q-55 56 -94 82t-59 37q-15 8 -23 14t-8 17z" />
<glyph unicode="=" horiz-adv-x="1045" d="M106 326q-5 17 11 22q18 4 45 6t60.5 2t71.5 -1.5t76 -2.5q49 -2 93 -3.5t76 -0.5q41 2 93 2t97.5 -0.5t77 -1l31.5 -0.5q7 -1 12 -6t5 -12q-2 -17 -17 -17h-1q-1 0 -32 1t-76 1.5t-96 0.5t-92 -2q-33 -2 -78 -0.5t-94 3.5q-36 1 -72.5 2.5t-69.5 2t-59.5 -1.5t-41.5 -6 q-7 -2 -12.5 1.5t-7.5 10.5zM110 915q-2 8 1.5 14t10.5 8q22 6 88.5 5t166.5 -4q25 -1 50.5 -1.5t47.5 -1t37 0t20 1.5q7 3 39.5 4t79.5 1t102 -1t108 -2q7 -1 12.5 -6t3.5 -13q0 -6 -5 -10.5t-12 -4.5q-52 1 -105.5 2t-97.5 1t-74.5 -1t-37.5 -2q-4 -2 -12.5 -3.5 t-28.5 -1.5q-18 0 -49 1t-80 3q-35 1 -73.5 2t-73.5 1.5t-61.5 0t-36.5 -3.5q-6 -2 -12 1.5t-8 9.5z" />
<glyph unicode="&#x3e;" horiz-adv-x="715" d="M109 1081.5q0 7.5 5 12.5q7 8 15 8t13 -8q27 -26 53.5 -54.5t53.5 -56.5q30 -32 61.5 -65t61.5 -63q59 -59 121.5 -105.5t124.5 -91.5q10 -5 10 -19q0 -3 -3 -7.5t-9 -6.5q-62 -31 -102.5 -70.5t-69.5 -74.5q-6 -5 -11.5 -11.5t-10.5 -11.5q-13 -15 -25.5 -29t-26.5 -28 q-45 -47 -86.5 -97t-70.5 -107q-3 -5 -8 -8.5t-8 -3.5q-4 0 -6 1t-4 1q-14 11 -7 26q31 63 74 114.5t90 99.5q12 14 24.5 28t24.5 26q6 8 11 13.5t11 12.5q28 32 64.5 70t93.5 70q-57 40 -115 83.5t-112 96.5q-32 32 -63.5 65.5t-59.5 65.5q-27 29 -53.5 56.5t-55.5 55.5 q-5 5 -5 12.5z" />
<glyph unicode="?" horiz-adv-x="1073" d="M59 1274q0 7 5 12q3 2 29.5 25t66 52.5t88 57t94.5 39.5q96 22 195.5 -6.5t190.5 -103.5l5 -4q42 -35 81.5 -70.5t67.5 -76t41.5 -89t3.5 -108.5q-9 -58 -32 -106.5t-53.5 -88.5t-66 -73t-69.5 -60q-16 -13 -32.5 -25.5t-33.5 -24.5q-42 -32 -83 -65t-77.5 -68.5 t-65.5 -75t-46 -84.5q-3 -4 -7 -7t-10 -3q-2 0 -3 1t-3 1q-8 2 -10 8.5t0 13.5q19 48 50 89.5t69 78.5t80.5 71.5t85.5 67.5q17 11 33.5 23.5t31.5 26.5q32 25 65.5 55.5t62 68t50 82.5t30.5 99q8 53 -3 95t-36.5 78t-62.5 69.5t-80 69.5l-5 5q-85 69 -176.5 95.5 t-178.5 5.5q-29 -7 -59.5 -21.5t-59.5 -32.5t-55 -37.5t-45.5 -35.5t-31.5 -26.5l-12 -10.5q-12 -9 -24 1q-5 5 -5 12zM283.5 27q-0.5 11 1 23.5t4 23.5t5.5 16q5 9 10.5 11.5t10.5 2.5q13 0 18.5 -9t6.5 -13q2 -2 2 -6q2 -23 -2.5 -41.5t-4.5 -19.5q-2 -3 -3 -5t-4 -4 q-2 -2 -8 -4.5t-12 -2.5q-12 0 -21 12q-3 5 -3.5 16z" />
<glyph unicode="@" horiz-adv-x="1864" d="M146 973q14 128 66 240t141 205q32 34 65.5 59t59.5 42q38 23 79.5 42.5t84.5 33.5q38 12 77.5 17.5t80.5 8.5l26 4q107 11 195 -1.5t163 -40t139 -66.5t123 -80q31 -22 57.5 -51.5t49 -62.5t41.5 -67.5t36 -67.5q31 -61 49 -150q14 -69 13 -149t-17 -153.5t-46.5 -131.5 t-74.5 -84q-29 -16 -76.5 -32.5t-102.5 -27t-112 -10.5t-104 18q-76 27 -101 97q-9 24 -11.5 55t-2.5 60q0 16 -1 28t-1 23q-2 5 -2 9v7q-16 -60 -40 -106.5t-63 -85.5q-38 -40 -98 -59t-129 -14q-20 1 -42.5 9t-43.5 19t-40 24t-32 25q-52 51 -67 113.5t-2.5 128t47 129 t81.5 116.5q33 36 75.5 64.5t90.5 48t99 28.5t101 7q4 0 8 -4q8 -3 12 -14q0 -3 -1 -6t-3 -8q-7 -10 -20 -10q-8 0 -12 8h-4q-45 0 -90 -10t-87 -28t-79 -43.5t-65 -56.5q-21 -23 -43 -54.5t-40.5 -69t-30 -78.5t-11.5 -81.5t15.5 -80t50.5 -73.5q12 -11 28.5 -23 t34.5 -21.5t36.5 -16.5t35.5 -8q63 -5 115 11.5t85 51.5q43 44 67.5 98.5t35.5 131.5q5 31 11.5 51.5t17.5 36.5q6 6 16 6q5 0 9 -2.5t6 -7.5q8 -20 7 -46t-3 -52q-3 -17 -3.5 -32t-0.5 -26q3 -12 3.5 -25.5t0.5 -29.5q2 -29 3 -57t9 -48q11 -28 30.5 -47t51.5 -30 q41 -15 93.5 -14.5t104 10.5t95.5 25t70 30q25 15 45 45t35 69t24.5 85.5t13 95t1.5 95.5t-11 89t-19.5 78t-24.5 64q-17 32 -35.5 65.5t-40 64.5t-46 58.5t-52.5 47.5q-57 41 -118.5 78.5t-134 64t-157.5 38t-188 0.5l-24 -2q-39 -5 -77.5 -10t-74.5 -16q-42 -14 -81 -31.5 t-75 -40.5q-35 -21 -65 -45t-54 -50q-83 -89 -133 -196.5t-64 -228.5q-27 -252 10 -435t139 -305q17 -20 41.5 -48t51 -56.5t53 -53.5t47.5 -38q16 -10 38.5 -22.5t49.5 -25t57 -24t59 -18.5q112 -24 202 -27t167 15q44 9 86 27.5t84 38.5q38 17 77.5 34t81.5 28q6 2 12 -1 t8 -11q3 -16 -12 -22q-39 -11 -78 -27t-75 -33q-42 -21 -85.5 -39t-90.5 -29q-34 -9 -71.5 -12.5t-76.5 -3.5q-54 0 -112.5 6.5t-124.5 21.5q-32 7 -63 19t-59 25.5t-52 27t-40 24.5q-23 13 -50.5 38.5t-55.5 55t-53 58t-42 48.5q-107 128 -146.5 318t-10.5 450z" />
<glyph unicode="A" horiz-adv-x="1449" d="M126 12q-1 3 0 5q0 4 2 8q22 42 44.5 86.5t43.5 88t40.5 84t35.5 75.5q14 27 26 50t23 45q-5 2 -9 4t-6 8q-3 7 1 13.5t10 7.5q5 3 12 4t13 3q30 58 59.5 113t61.5 109q31 55 63.5 111t65.5 118q23 44 57.5 98t69.5 104q17 26 32.5 50.5t29.5 46.5q8 11 15 23t15 25 q28 45 56 89.5t65 90.5q2 4 8 6q3 1 7 1h4q12 -5 12 -18q0 -21 4.5 -42t10.5 -42q3 -16 6.5 -29.5t5.5 -28.5q18 -123 37.5 -233.5t42 -220t48.5 -223.5t59 -242q15 -60 30.5 -115t32.5 -109q5 -18 11 -44.5t11 -53.5q6 -28 8 -52q2 -18 1 -29v-9q0 -17 -15 -17h-2 q-7 0 -11.5 5.5t-2.5 13.5q0 12 -3 35t-8 48.5t-11 51t-12 42.5q-16 54 -32 109t-32 116q-11 51 -22.5 99t-22.5 96q-90 -23 -180 -35.5t-181 -22.5q-94 -11 -186.5 -25.5t-183.5 -40.5q-32 -53 -62 -117q-17 -36 -37 -77.5t-41 -85t-43.5 -88t-43.5 -86.5q-3 -6 -10.5 -8.5 t-14.5 0.5q-6 3 -8 11zM406 504q85 22 172 35.5t173 23.5q91 11 179.5 22.5t176.5 34.5q-21 89 -39 173t-33.5 168t-30 170.5t-28.5 180.5q-2 14 -5 28.5t-7 28.5q-3 11 -6 23t-5 22q-26 -35 -49 -70t-43 -70q-8 -13 -15.5 -25t-16.5 -25q-13 -20 -28.5 -44.5t-33.5 -50.5 q-34 -51 -68.5 -103.5t-56.5 -96.5q-33 -63 -65 -118.5t-63 -109.5q-28 -49 -55 -97.5t-53 -99.5z" />
<glyph unicode="B" horiz-adv-x="1270" d="M208 63q0 22 2.5 46t4.5 48q2 27 3 50t1 37q0 48 1 94t4 96q2 54 4 116q1 31 1 66.5t-1 73.5v2q0 51 3.5 114t8.5 129q3 40 5 76.5t2 67.5q3 54 3 107q0 32 -1 64q-3 85 -5 167l-4 70q0 4 -2 5q-3 13 6 19q2 3 6 4.5t7 3.5q3 0 3 -2q35 11 62.5 16t51.5 9q11 2 20 3.5 t17 3.5q30 7 55 8t51 2h25t25 2q11 1 22 1q56 0 116 -17q72 -20 137 -58.5t117.5 -91.5t80.5 -113q16 -35 25 -73.5t11 -79.5q1 -11 0 -22q0 -84 -33 -160q-38 -85 -111 -142q-44 -34 -91 -56t-97 -38q72 -14 138 -43.5t134 -64.5q30 -15 59.5 -37.5t53.5 -52t38.5 -65 t14.5 -76.5q0 -49 -19 -89t-46.5 -72t-58.5 -55.5t-56 -38.5q-87 -51 -174 -84.5t-177 -50.5q-51 -10 -102.5 -15t-104.5 -5q-8 0 -17.5 0.5t-17.5 0.5h-25q-40 2 -80 4.5t-78 10.5q-9 3 -13 13q-3 13 -4 31q-1 12 -1 27v14zM242 39v-7q0 -13 2 -23q35 -5 70.5 -7t69.5 -4 h27q17 -1 33 -1q42 0 84 4q59 5 116 16q87 15 171 48t168 81q23 14 51.5 35.5t53.5 50t42 64.5t17 78q0 34 -13 64t-34 55.5t-47 45t-53 33.5q-45 22 -88 43t-86.5 37.5t-88.5 26t-93 9.5h-28q-60 -7 -119.5 -9t-119.5 -2q-29 0 -57 -1t-58 -1q1 -32 1 -61q1 -37 -1 -70 q-2 -59 -5 -112q-2 -48 -3 -93.5t-1 -92.5q2 -17 0 -40.5t-4 -50.5q-1 -19 -2.5 -39.5t-3 -40t-1.5 -36.5zM262 707q33 2 67.5 3t69.5 3q54 2 107.5 3.5t101.5 3.5l2 2q82 10 157.5 34t143.5 76q67 51 101 129q31 70 30 148v18q-2 36 -11 73t-23 67q-25 55 -73.5 104 t-108.5 85q-62 36 -128 56q-58 17 -111 16h-16q-14 -2 -27 -2h-25q-26 -2 -49.5 -3t-49.5 -6q-8 -3 -19 -5t-22 -5q-22 -2 -47 -8t-57 -14l4 -66q3 -84 5 -169q1 -33 1 -66q0 -53 -2 -105q-2 -31 -3.5 -68.5t-4.5 -77.5q-4 -60 -8.5 -117.5t-4.5 -108.5z" />
<glyph unicode="C" horiz-adv-x="1225" d="M97 577q5 53 18 106t31 107q30 82 77.5 166.5t120.5 181.5q41 54 87.5 108.5t101.5 100t119.5 79t141.5 46.5q58 10 117.5 10t110.5 -28q34 -18 66 -47.5t58 -70.5l-4 37q0 8 5 13.5t13 5.5q7 0 12 -4.5t5 -12.5l9 -114q0 -6 -3 -11t-10 -7q-6 -2 -11.5 1t-7.5 9 q-64 127 -149 172q-24 12 -49.5 17.5t-51.5 5.5t-53 -3t-52 -7q-72 -12 -133 -43.5t-113.5 -75.5t-97 -96.5t-83.5 -105.5q-71 -94 -117.5 -176.5t-75.5 -163.5q-36 -102 -48 -204q-5 -42 -5 -82q0 -141 64 -248q25 -42 56 -80t62 -65q26 -20 59 -36.5t69 -27.5 q73 -21 146 -21l374 140q17 13 45 37t55 48.5t47 42.5t21 19q4 5 11 4.5t13 -6.5q11 -12 -2 -25q-2 -2 -21.5 -20t-46.5 -42t-55 -48.5t-46 -38.5q-98 -73 -197 -109.5t-197 -36.5q-39 0 -77.5 5.5t-78.5 18.5q-40 12 -76 29.5t-64 39.5q-34 29 -67.5 69.5t-60.5 86.5 q-68 114 -68 262q0 43 6 88z" />
<glyph unicode="D" horiz-adv-x="1460" d="M177 62q10 115 10 220.5t-3 213.5q0 47 -0.5 94.5t-0.5 97.5q0 121 3 257.5t7 263.5q3 87 5 165t4 146q-5 4 -5 12q0 7 5 11.5t13 4.5q51 -2 108 -20.5t108 -37.5l19 -8q28 -11 55 -20t56 -19q53 -18 107 -38t108.5 -46.5t109.5 -63.5t110 -90q58 -56 118.5 -126.5 t109.5 -153.5q50 -83 80 -176q30 -90 29 -187v-6q-1 -113 -37.5 -213t-103.5 -181t-161.5 -140t-210.5 -89q-42 -11 -91.5 -16t-100.5 -5q-23 0 -45 1t-45 2q-21 3 -46.5 7t-52 10t-52.5 14.5t-48 20.5q-12 7 -23.5 12.5t-22.5 11.5q-25 11 -47 24t-44 31q-2 -1 -3.5 -2 t-3.5 -1h-2q-7 0 -11.5 5.5t-4.5 13.5zM214 83q21 -22 44 -35t49 -24q11 -5 23.5 -11t24.5 -15q42 -22 94 -32t94 -15q31 -4 67 -5h20q25 0 50 2q35 2 68.5 7t62.5 12q110 28 199.5 84t153 133t98.5 171.5t36 200.5v6q0 92 -29 178q-30 89 -77.5 169t-106.5 148.5 t-116 123.5q-52 50 -104 85t-104 61t-104.5 45.5t-106.5 37.5q-29 9 -57 19t-55 21l-19 6q-43 17 -90.5 33.5t-90.5 21.5q-2 -67 -4 -143t-5 -159q-4 -127 -7 -263.5t-3 -257.5q0 -50 1 -97.5t1 -93.5q2 -104 2 -204.5t-9 -209.5z" />
<glyph unicode="E" horiz-adv-x="1267" d="M165 339q-2 28 -1.5 56.5t1.5 57.5q3 57 6 113q3 26 4 51.5t3 54.5q0 17 1 35t3 38q-7 0 -12 3.5t-5 10.5q-1 2 -1 5q0 4 3 8q4 6 11 6q4 0 6 1q2 29 3.5 59.5t4.5 59.5q4 72 9 143t7 143q0 50 -2 104t-7 102.5t-13 88t-19 60.5q-3 8 -0.5 14.5t8.5 9.5q14 8 24 -8 q2 -3 2 -8t2 -8q18 9 59 16t102 12.5t139 10t170 9.5l33 2q56 4 108 5q90 0 168 -13q124 -19 208 -64q6 -2 8 -10q1 -4 2 -7q0 -4 -2 -8q-5 -8 -17 -8h-4t-4 2q-81 42 -200 60q-82 12 -176 12q-43 0 -89 -3l-34 -2q-40 -3 -87.5 -5.5t-95.5 -5.5t-94 -6.5t-83 -8t-63 -9.5 t-34 -11h-2q8 -32 13.5 -72t8.5 -83t4 -86q0 -22 0.5 -42t-0.5 -40q-1 -73 -5 -145.5t-10 -144.5q0 -26 -1 -54t-3 -57q39 4 108 11t153 14t176.5 14.5t178.5 13.5t160 9q55 2 95 2h25q8 0 13 -4.5t5 -12.5q0 -7 -5 -13t-13 -6h-15q-51 0 -126 -3.5t-161.5 -9.5t-177.5 -13 t-172.5 -14t-147 -13t-101.5 -10q0 -20 -1 -39.5t-3 -38.5q-2 -28 -3 -54.5t-2 -53.5q-6 -54 -8 -110q-1 -26 0 -51q0 -30 1 -60v-24t2 -28q1 -35 3 -73.5t8 -76t17.5 -71t30.5 -58.5q16 -19 63.5 -32.5t113 -22t141.5 -11.5q38 -2 76 -2t76 2q89 2 175.5 12.5t183.5 23.5 q8 2 13.5 -1.5t5.5 -10.5q2 -8 -2 -14.5t-13 -7.5q-97 -14 -185 -24.5t-176 -13.5h-54q-29 0 -69 1t-85 3.5t-90.5 8t-85 14.5t-70 22t-44.5 31q-23 28 -36 65t-20 76.5t-9.5 80.5t-3.5 79v27t-2 23z" />
<glyph unicode="F" horiz-adv-x="1224" d="M186 -99q5 101 5 201.5v199.5q0 106 1 213t6 215q-3 6 0 13q1 23 1.5 46.5t2.5 46.5q5 68 8 135t5 133q0 66 -2 129.5t-4 128.5q-2 37 -3.5 73.5t-1.5 74.5q-2 7 4 11.5t13 6.5h1q7 0 11 -5.5t4 -11.5q0 -2 1 -4t1 -4q38 13 84.5 20.5t97 11t102.5 4.5t100 1q25 -1 48 -1 h21q32 1 55 2q9 1 18 1q23 0 51 -4q40 -4 84.5 -12.5t90.5 -20.5t85 -25t67.5 -27t40.5 -26q6 -5 6 -12.5t-6 -11.5q-7 -5 -11 -5q-9 0 -12 6q-9 9 -35 20.5t-61.5 23.5t-78.5 23.5t-85.5 20t-82.5 12.5q-27 3 -49 4q-10 0 -19 -1q-25 -2 -57 -1.5t-70 0.5q-47 0 -99 -0.5 t-103 -4.5t-98 -11.5t-83 -22.5q0 -52 3 -104q2 -64 4 -128.5t2 -130.5q-2 -67 -5.5 -134t-6.5 -136q-1 -19 -1 -37t-1 -36q78 30 140 48.5t116 28.5t104 14q39 3 80 3h23q22 0 67.5 -3t97.5 -8.5t103 -12.5t83 -14q7 -2 11 -8t2 -13q-5 -17 -22 -13q-32 7 -82 14t-101.5 12 t-95.5 8.5t-63 3.5h-8q-51 0 -99 -4t-101.5 -14.5t-115.5 -29.5t-140 -49q-5 -106 -6.5 -211.5t-1.5 -210.5q0 -99 -1 -199.5t-3 -201.5q0 -17 -18 -17q-8 0 -13 5t-5 12z" />
<glyph unicode="G" horiz-adv-x="1369" d="M98 480q4 66 9 120l2 29q4 53 20.5 123t41.5 143.5t55 143.5t61 123q10 17 34 53.5t58.5 81t79 91.5t97 85.5t110.5 63.5t120 25h13q32 -3 73.5 -16t85 -32t85.5 -40.5t76 -40t56 -31.5t25 -15q6 -4 8 -12t-2 -15q-10 -15 -26 -4q-1 0 -21.5 12t-53 29.5t-73.5 39 t-83.5 40t-82 31.5t-69.5 15q-8 1 -15 1l-75 -12q-45 -15 -89 -42.5t-86 -65t-80 -80.5t-71.5 -90t-60.5 -92q-32 -51 -61.5 -118.5t-53.5 -138.5t-40 -139.5t-20 -120.5l-2 -28q-5 -52 -8 -115q-1 -18 -1 -37q0 -44 5 -88q7 -63 27.5 -122t63.5 -104q49 -54 97.5 -84 t95 -44.5t90.5 -16.5h29q28 0 55 2q49 4 103 17t102 29.5t86 33t56 28.5q76 54 129.5 117t89.5 127.5t57.5 128t33.5 117.5l14 69q-75 9 -146 9q-27 0 -53 -1q-95 -5 -177 -20t-149 -36.5t-114.5 -41t-73.5 -33.5l-26 -14q-4 -2 -11 -2q-5 0 -9.5 1.5t-7.5 6.5q-4 7 -2 14 t10 12q1 0 28.5 15t78 35.5t121.5 43t157.5 38t187.5 19.5q21 1 42 1q81 0 168 -12h2h1q5 -2 9 -1t8 -1q7 -2 12 -8q3 -3 3 -8q0 -3 -1 -5q0 -8 -6.5 -13.5t-12.5 -3.5l-17 -74q-12 -56 -34.5 -122t-61 -134t-95 -133.5t-134.5 -121.5q-18 -12 -57 -30t-89.5 -35.5 t-107 -31.5t-109.5 -18q-16 -2 -31 -3t-29 -1q-39 0 -80.5 6.5t-84.5 24t-87.5 48t-89.5 78.5q-47 49 -69 112.5t-29 130.5q-5 46 -5 90q0 22 1 44z" />
<glyph unicode="H" horiz-adv-x="1540" d="M153 -55q0 120 7 238.5t15 236.5q3 35 5.5 70.5t4.5 70.5q6 88 5.5 179.5t-5.5 184.5q-4 69 -4 137q0 84 6 168q10 150 27 296q0 7 6 10.5t13 3.5q7 -1 12 -6t3 -12q-16 -145 -26 -294q-6 -83 -6 -166q0 -67 4 -135q5 -78 5 -154.5t-3 -151.5q3 0 5 4q5 1 41.5 9.5t91 22 t120 28.5t127.5 29t114 24t80 13q17 2 39 5t49 8q51 7 111 15t122 12q38 2 74 2q23 -1 45 -1q57 -2 101 -15q2 25 2 50t2 50l5 56q8 67 14 135q4 46 4 92q0 23 -1 46q-2 41 -3 79v22q-1 27 1 54q2 38 10.5 78.5t23.5 87.5q2 9 8 12q4 2 8 2q3 0 6 -1q6 -2 10 -8q2 -4 2 -8 q0 -3 -1 -6q-15 -45 -22 -84.5t-9 -75.5q-2 -30 -2 -61v-13q0 -36 1 -76q2 -32 2 -64q0 -38 -3 -76q-6 -70 -13 -137l-6 -58q-11 -111 -11 -222q0 -26 1 -51q3 -136 8 -269q3 -48 4.5 -95.5t3.5 -95.5l1 -24q0 -35 2.5 -68.5t10.5 -65.5q2 -8 -1.5 -14.5t-11.5 -8.5h-3 q-13 0 -17 13q-10 37 -12.5 73t-2.5 71v22q-2 49 -3.5 96t-3.5 95q-6 103 -8 206v48q0 80 4 160q-40 15 -96 17q-20 1 -40 0q-36 0 -76 -2q-62 -4 -123.5 -13t-112.5 -16q-26 -5 -49 -7.5t-40 -4.5q-27 -3 -79.5 -13.5t-115.5 -25t-129 -30t-120 -28.5t-89.5 -22t-36.5 -9 h-4q-3 0 -5 3t-4 5q-2 -8 -1 -18.5t-1 -18.5q-2 -37 -4.5 -72t-4.5 -70q-8 -118 -15.5 -236t-7.5 -237q0 -17 -16 -17q-19 0 -19 17z" />
<glyph unicode="I" horiz-adv-x="1119" d="M81 1432q0 8 4.5 14t12.5 6q3 0 25.5 2.5t59 5t82.5 6t96.5 5t101.5 1.5q7 0 14 1q43 0 82 -3l1 1v1l2 -2h16t15 -2q28 -3 71 -7t92.5 -9.5t100.5 -11.5t95 -12.5t76 -13t43 -11.5q7 -3 9 -10q1 -3 1 -6q0 -4 -2 -7q-2 -5 -7 -8t-10 -3q-2 0 -4 1t-4 1q-10 5 -56 13 t-112 17t-144 17.5t-152 14.5h-8t-8 2q-13 -92 -21.5 -176.5t-12.5 -168.5q-4 -83 -6 -167q-1 -50 -1 -103v-71q1 -68 4 -134t7 -131q5 -103 8 -208q1 -32 1 -63q0 -74 -5 -151h9q25 2 53 2.5t60 2.5q53 2 108 4t103.5 2t87.5 -2.5t60 -8.5q6 -2 9.5 -9t1.5 -14t-8.5 -10.5 t-13.5 -1.5q-18 7 -57 9q-32 2 -72 2h-15q-48 0 -101.5 -2.5t-100.5 -4.5q-32 -2 -61 -3t-52 -1q-31 -1 -75 -5.5t-92 -11.5t-95 -14.5t-85 -14t-61.5 -11t-24.5 -4.5h-2q-6 0 -11 4t-6 10q-2 8 2.5 14t11.5 8q3 0 23 3.5t52 9t72 12t83 13t85 11.5t78 8q5 76 5 151 q0 32 -1 63q-3 105 -9 208q-3 66 -6 132.5t-5 135.5q0 90 1.5 174.5t6 167.5t12.5 168t21 177q-36 2 -75 2h-20q-50 0 -98 -2.5t-92 -6t-78 -6t-54 -4.5t-21 -2q-18 0 -20 15z" />
<glyph unicode="J" horiz-adv-x="1359" d="M107 336q0 8 5.5 13.5t12.5 5.5t12 -5.5t5 -13.5q0 -7 3 -23q2 -14 6 -38t12 -62q7 -33 35.5 -71t76.5 -75t114.5 -70.5t149.5 -56.5q59 -14 101 -16h8q36 0 60 14q23 14 31.5 37.5t15.5 46.5q2 7 2.5 12t2.5 10q11 37 20 88t16 111t13 125.5t10.5 132t8 130t6.5 119.5 l4 77q3 47 4 107v60v62q-1 64 -3.5 126.5t-5 115.5t-4.5 92t-3 56h-86t-87 -1q-68 0 -138 -1t-148 -1q-8 0 -13.5 4.5t-5.5 12.5q0 7 5.5 12t13.5 5q75 0 146.5 1.5t139.5 3.5q112 2 219.5 2t222.5 -5q32 -2 64.5 -4.5t64.5 -5.5q17 -2 33 -3t31 -3q8 0 12.5 -6t4.5 -12 q-5 -17 -18 -17h-3q-15 2 -30.5 3t-33.5 3q-31 3 -63 6t-64 5q-60 1 -117.5 2t-114.5 1q1 -19 3 -59t4 -93.5t4.5 -116t3.5 -125.5q1 -42 1 -82q0 -20 -1 -40q0 -59 -3 -106l-4 -78q-3 -56 -6.5 -120t-8.5 -131t-10.5 -133.5t-13 -127.5t-16.5 -113t-20 -90q-1 -5 -2.5 -9.5 t-1.5 -9.5q-4 -13 -9 -28t-12.5 -29.5t-18 -27.5t-26.5 -22q-32 -19 -78 -19q-26 0 -54.5 5t-62.5 14q-79 21 -147.5 54t-121.5 72t-87 83t-43 88q-9 40 -13.5 65.5t-6.5 40t-2.5 20t-0.5 6.5z" />
<glyph unicode="K" horiz-adv-x="1221" d="M220 111q0 77 2 176t4.5 208.5t5.5 224.5t6 223.5t6 206.5t5.5 173t4 123t1.5 57q2 8 6.5 13.5t10.5 5.5h2q8 0 13 -6.5t3 -13.5q-2 -82 -5 -178.5t-6 -200.5t-6.5 -213t-6.5 -215q31 18 93.5 68.5t141.5 120t168.5 151t175.5 161.5t161.5 151.5t127.5 121.5 q6 6 12.5 5.5t11.5 -5.5t4.5 -12t-6.5 -12q-13 -13 -48 -47t-85.5 -81.5t-112.5 -106t-128.5 -119.5t-134 -122.5t-129.5 -115.5t-114.5 -97.5t-89.5 -69.5q8 -18 37.5 -50.5t70.5 -71.5t90.5 -83t97.5 -85t91 -77.5t73 -60.5l20 -14q11 -11 23.5 -22t25.5 -21 q45 -38 91 -75.5t89.5 -67.5t83 -49t73.5 -20q7 -1 12 -7q4 -5 4 -9q0 -2 -1 -4q0 -8 -5 -11.5t-12 -3.5q-38 1 -81 20.5t-88.5 50.5t-93 69.5t-95.5 78.5l-66 57q-95 79 -174.5 146.5t-140 123t-100 97.5t-55.5 69q-6 -3 -10.5 -5.5t-7.5 -4.5q-3 -139 -5.5 -265.5 t-4 -225.5t-1.5 -163t2 -78q2 -6 -2 -12t-11 -6q0 -3 -4 -3q-6 0 -10.5 4.5t-4.5 12.5q-3 14 -4 64q-1 34 -1 79v48z" />
<glyph unicode="L" horiz-adv-x="1119" d="M133 245q4 151 11 300l4 84l4 84q3 78 6 152t8 147q6 128 12 251t6 253q0 7 4.5 12t12.5 5t12.5 -5t4.5 -12q0 -130 -6 -254t-13 -252q-3 -73 -6.5 -147t-6.5 -152q-2 -42 -3.5 -83.5t-4.5 -84.5q-6 -143 -10 -289q-2 -57 -1 -114q0 -89 4 -178l36 2t35 3q53 4 95.5 8 t81.5 9.5t79 13.5t90 22q59 16 149 35t193 41q32 8 66.5 14.5t66.5 14.5q7 3 13 -1q8 -7 8 -17q0 -12 -13 -15q-33 -7 -67 -14t-68 -15q-102 -22 -192 -41.5t-147 -35.5q-51 -14 -92 -22t-80.5 -13.5t-82.5 -9.5t-97 -8q-20 -2 -42.5 -3.5t-46.5 -4.5h-2q-6 0 -12 6 q-5 3 -5 11q-5 101 -5 202q0 51 1 101z" />
<glyph unicode="M" horiz-adv-x="1775" d="M102 -26q-1 3 -1 7t2 8q26 63 42 132.5t31 138.5q8 38 16 77.5t19 78.5q12 48 25.5 94t27.5 94q15 57 30.5 113.5t29.5 114.5q19 69 34 130t26 118q9 45 16 88.5t13 85.5l2 10q4 30 9.5 63t14.5 65t23 61.5t36 54.5q8 4 12 4q3 0 7 -0.5t6 -3.5q10 -8 19 -25t16 -35 t12 -34.5t7 -23.5q1 -6 5 -24.5t9 -45t11 -59.5t12 -68q5 -31 10.5 -61t10 -55.5t8.5 -45t6 -28.5q3 -15 12.5 -65.5t22.5 -119.5q7 -41 15.5 -86.5t17 -90t16.5 -85t15 -72.5q20 -100 40 -186t38 -166l18 -70q0 -5 3.5 -14t8.5 -19q0 -3 1 -6t1 -6q6 19 11 39.5t8 40.5 q6 49 18 81q16 47 32 91t30 91t30.5 95t31.5 96q59 176 114.5 354t96.5 359q7 32 13 63.5t12 62.5l2 6q2 10 2 17.5t2 13.5q5 19 9.5 39.5t13.5 58.5q3 8 14 12q14 0 19 -8q20 -34 30.5 -65.5t16.5 -56.5q2 -8 3.5 -15t4.5 -12q11 -35 22.5 -84t23.5 -107.5t24 -124 t24 -134.5q18 -100 36 -198t37 -185q12 -55 29 -116.5t38 -136.5q26 -92 53.5 -178t50.5 -155q1 -3 1 -5q0 -4 -2 -8q-3 -6 -11 -8q-2 -2 -3 -2h-1q-7 0 -11 3.5t-6 8.5q-23 69 -50.5 155.5t-55.5 178.5q-21 75 -37 136.5t-28 117.5q-20 88 -38 187t-35 197 q-12 69 -24 134.5t-23.5 123.5t-23 106t-23.5 82l-4.5 13.5l-5.5 16.5q-3 17 -8.5 35.5t-13.5 36.5q-3 -14 -6 -25.5t-5 -23.5q-2 -8 -3 -14.5t-3 -16.5v-6q-8 -32 -14 -63.5t-12 -62.5q-40 -184 -97 -363t-115 -355q-15 -48 -31.5 -95.5t-32.5 -94.5q-13 -47 -29 -92.5 t-31 -91.5q-5 -14 -9 -33.5t-7 -41.5q-8 -37 -16.5 -72t-25.5 -58q-6 -10 -18 -7q-5 2 -8.5 5.5t-3.5 9.5q-1 8 -6 21.5t-10 24.5q-5 12 -8.5 22.5l-5.5 16.5l-17 72q-20 78 -40 165t-40 187q-6 32 -14 72.5t-16 85t-16.5 89.5t-15.5 86q-14 67 -23 118t-14 68 q-2 9 -5.5 27.5t-8.5 44t-10.5 56t-10.5 62.5q-6 33 -11.5 65.5t-10.5 59.5t-9 45.5t-5 24.5q-5 19 -14 44t-19 42q-15 -22 -25 -47.5t-17 -52.5t-11 -55t-8 -55l-2 -8q-7 -42 -13.5 -86.5t-14.5 -89.5q-13 -58 -27 -119.5t-33 -132.5q-15 -57 -31.5 -113t-30.5 -113 q-14 -48 -27 -95t-27 -95q-9 -36 -18 -75.5t-17 -78.5q-14 -69 -30 -140t-44 -137q-8 -13 -23 -10q-7 3 -9 9z" />
<glyph unicode="N" horiz-adv-x="1589" d="M138 -36q17 228 21 448q3 147 3 282q0 68 -1 133q-2 63 -2 124t-2 124q-3 52 -4.5 102t-4.5 101q-3 57 -5.5 115t-4.5 116q-1 2 -1 4q1 3 3 5q4 4 8 6q5 4 11 3t9 -6l197 -241q168 -205 332.5 -403t335.5 -394q91 -104 181.5 -207.5t181.5 -207.5l35 -41q3 57 5 113 t4 114l4 76q8 160 8 342.5t-17 368.5q-12 117 -27.5 233.5t-53.5 240.5q-2 5 2.5 12t11.5 10q2 1 3 1q4 0 8 -3q6 -4 8 -11q25 -59 39 -119.5t21.5 -121t11.5 -120.5t9 -118q18 -189 18 -373v-21q0 -171 -8 -323l-5 -76q-1 -68 -3.5 -133.5t-5.5 -134.5q0 -5 -3.5 -9 t-6.5 -6q-13 -3 -21 4l-62 72q-92 105 -182.5 208.5t-181.5 206.5q-171 195 -335.5 394.5t-332.5 403.5l-167 202l4 -90l4 -90q4 -51 6.5 -101t4.5 -103q2 -63 3 -124.5t1 -124.5q1 -97 1 -202q0 -18 1 -35q-1 -88 -3 -180q-2 -110 -7.5 -222.5t-15.5 -225.5q0 -17 -18 -17 q-7 -1 -12 5q-4 4 -4 10q0 2 1 4z" />
<glyph unicode="O" horiz-adv-x="1631" d="M120 596q0 131 31.5 247.5t85 215.5t124.5 179t149 137.5t158.5 91.5t153.5 41q55 5 107 5q131 -1 235 -35q145 -48 239 -161q47 -57 78 -128t46 -153q14 -75 14 -156q-1 -8 -1 -16q-2 -90 -19 -187q-14 -69 -37.5 -150t-61.5 -162.5t-92 -157.5t-128 -134.5 t-170.5 -93.5t-218.5 -35q-20 0 -41.5 1.5t-43.5 3.5q-608 65 -608 647zM156 596q0 -275 144.5 -428.5t430.5 -183.5q21 -3 41.5 -3.5t40.5 -0.5q116 0 207.5 34t162 90t122 129t87.5 151t58 155.5t35 142.5q20 104 20 199q-1 76 -13 146q-28 159 -116 268 q-151 183 -451 183q-23 0 -48.5 -1.5t-50.5 -4.5q-69 -6 -145 -39t-150.5 -89t-142.5 -133t-119.5 -172.5t-82 -207t-30.5 -235.5z" />
<glyph unicode="P" horiz-adv-x="1058" d="M110 10.5v60v86.5t0.5 102.5t0.5 108t0.5 103.5t1 88.5t1.5 63.5q0 9 0.5 17.5t0.5 17.5q1 0 1 1l-1 1l1 1h1q2 56 8 117.5t12 124.5q5 42 8.5 81.5t5.5 77.5q3 34 5.5 81.5t4 99.5t2.5 103t1.5 92t1 66.5t0.5 26.5q0 8 5.5 13t11.5 5q8 0 13 -5t6 -13v-10q2 8 10 10 q78 21 160 29q39 4 78 3q42 0 85 -4q39 -3 82.5 -15t87 -30.5t84 -43t74.5 -52.5q21 -19 40 -44.5t34 -53.5t26 -57t17 -54q11 -44 12 -89q0 -70 -28 -144q-22 -63 -59 -119t-85 -101.5t-104 -79t-117 -50.5q-77 -21 -159 -21q-20 0 -40 1.5t-40 3.5q-12 3 -30 4.5t-38 3.5 q-38 4 -75.5 8t-66.5 9q0 -3 -1 -6.5t-1 -5.5q0 -31 -0.5 -90.5t-1 -129.5t-0.5 -143.5v-133.5v-99v-40q0 -8 -4.5 -13t-12.5 -5t-13.5 5t-5.5 13v23.5zM151 669q29 -5 68.5 -8.5t75.5 -7.5q21 -2 39.5 -4t30.5 -4q38 -5 76 -5q19 0 37 1q56 4 111 19q57 16 109.5 47t97 74 t79.5 95.5t56 111.5q26 71 26 137q0 38 -9 75q-6 24 -17 50.5t-25 52.5t-30.5 49t-34.5 39q-32 27 -70 50t-79 40.5t-82 29t-77 14.5q-42 4 -83 4q-38 1 -76 -3q-78 -8 -153 -28q-20 -8 -19 -4q-1 -32 -2 -88.5t-2.5 -120t-4 -124.5t-5.5 -102q-4 -37 -8 -78t-9 -83 q-6 -58 -11.5 -116.5t-8.5 -112.5zM202 1498v10q1 -2 0 -4v-6z" />
<glyph unicode="Q" horiz-adv-x="1790" d="M84 702q0 111 37.5 213.5t101.5 191.5t150.5 162t183.5 125.5t200.5 81t202.5 28.5q36 0 71 -4.5t70 -12.5q128 -31 234.5 -109.5t183.5 -192.5t119.5 -257.5t42.5 -302.5q0 -69 -19 -137.5t-56 -134.5t-90 -127.5t-120 -115.5q-64 -51 -134.5 -91.5t-143 -68.5 t-146 -42.5t-142.5 -14.5q-19 0 -38.5 1t-38.5 3q-77 10 -156.5 37.5t-154 73t-140 110.5t-114 151t-76.5 194t-28 239zM119 702q0 -126 27 -229t73 -185t108.5 -144t133.5 -105.5t147 -69.5t149 -36q19 -3 36.5 -3.5t36.5 -0.5q67 0 137 14t140 40.5t137.5 65t129.5 87.5 q131 105 201.5 232t70.5 257q0 153 -40.5 290.5t-114 247t-175.5 185t-225 105.5q-31 8 -63.5 11.5t-67.5 3.5q-95 0 -194.5 -27.5t-193 -77t-176 -119.5t-144 -155t-97.5 -183t-36 -204zM956 263q0 5 4.5 11.5t12.5 6.5q5 0 11 -4t8 -11q1 -1 8.5 -18t35 -54.5t83 -98.5 t151.5 -150q55 -51 101 -91t83.5 -71.5t68 -55.5t56.5 -44q16 -11 28.5 -20.5t26.5 -18.5q5 -7 5 -16q0 -6 -3 -10q-6 -6 -15 -6q-2 0 -4.5 0.5t-5.5 3.5q-12 8 -24.5 18.5t-28.5 21.5q-26 20 -57 44t-69.5 55.5t-84.5 72t-102 92.5q-101 94 -158.5 158t-86 104t-36 59 t-8.5 22z" />
<glyph unicode="R" horiz-adv-x="1274" d="M142 525v22.5t2 22.5v2q4 66 9 131.5t10 130.5q9 108 17 220q5 69 5 138q0 43 -2 86q-1 11 -1 21.5v21.5q-2 45 -5.5 89t-17.5 82q-2 8 2 14q3 8 13 8q3 0 30 2q28 2 64 3h36h38q38 -1 66 -5q15 -2 33 -4t38 -4q46 -5 95.5 -12t92.5 -21q31 -11 67.5 -29t72.5 -39.5 t68.5 -45t55.5 -44.5q1 -1 24.5 -26t54 -67.5t60.5 -99.5q28 -57 40 -122q5 -29 5 -60q0 -36 -7 -74q-14 -70 -69 -138q-69 -84 -239 -127.5t-442 -48.5q13 -4 23.5 -7t21.5 -7q49 -11 92.5 -21.5t80.5 -24.5q56 -21 121.5 -56.5t132.5 -78.5t131 -89.5t116.5 -88.5 t89 -76.5t49.5 -52.5q3 -4 3 -8q0 -7 -7 -14q-3 -3 -10 -3q-4 0 -8 1t-6 6q-12 17 -48 49.5t-87.5 73t-114.5 86t-128.5 87t-129 76.5t-116.5 55q-36 13 -79 24.5t-89 22.5q-42 11 -86 21.5t-86 24.5h-38h-8q-1 -7 -1 -13.5v-13.5q-1 -21 -1 -43q0 -54 4 -107q5 -75 11 -148 q5 -61 8.5 -122.5t5.5 -122.5q0 -8 -5.5 -13t-13.5 -5q-7 0 -12 5t-5 12q-1 61 -4.5 122t-8.5 120q-4 75 -10 151q-4 55 -5 111q0 20 1 40zM180 586h8q55 -1 106 -1q142 0 249 10q146 14 242 38.5t149.5 55.5t79.5 62q50 61 62 125q6 32 6 62q0 31 -6 61q-12 60 -39.5 112.5 t-56 92t-51 62.5t-23.5 24q-21 19 -51.5 41.5t-65 43t-69.5 38t-64 27.5q-40 14 -88 20.5t-94 12.5q-20 2 -37.5 3.5t-34.5 3.5q-20 3 -47.5 4t-56.5 1t-55.5 -1t-42.5 -2q10 -39 12 -81t4 -80q0 -11 1 -21.5t1 -21.5q1 -39 1 -78q-1 -73 -5 -147q-8 -112 -16 -222 q-5 -60 -10.5 -121t-7.5 -124z" />
<glyph unicode="S" horiz-adv-x="1392" d="M153 239q-1 3 -1 6t2 7q4 7 10 10q5 2 11.5 0t10.5 -9q15 -33 30.5 -61.5t35 -54t45 -48t58.5 -43.5q34 -21 76.5 -32.5t89 -17t93.5 -6.5t90 -1h8h1q56 0 106 12t96 33t89.5 49t88.5 59q65 46 99 100q36 53 48 108q9 40 9 80q1 14 -1 28q-4 54 -17 100q-14 52 -48 88 t-74.5 60t-81 36.5t-66.5 18.5q-48 11 -101 13.5t-111 3.5q-59 3 -118.5 7t-115.5 16t-106.5 35t-90.5 64q-40 40 -40 99q0 15 2 31q12 80 87 187q66 96 164.5 158t215.5 82q47 8 94 8q74 1 147 -19q120 -32 226 -109q5 -5 6.5 -12.5t-2.5 -12.5q-5 -6 -12.5 -7t-12.5 4 q-100 73 -213 103q-67 18 -135 17q-46 0 -93 -8q-109 -17 -202 -75.5t-155 -148.5q-23 -33 -43 -71q-22 -38 -32 -74q-8 -27 -7 -53q1 -9 1 -17q4 -34 28 -58q37 -37 84 -58t100 -32.5t110.5 -15t114.5 -5.5q58 -2 112 -5t106 -14q119 -25 196.5 -84t100.5 -143 q19 -71 19 -135q1 -64 -19 -122q-38 -114 -153 -196q-47 -32 -92.5 -61t-94 -51t-101 -35t-112.5 -13h-1h-8q-45 1 -93.5 2.5t-96.5 7.5t-93.5 18.5t-83.5 36.5q-41 24 -69.5 50.5t-49.5 55t-36.5 57t-28.5 57.5z" />
<glyph unicode="T" horiz-adv-x="1353" d="M105 1482q1 8 7 12q4 3 9 3h3q1 0 36 -4.5t89.5 -11.5t123 -14t137.5 -13q68 -4 129 -6q17 0 32 -1q40 0 70 3q53 6 112 7h47q36 -1 68 -1q56 -2 103.5 -4.5t79.5 -4.5h16q15 -1 40 -1.5t53.5 -0.5t57.5 0.5t52.5 0.5t38.5 0.5t16 0.5h1q7 0 12 -4.5t5 -11.5 q0 -8 -5 -13.5t-12 -5.5h-17.5t-39 -0.5t-52 -0.5h-56.5h-54.5t-40.5 1h-16l-80 5t-103 5q-33 1 -67 0h-46q-58 -1 -110 -7h-6q6 -6 6 -11q0 -4 2.5 -38.5t7 -85.5t9 -111t8.5 -114t6.5 -95t2.5 -55q0 -21 1.5 -42.5t3.5 -41.5l3 -41q3 -52 7 -112t7 -121q2 -61 4 -121 q1 -36 1 -68v-42q0 -26 0.5 -53t0.5 -55q2 -50 2 -95v-21q0 -54 -18 -90q-1 -5 -6 -7t-10 -2q-4 0 -7 1q-6 2 -8 8.5t2 13.5q6 15 8.5 35.5t3 45t0 52.5t-1.5 58q-1 28 -1.5 55.5t-0.5 53.5v41q-1 32 -1 68q-2 59 -4 120t-5.5 120.5t-6.5 111.5l-3 41q-6 42 -6 87 q0 14 -2.5 55.5t-6.5 96.5t-8.5 115t-8.5 110.5t-6.5 84t-2.5 34.5q0 9 4 13q-20 -1 -44 -1q-28 -1 -62 1q-60 2 -125 7.5t-128 12.5t-113.5 13t-84 10t-37.5 5q-7 1 -11 7t-4 13z" />
<glyph unicode="U" horiz-adv-x="1475" d="M161 783.5q0 77.5 1 150.5v121q0 57 0.5 108.5t2.5 102.5q3 48 3 98v34q0 34 -1 71q0 7 5.5 12.5t13.5 5.5q6 0 11.5 -5.5t5.5 -12.5q0 -55 -1 -105.5t-3 -99.5q-1 -49 -2 -100.5t-1 -108.5v-123v-61q0 -78 2 -160q2 -115 20.5 -225.5t60.5 -207.5t120 -167 q19 -17 45.5 -33t56.5 -30t61.5 -25t62.5 -17q54 -10 106 -10q27 0 51 2q76 8 142.5 35.5t121.5 74.5t96 112q30 48 51.5 98.5t37.5 102t27.5 103.5t22.5 103q9 46 15 101t9.5 113.5t4.5 117.5q1 39 1 76q-1 19 -1 37q0 54 -1.5 99t-2.5 76v7q-1 54 -1 103.5t1 108.5 q0 8 5.5 12.5t12.5 4.5q17 0 17 -17q0 -60 -1 -108v-33q0 -33 1 -69l1 -7q2 -59 3 -139q0 -27 1 -55q0 -55 -2 -112q-2 -86 -9.5 -170.5t-21.5 -151.5q-10 -53 -21.5 -106.5t-27.5 -106t-38 -104.5t-53 -101q-36 -58 -84 -103t-105 -75.5t-121 -46.5t-132 -16q-28 0 -56 2.5 t-56 9.5q-33 6 -67.5 17t-66.5 25.5t-60.5 32t-49.5 36.5q-55 49 -92.5 111t-61.5 132t-36.5 146t-18 154t-5.5 155.5z" />
<glyph unicode="V" horiz-adv-x="1331" d="M160 1481q-2 14 14 20q6 2 12.5 -2t9.5 -10q11 -47 23.5 -92.5t25.5 -90.5q35 -130 70.5 -259.5t73.5 -258.5q55 -185 109 -351.5t108 -321.5q8 -22 16.5 -40t19.5 -36q5 -11 10.5 -20.5t10.5 -20.5q81 183 151 354.5t133 333.5q23 61 43.5 116t37.5 106q11 36 21 64.5 t19.5 53t18.5 47t19 46.5q11 23 22 52.5t26 66.5q10 27 25 63.5t31.5 75t34 75t33.5 62.5q6 8 14 8q6 0 12 -4q7 -4 7 -15q0 -5 -3 -10q-16 -26 -34 -62.5t-35 -74.5t-31 -73t-22 -56q-16 -40 -27.5 -68.5t-22.5 -53.5q-9 -24 -17.5 -46.5t-18 -46.5t-19.5 -51.5t-21 -62.5 q-17 -53 -37 -108t-43 -116q-67 -170 -140.5 -351t-161.5 -375q-7 -10 -15 -10h-2q-10 0 -16 13q-3 10 -6 15.5t-5.5 10.5t-6 10.5t-8.5 14.5q-5 8 -11.5 20.5t-12.5 27t-11.5 28.5t-9.5 26q-55 155 -108.5 321.5t-110.5 352.5q-38 129 -74 259t-70 259q-11 45 -24 91 t-27 94z" />
<glyph unicode="W" horiz-adv-x="2120" d="M136 1501q-2 4 -2 8q0 9 11 14q5 2 9 2q10 0 15 -11q0 -1 11.5 -30t29.5 -76.5t40.5 -109.5t44.5 -129t41 -135.5t32 -128.5q18 -87 38.5 -176.5t39.5 -169.5t35 -145.5t26 -103.5q6 -24 18 -64.5t24.5 -85.5t25 -88.5t20.5 -73.5q20 38 34 77t25 81q5 18 10 37t12 39 l32 106q67 211 131.5 415.5t132.5 413.5q5 17 10 33l10 32q20 67 43.5 133.5t62.5 122.5q2 5 6 8t9 1q11 0 15 -11q2 -2 2 -5t2 -6q7 -13 18 -41t19 -76q17 -109 33.5 -201.5t29.5 -168.5q13 -72 22.5 -128.5t16.5 -101.5q8 -49 18.5 -109t20.5 -116q7 -36 12.5 -67t9.5 -52 q20 -123 42.5 -224t50.5 -192l6 17q64 152 130 300t132 298q63 136 117 273t106 273q35 88 70 176.5t71 178.5q5 11 15 11q4 0 9 -2q11 -6 11 -14q0 -4 -2 -8q-36 -88 -71.5 -177.5t-69.5 -177.5q-52 -136 -106.5 -274t-116.5 -274q-67 -150 -133 -297t-129 -299l-7 -17 q-5 -11 -9.5 -21.5t-9.5 -21.5q-2 -5 -6 -8t-9 -3q-15 0 -18 13q-7 34 -15.5 58t-18.5 52t-20.5 68t-20.5 106q-1 7 -5 28.5t-9.5 50.5t-11.5 62.5t-12 64.5t-10.5 55.5t-6.5 36.5q-10 57 -20.5 117t-18.5 109q-6 45 -15.5 101t-23.5 128q-13 77 -30 169t-35 201 q-5 33 -11 55t-12 36q-28 -51 -47.5 -107t-37.5 -111q-5 -18 -9.5 -34.5t-9.5 -32.5q-68 -210 -131.5 -413.5t-130.5 -416.5l-35 -106l-9.5 -38t-9.5 -35q-7 -24 -15.5 -49.5t-17.5 -50t-17 -46t-13 -36.5q3 -10 -0.5 -17.5t-8.5 -11.5q-7 -5 -12 -5.5t-12 -0.5q-8 0 -11 2 q-2 2 -3 4.5t-3 4.5q-1 3 -7.5 24.5t-16 54.5t-21 73t-22.5 79t-20.5 73t-14.5 55q-13 48 -30 116t-36 147t-38.5 165t-36.5 170q-12 59 -31.5 126.5t-41 134t-43.5 127.5t-39.5 108.5t-29 76t-12.5 29.5z" />
<glyph unicode="X" horiz-adv-x="1482" d="M80 -49q0 8 5 14q1 1 18.5 19.5t45.5 48.5t64.5 69t76 80.5t78.5 83.5t73 78.5t59 64t37 40.5q59 67 116.5 138.5t115.5 148.5q-10 13 -18.5 25.5t-19.5 25.5q-74 80 -142 156.5t-132.5 152.5t-127.5 152t-127 156q-2 3 -9.5 11t-17 18t-19.5 19.5t-18 17.5q-6 6 -6 14 t5 14q5 5 12 5t12 -5q1 -2 10.5 -11.5t20.5 -21t21.5 -22.5t14.5 -15q64 -81 126.5 -157.5t127 -152t132 -151.5t140.5 -155q10 -11 18.5 -22.5t19.5 -24.5q47 60 94.5 122t96.5 131q46 62 94 125.5t100 125.5t108.5 120.5t119.5 110.5q4 4 11 4h2q8 0 11 -7q4 -6 4 -13 q0 -9 -6 -14q-62 -51 -118 -108t-107 -117.5t-98.5 -123t-92.5 -123.5q-51 -70 -99.5 -134t-96.5 -128q63 -77 122.5 -156t114.5 -157q37 -52 74.5 -105.5t75.5 -105.5q55 -75 102 -126t95 -90q6 -5 6.5 -12t-1.5 -12q-9 -7 -15 -7q-7 0 -12 5q-49 40 -97 92.5t-105 125.5 q-40 54 -78 107t-74 107q-55 78 -111.5 154.5t-117.5 151.5q-60 -75 -117 -145t-114 -139q-11 -13 -36 -40t-58 -62.5t-71.5 -77t-77.5 -83t-75.5 -80t-65.5 -69.5t-47.5 -50.5t-21.5 -23.5q-4 -4 -12 -4q-5 0 -13 4q-5 5 -5 13z" />
<glyph unicode="Y" horiz-adv-x="1282" d="M35 1474q0 6 4 10q5 5 12 6t12 -4q48 -41 81.5 -93t63.5 -103q11 -19 21 -37l20 -36q14 -20 28.5 -41.5t30.5 -44.5q29 -45 58.5 -89t49.5 -85q34 -67 63.5 -112.5t60.5 -86.5l34 -46t35 -52l12 -19q18 -29 37.5 -56t39.5 -54l22 46t21 45q34 70 61.5 126t40.5 80 q13 25 33.5 66t45.5 86q18 34 36 68.5t34 65t27.5 54t17.5 35.5q8 14 20 43t25 61q12 29 25 59t25 57.5t23 50t20 36.5q4 5 11 7q2 1 5 1q4 0 8 -3q5 -4 7 -11q1 -3 1 -5q0 -5 -4 -10q-8 -12 -18.5 -33.5t-22.5 -48.5t-24 -56.5t-23 -57.5q-14 -34 -26.5 -61.5t-20.5 -43.5 q-6 -12 -17.5 -36t-27.5 -54t-34 -65t-36 -69q-25 -47 -45.5 -87t-33.5 -66q-6 -12 -17 -32.5t-24.5 -47.5t-29 -59t-31.5 -66q-33 -70 -61.5 -129.5t-50.5 -104t-36.5 -72.5t-19.5 -36q-8 -11 -22.5 -34.5t-32.5 -52.5t-37 -62t-35.5 -63t-28 -55t-13.5 -39q-3 -14 -17 -14 h-3q-7 2 -11.5 7.5t-2.5 13.5q3 17 16 45.5t31 62t38.5 68.5t39 65t32 50.5t17.5 26.5t14 25t24 47.5t31.5 64.5t36.5 75q-47 61 -89 127l-12 19q-18 27 -35 50.5t-32 45.5q-16 21 -32 43t-31.5 46t-31.5 52.5t-33 63.5q-20 39 -48.5 82.5t-57.5 87.5q-16 23 -31 45.5 t-28 42.5q-11 17 -21.5 35t-21.5 36q-29 51 -60 101t-76 88q-6 5 -6 14z" />
<glyph unicode="Z" horiz-adv-x="1405" d="M68 1464q-1 2 -1 5q-1 5 3 9q4 6 13 6q55 4 95 4q8 0 15 1q31 0 59 -2q34 -2 66.5 -5.5t67.5 -7.5q14 -1 27 -2t26 -3q62 -5 121 -6q33 1 66 3q90 4 177 12q78 8 152 12q33 2 67 2q42 0 86 -3q19 -1 40.5 -1t43.5 -2q82 -2 119.5 -5.5t47.5 -14.5q3 -3 5 -7t0 -9 q-3 -19 -28.5 -43.5t-55 -46.5t-53.5 -37.5t-25 -15.5q-60 -41 -131.5 -111t-151.5 -162q-60 -68 -116.5 -134t-112 -134.5t-111 -140.5t-113.5 -153l-9 -10q-42 -57 -84.5 -114t-87.5 -114q-41 -53 -80 -104t-75 -104l-8 -14q5 2 11 2h13q8 -3 10 0q23 2 59 0t77 -3 q38 -2 73.5 -3.5t56.5 -0.5q97 8 180 13q82 6 165 8q69 2 144 2h30q91 0 206 -4q39 -2 78 -5t76 -7q16 -2 32 -3.5t31 -3.5q8 0 12.5 -5t4.5 -13q-3 -17 -18 -17q-17 2 -33.5 3.5t-31.5 3.5q-38 4 -76.5 7t-76.5 4q-76 2 -141 3q-43 1 -84 1h-40q-59 0 -113 -2t-109 -4.5 t-112.5 -6.5t-122.5 -9h-27q-23 0 -50 0.5t-56 2.5q-38 3 -74 4t-56 0h-14q-3 -1 -10 -1h-14.5t-14.5 -1t-11 -2q-8 -5 -20 0q-6 4 -7.5 11.5t2.5 14.5l32 57q20 29 57.5 75t97.5 123q45 55 86.5 113t83.5 113l9 12q58 81 114 153t111.5 140.5t112.5 134.5t118 135 q31 37 69 78t78.5 80t81 73.5t77.5 59.5q6 4 20.5 15.5t32.5 26t35.5 29.5t29.5 26q-22 3 -58 4t-67 1q-23 2 -45 2t-41 2q-38 2 -75.5 2t-74.5 -2q-74 -4 -150 -10q-88 -8 -180 -14q-35 -2 -70 -2q-59 0 -121 6q-13 1 -25.5 2t-26.5 3q-35 4 -75 7.5t-80 5.5q-32 2 -61 2 h-15q-36 0 -64 -5q-8 -2 -13.5 2.5t-6.5 12.5z" />
<glyph unicode="[" horiz-adv-x="771" d="M192.5 1440q-0.5 42 10.5 77q3 12 17 12l18 -0.5t47 -1.5t66.5 -1.5t77.5 -0.5q73 0 115.5 -0.5t64 -1.5t28.5 -1.5t9 1.5q4 3 10 3q9 0 14 -7q10 -15 -4 -25q-4 -2 -10.5 -3t-29 -1h-68.5h-129q-32 0 -62 0.5t-56 1t-46.5 1.5t-32.5 1q-6 -29 -4.5 -64.5t3.5 -68.5 q2 -19 3 -36.5t1 -33.5q-1 -116 2 -214t7 -197q2 -51 3.5 -102.5t3.5 -106.5q2 -60 4 -117t4 -112q2 -50 3.5 -106.5t3 -114t2 -114.5t0.5 -107q0 -6 -1 -26.5t-2.5 -50t-3.5 -64.5t-4 -71q-3 -42 -6 -74.5t-5 -56.5q-2 -14 -2.5 -23.5t-2.5 -17.5q14 0 41 -0.5t74 -0.5 t117.5 -0.5t172.5 -1.5q3 0 5 -2q4 -4 4 -17q-1 -8 -2 -10.5t-3 -4.5t-4 -1l-428 3q-7 0 -12 4.5t-6 10.5q0 9 4 13q3 9 6.5 39.5t6.5 70.5t6 86t5 86t3.5 70.5t1.5 39.5q0 50 -0.5 106t-2 113.5t-3 113.5t-3.5 106q-2 56 -4 113t-4 117q-2 55 -3.5 106.5t-3.5 102.5 q-4 99 -7 197.5t-2 214.5q0 31 -3 67q-4 40 -4.5 82z" />
<glyph unicode="\" horiz-adv-x="1055" d="M164.5 1497q1.5 7 6.5 12q6 5 13 3.5t12 -6.5q6 -8 12.5 -19.5t13.5 -23.5q2 -4 4 -7l4 -6v-1q88 -159 149 -278.5t95 -200.5l296 -758q40 -94 69.5 -157.5t48.5 -95.5q5 -7 8 -12t5 -9q6 -11 10.5 -17.5t15.5 -20.5q5 -5 4 -12t-6 -12q-4 -4 -11 -4q-9 0 -13 6 q-14 15 -18.5 23t-12.5 20l-4.5 9t-7.5 12q-20 32 -49.5 96.5t-70.5 159.5v1l-296 758q-34 80 -94.5 198.5t-147.5 276.5q-2 4 -4 7t-4 7q-6 11 -12.5 21t-11.5 17q-5 6 -3.5 13z" />
<glyph unicode="]" horiz-adv-x="764" d="M190 -408q-10 15 4 25q4 2 13.5 6t36 8t75.5 7t132 3q31 0 61.5 -0.5t56.5 -1t46.5 -1.5t32.5 -1q6 29 4.5 64.5t-3.5 68.5q-2 19 -3 36.5t-1 33.5q1 116 -2 214t-7 197q-2 51 -3.5 102.5t-3.5 106.5q-2 60 -4 117t-4 112q-4 100 -7 195.5t-2 196.5q0 6 1 26.5t2.5 50 t3.5 64.5t4 71q3 42 6 74.5t5 56.5q2 14 2.5 23.5t2.5 17.5q-14 0 -41 0.5t-74 0.5t-117.5 0.5t-172.5 1.5q-3 0 -5 2t-3.5 5.5t-0.5 11.5q0 7 1.5 10t3.5 5t4 1l428 -3q7 0 12 -4.5t6 -10.5q0 -9 -4 -13q-3 -10 -6.5 -40t-6.5 -70t-6 -86t-5 -86t-3.5 -70.5t-1.5 -39.5 q-1 -100 2 -194.5t7 -194.5q2 -56 4 -113t4 -117q2 -55 3.5 -106.5t3.5 -102.5q4 -99 7 -197.5t2 -214.5q0 -31 3 -67q4 -40 4.5 -82t-10.5 -77q-3 -12 -17 -12l-18 0.5t-47 1.5t-66.5 1.5t-77.5 0.5q-74 0 -119 -2.5t-70.5 -5.5t-35.5 -6t-12 -4q-5 -3 -10 -3q-9 0 -14 7z " />
<glyph unicode="^" horiz-adv-x="1190" d="M187.5 1178.5q1.5 7.5 7.5 12.5q55 41 104 90.5t93 104t84.5 114t80.5 120.5q2 5 8 14t20 11q31 13 79 -45q45 -54 93.5 -105t96.5 -101q45 -46 90 -93t88 -96q4 -6 3.5 -14t-5.5 -13t-13 -4t-12 6q-43 49 -87.5 96.5t-90.5 92.5q-48 51 -96.5 102.5t-93.5 105.5 q-23 26 -33 31t-12 5q0 -2 -1 -5.5t-2 -3.5q-41 -63 -82.5 -124t-87 -117.5t-95.5 -107.5t-108 -94q-8 -4 -10 -4q-8 0 -15 9q-5 5 -3.5 12.5z" />
<glyph unicode="_" horiz-adv-x="1284" d="M-38 -233q23 0 69 -1t69 -1h447q71 0 213.5 1t213.5 1h351v-35l-336 1q-71 0 -212 -1t-212 -1q-101 0 -301.5 0.5t-301.5 0.5v35z" />
<glyph unicode="`" horiz-adv-x="1139" d="M178.5 1613.5q3.5 10.5 23.5 4.5q83 -40 171 -168q126 -166 140 -231q4 -18 -7 -22t-19 9q-5 9 -31 50l-100 149q-53 73 -112 132q-53 46 -64 59q-5 7 -1.5 17.5z" />
<glyph unicode="a" d="M105 282q-13 74 -13 145q0 84 18 164q34 147 130 262q27 34 71 68.5t95.5 62.5t105.5 46t101 18h5q50 0 95.5 -8.5t85.5 -21.5t74 -29.5t61 -31.5q12 -9 7 -25q-5 -7 -16 -7q-11 -61 -21 -117.5t-15 -123.5q-5 -93 -9 -186q-1 -26 -1 -52q0 -66 6 -130q9 -89 36 -173 t81 -160q3 -6 3 -11q0 -8 -8 -14q-4 -4 -10 -4q-9 0 -13 9q-26 36 -45 73t-34 76q-37 -24 -75 -47t-80 -40q-12 -5 -24 -10.5t-25 -12.5q-29 -14 -58 -26t-58 -17q-53 -11 -116 -11q-46 0 -93 8.5t-89 31.5q-41 22 -70 56.5t-49.5 74.5t-33 82.5t-19.5 80.5zM140 288 q6 -29 16.5 -67t28.5 -76t44 -71.5t64 -53.5q33 -18 69 -26t72 -10q12 0 25 -1q25 0 47 2q34 3 63 9q25 5 58.5 19t61.5 28q6 3 18.5 8t25.5 11t25 11t17 8q21 11 36.5 20.5t27.5 17.5l22.5 15t21.5 14h1q-20 64 -29 130t-11 134v45q0 45 2 91q3 68 7 136q5 74 15.5 134 t23.5 124q-26 14 -57 27.5t-66 24t-74.5 16.5t-81.5 6q-42 -1 -92 -18t-98.5 -43t-90 -58.5t-66.5 -63.5q-90 -109 -122 -249q-17 -74 -17 -153q0 -69 13 -141z" />
<glyph unicode="b" horiz-adv-x="1148" d="M146 734q2 150 4 299l1 147q0 1 0.5 26.5t1.5 65t3 86t5.5 89t7.5 74.5t10 43q3 6 11 8q3 1 6 1q4 0 7 -1q5 -4 7 -11t-1 -12q-3 -8 -7 -42.5t-7 -85.5t-6 -113.5t-4 -127.5l-2 -147q0 -65 -0.5 -130t-0.5 -131q35 40 74.5 74t80.5 66q83 62 159 92q73 29 139 29h5 q45 -2 89 -17.5t83 -40t71.5 -55t55.5 -61.5q52 -70 81.5 -152.5t33.5 -166.5q2 -37 2 -78.5t-6.5 -85t-21 -87t-39.5 -83.5q-36 -60 -84.5 -107t-104 -79.5t-116 -50t-121.5 -17.5q-44 0 -86 9q-38 8 -73.5 22t-69.5 27q-9 5 -18 8t-20 8q-23 9 -48.5 21.5t-52.5 29.5 q2 -23 3.5 -45.5t-0.5 -44.5q-2 -16 -18 -16h-1q-7 0 -12 5t-3 14q1 29 -1.5 60t-5.5 62q-3 26 -5 51.5t-2 51.5v109t-2 109q-2 101 -2 201v100zM182 433q1 -54 1 -109v-109q0 -23 2.5 -47.5t5.5 -47.5q25 -18 53 -33t66 -29q10 -5 19 -8.5t20 -6.5q34 -15 67.5 -27.5 t68.5 -19.5q39 -9 80 -9q25 -1 51 3q68 10 131 40t117.5 79t94.5 114q24 37 37 78t18.5 82t5.5 81q0 8 1 15q0 31 -2 59q-4 78 -32 155.5t-76 144.5q-21 28 -50.5 55.5t-65.5 50.5t-76 38t-81 17h-6q-122 0 -274 -114q-50 -38 -95.5 -77t-80.5 -89q-2 -72 -2 -143t2 -143z " />
<glyph unicode="c" horiz-adv-x="1052" d="M131 442q17 162 91 329q16 36 42.5 81t63.5 87t85.5 74.5t108.5 41.5q42 7 83 7q77 0 147 -26q106 -39 187 -135q5 -5 4 -12t-6 -12t-12 -4.5t-12 5.5q-75 89 -173 125q-65 24 -138 24q-36 0 -74 -6q-54 -9 -98 -38.5t-78 -68.5t-58.5 -81.5t-39.5 -75.5 q-74 -163 -89 -319q-2 -27 -3 -52q0 -48 9 -88q13 -64 39 -115.5t61.5 -91.5t74.5 -68t77 -44t69 -20q15 -2 32 -2q26 1 59 5q54 8 115 28.5t125 57t120 90.5q5 5 12 5t12 -6q5 -5 5 -11q0 -8 -6 -14q-51 -48 -108.5 -84t-116 -60t-114.5 -35.5t-102 -11.5q-19 0 -37 3 q-34 4 -76 21.5t-84 47.5t-81 73.5t-67.5 99.5t-42.5 125q-9 44 -9 93q0 28 3 58z" />
<glyph unicode="d" horiz-adv-x="1136" d="M112 431v22q0 61 12 123q14 74 45 145q20 46 43.5 90t54.5 81.5t71.5 67.5t93.5 47q54 18 111 21q12 1 24 1q45 1 88 -9q55 -12 105.5 -37t92.5 -63q23 -20 38 -44t29 -47q10 -11 18 -26q0 17 0.5 34t0.5 35q1 51 2 104.5t3 105t5 98t9 84.5t9.5 73.5t5.5 73.5 q3 40 6.5 83.5t12.5 94.5q0 5 5.5 9.5t13.5 4.5q14 -4 14 -17l-11 -96q-4 -42 -7 -82q-2 -38 -6 -73.5t-9 -75.5q-6 -37 -9 -83t-5 -97t-3 -103.5t-1 -103.5q-1 -54 -2.5 -103t-3.5 -89q-2 -44 -5 -83t-5 -74q-3 -45 -6 -87q-4 -40 -4 -84q0 -11 1 -22q1 -33 1 -69 q2 -47 6 -103q5 -51 14 -89.5t24 -71.5q6 -16 -9 -24q-1 0 -3 -1t-3 -1q-11 0 -16 12q-17 35 -26.5 77t-14.5 94q-2 12 -2 22t-1 21q-12 -24 -28 -45t-32 -38.5t-31.5 -31t-26.5 -22.5q-29 -24 -66 -44.5t-75 -34.5q-28 -10 -57 -14.5t-58 -4.5q-56 0 -108.5 16.5t-98.5 44 t-84 65t-65 79.5q-36 57 -55.5 124.5t-21.5 139.5zM146 433q2 -68 20.5 -131t52.5 -116q30 -48 77 -89.5t104 -67.5t121 -32q13 -1 27 -1q51 0 102 18q34 12 68 31t60 40q13 10 37.5 33.5t48.5 54.5q22 31 38 68q12 29 13 60q0 8 -1 16v2q0 53 3 103t7 104q4 36 6 74t4 82 q2 16 2 33v35v-10t-1.5 2t-2.5 7.5t-2 5.5q-21 27 -37 57q-14 22 -29 44t-35 39q-38 35 -84 58q-47 23 -97 33q-41 8 -83 9q-10 -1 -20 -1q-53 -2 -104 -18q-48 -16 -84.5 -44t-65 -63.5t-50.5 -76.5t-41 -84q-30 -67 -43 -137q-11 -59 -11 -116v-22z" />
<glyph unicode="e" horiz-adv-x="1113" d="M90 458q2 69 16.5 139t41.5 136.5t64 121.5q37 54 92.5 92.5t117.5 60.5q61 20 124 26q22 2 43 2q38 0 73 -6q37 -8 78 -22t80 -36.5t72.5 -56t55.5 -80.5q17 -35 17.5 -49.5t-1.5 -18.5q-4 -12 -23.5 -31t-48 -41.5t-63 -45.5t-68.5 -43q-66 -38 -136 -75.5t-145 -70.5 q-22 -9 -46.5 -18.5t-50.5 -19.5q-65 -24 -130 -52t-110 -62q21 -69 65 -128t102 -101.5t127 -67t140 -24.5h22t22 2q63 7 119.5 23t93.5 37q31 18 60 38t53.5 44.5t42 54t25.5 66.5q2 8 8 11.5t13 1.5q8 -1 12 -7q2 -4 2 -8q0 -2 -1 -4q-9 -42 -28.5 -76t-46.5 -61t-59 -49 t-64 -40q-30 -18 -64 -30t-66 -19.5t-58 -11t-38 -4.5q-12 -2 -23.5 -2.5t-22.5 -0.5q-81 0 -159 29t-142.5 79.5t-110.5 119.5t-64 149q-13 54 -13 116v13zM125 466q0 -9 -1 -19q0 -54 11 -103q47 34 110.5 60.5t125.5 49.5q26 10 50.5 19t44.5 19q74 32 143.5 69.5 t134.5 74.5q42 24 75.5 47.5t58 42.5t38.5 33t16 19q0 2 -3 13t-12 29q-20 42 -50.5 72t-66.5 50.5t-74 33t-72 19.5q-35 8 -69 8q-46 0 -95 -10.5t-94.5 -31.5t-86 -52.5t-69.5 -73.5q-35 -51 -60 -113t-39 -127t-16 -129z" />
<glyph unicode="f" horiz-adv-x="1020" d="M83 895q0 6 4 10q5 5 12 7q48 5 94 8t79 4q17 2 28 2t16 1q14 1 31 2q14 1 32.5 2t39.5 3q-1 21 -1 42.5v41.5v76q-1 40 -1 81q0 30 1 61q1 72 15 141q33 158 222 206q42 10 84 10q23 0 45 -3q64 -8 142 -41q8 -2 10 -9q1 -4 1 -7t-1 -5q-2 -8 -9 -10.5t-15 0.5 q-73 31 -132 38q-20 3 -40 3q-39 0 -77 -10q-168 -42 -195 -178q-14 -67 -16 -137.5t-2 -139.5q1 -20 1 -39v-37v-83q20 2 37 2.5t31 2.5q14 0 28.5 1t28.5 3q78 5 158 6h8q76 0 154 -19q17 -7 13 -21q-1 -6 -7 -10t-13 -2q-76 18 -148 18h-8q-76 -1 -154 -7q-30 -3 -59 -3 q-14 -2 -31.5 -2.5t-37.5 -1.5q2 -42 3 -83t3 -86q3 -152 5 -302v-29q0 -134 -13 -256l-2 -11q-3 -39 -12.5 -108.5t-32.5 -166.5q-5 -14 -17 -14q-3 0 -4 1q-8 2 -11 7.5t-2 12.5q23 97 32 165t13 106l2 12q12 124 12 261v21q-1 149 -5 301q-2 45 -2.5 84.5t-0.5 81.5 q-20 -2 -38 -2.5t-32 -1.5q-17 -1 -30 -2q-10 0 -46 -3q-32 -2 -77.5 -4.5t-93.5 -7.5h-2q-17 0 -17 17z" />
<glyph unicode="g" horiz-adv-x="1087" d="M73 -443q0 5 2 10q5 6 12 8t13 -3q49 -32 99.5 -55.5t98.5 -35.5q42 -11 85 -11q4 -1 9 -1q38 0 75 5q41 4 78.5 12.5t67.5 17.5q78 23 135 71t86 115q26 63 36.5 133t15.5 139l3 17q4 49 7 93t5 86.5t3.5 85.5t2.5 90l1 51q0 11 2 29.5t5 42.5q-22 -59 -51.5 -115 t-71.5 -119q-72 -105 -157 -155.5t-189 -50.5q-32 0 -65.5 4.5t-69.5 15.5q-55 15 -94.5 44t-66 65.5t-42 78t-23.5 81.5t-10 76t-1 62q3 161 63.5 282.5t171.5 192.5q48 31 106 53.5t118.5 35t120.5 13.5h9q54 0 100 -10q58 -12 109 -48t84 -92q0 6 0.5 2t-0.5 -2 q-2 7 0.5 13.5t9.5 8.5q8 2 14.5 0t8.5 -9q5 -13 5 -41.5t-5 -73.5q-9 -89 -27 -222q-7 -54 -12.5 -98.5t-6.5 -65.5l-2 -49q-1 -48 -2.5 -91t-3.5 -86t-5 -87.5t-7 -93.5l-3 -19q-7 -70 -17 -141t-38 -138q-30 -75 -93.5 -128.5t-148.5 -77.5q-45 -14 -103.5 -26 t-121.5 -12q-26 0 -53.5 3.5t-53.5 9.5q-51 13 -104 37.5t-106 58.5q-8 5 -8 14zM109 443v-25q0 -142 51 -228q57 -95 161 -121q54 -13 108 -13h14q61 2 117.5 22t108 61t94.5 104q45 66 76 125t53 123t36 136.5t24 165.5q-11 32 -31.5 62.5t-47 55.5t-57 42.5t-60.5 23.5 q-21 6 -45.5 8.5t-49.5 2.5q-42 0 -86 -7t-87.5 -19.5t-84.5 -31t-76 -40.5q-69 -44 -111.5 -103t-66 -121t-31.5 -120.5t-9 -102.5z" />
<glyph unicode="h" horiz-adv-x="1088" d="M142 3q7 22 12 48t7.5 54t4 56.5t3.5 54.5v18q8 140 9 277.5t1 271.5q-1 70 -1 141v47q0 47 1 94q2 25 2 48.5t1 48.5q2 69 2 138v69q-2 104 -25 203q-1 8 3.5 13.5t9.5 6.5q3 1 6 1q4 0 8 -3q6 -4 8 -11q22 -101 24 -207v-71q0 -70 -2 -139q0 -25 -1 -49t-1 -48 q-1 -47 -1 -94q1 -24 1 -47v-141v-88.5t-1 -89.5q5 8 10.5 15.5t12.5 15.5q29 42 62.5 88t71 89.5t80.5 82t91 65.5q47 27 101 40q35 8 73 8q20 0 42 -2q61 -8 95.5 -41t52 -77.5t22.5 -94t8 -88.5q1 -8 1 -16t2 -16q2 -34 2.5 -67t0.5 -65v-41q1 -64 7.5 -125.5t17 -124 t24.5 -127t30 -134.5q1 -3 1 -5q0 -5 -3 -9q-4 -6 -11 -8h-4q-13 0 -16 13q-17 71 -31 136.5t-24.5 129t-17 126t-7.5 127.5v42q0 31 -0.5 63.5t-3.5 64.5q-1 8 -1 16.5v16.5q-3 40 -8 85t-20 83.5t-43.5 66.5t-78.5 34q-20 2 -40 2q-60 0 -113 -22q-70 -30 -129.5 -83.5 t-110.5 -121t-96 -131.5q-13 -17 -24.5 -34t-22.5 -31q0 -2 -1 -2t-2 -1q0 -79 -2 -157.5t-7 -157.5v-18q-4 -54 -9 -114t-20 -110q-5 -11 -17 -11h-5q-5 2 -9 8q-2 4 -3 9q0 3 1 6z" />
<glyph unicode="i" horiz-adv-x="482" d="M221 2q1 68 3 132t2 126v62v62q0 62 -2 127v40q0 49 2 96q2 66 5 130q2 53 3.5 107.5t1.5 111.5q0 7 5 12t12 5q8 0 12.5 -5t4.5 -12q0 -57 -1.5 -112t-3.5 -108q-3 -64 -5 -130q-1 -39 0 -79v-54v-127.5v-125t-1.5 -126.5t-2.5 -132q0 -7 -5 -12t-12 -5q-8 0 -13 5 t-5 12zM260 1389q0 11 7.5 19t18.5 8t19 -8t8 -19q0 -12 -8 -19.5t-19 -7.5t-18.5 7.5t-7.5 19.5z" />
<glyph unicode="j" horiz-adv-x="766" d="M3 -190q-1 2 -1 5t2 7q3 6 9 8q8 4 14.5 0t6.5 -10q5 -11 8.5 -20t6.5 -20q17 -52 38 -109.5t51.5 -106.5t73.5 -82.5t104 -36.5h9q32 0 63 11q35 14 66 41q18 16 33 38t26 46.5t17.5 50.5t6.5 52q3 63 3 126q0 106 -8 214q-14 170 -33 352q-17 152 -30 307t-13 312 q0 8 5.5 13t11.5 5q8 0 13.5 -5t5.5 -13q0 -155 13.5 -309.5t28.5 -306.5q18 -174 32 -351q8 -117 8 -230q0 -58 -2 -116q-2 -59 -28 -115.5t-69 -96.5q-66 -60 -151 -60h-13q-45 2 -81.5 19t-65 45t-51.5 63.5t-40.5 75t-32 80t-26.5 77.5q-2 11 -5 20t-6 20zM396 1379 q0 17 12 27.5t26 10.5q17 0 28 -10.5t11 -27.5q0 -15 -11 -27t-28 -12q-14 0 -26 12t-12 27z" />
<glyph unicode="k" horiz-adv-x="1062" d="M178 -11q19 106 27 190.5t16 164.5q9 106 9 208q0 34 1 70q0 70 -1 142q-2 51 -2.5 101.5t-0.5 101.5q0 44 -1.5 85.5t-4 84t-6.5 89t-10 101.5q-4 57 -9.5 123t-11.5 148q-2 8 3.5 14t12.5 6h1q6 0 11.5 -4.5t5.5 -12.5q6 -82 13 -147.5t12 -122.5q4 -55 7.5 -102 t6 -90.5t4 -86t1.5 -87.5q-1 -29 0 -57q0 -71 3 -141q0 -71 -0.5 -141t-3.5 -141q35 28 70.5 54.5t70.5 50.5q50 34 98 68.5t91 79.5q75 78 160.5 158.5t185.5 167.5q5 5 12 4.5t12 -6.5q5 -5 4.5 -12.5t-7.5 -10.5q-99 -88 -183 -167t-159 -157q-10 -11 -20 -19.5 t-20 -18.5q32 -46 67 -94t73 -98q53 -73 105.5 -144.5t95.5 -136t72 -117.5q37 -68 37 -91q0 -4 -2 -9q-3 -6 -11 -8q-1 -1 -4 -1q-6 0 -10.5 4.5t-5.5 9.5q-8 32 -37 83t-71 113.5t-93 133t-102 141.5q-37 48 -73 97t-67 94q-32 -26 -63.5 -48.5t-63.5 -44.5 q-42 -29 -84 -59t-80 -65q0 -23 -0.5 -47.5t-2.5 -48.5q-6 -80 -14.5 -166t-28.5 -192q-5 -15 -18 -15h-1q-17 2 -17 15q0 3 1 6z" />
<glyph unicode="l" horiz-adv-x="398" d="M175 -23q0 78 1 156t3.5 161t6.5 173.5t10 192.5q5 87 8.5 179.5t5.5 192.5t2 210q0 36 1 75q0 76 -1 157v115q2 5 5.5 9.5t12.5 4.5q18 0 18 -16v-16.5v-29v-34.5v-33q0 -122 -1 -231.5t-3 -210t-5.5 -193t-8.5 -180.5q-5 -102 -8.5 -192.5t-5.5 -173.5t-3.5 -161 t-1.5 -155q0 -8 -5 -13.5t-13 -5.5q-18 0 -18 19z" />
<glyph unicode="m" horiz-adv-x="1532" d="M124 222q0 18 -1 35q1 41 3 83q4 60 8 119q5 69 9 138q2 34 2 68t-2 67v2q-5 86 -5 152q0 42 2 76q5 88 25 135q3 7 9 9q3 1 7 1t8 -2q6 -3 8 -9.5t0 -12.5q-17 -41 -23 -115q-3 -39 -2 -89q0 -46 2 -100q50 57 111 107t133 89l5 4q26 15 62 33.5t75 31.5q40 12 78 12 q1 0 1 1q37 0 68 -21q17 -12 30.5 -31t24 -42t17.5 -49.5t11 -53.5q36 37 83 78t101 68.5t114 33.5q9 1 18 1q50 0 103 -27q31 -17 51 -36t32 -40.5t19.5 -46.5t15.5 -55q20 -69 28 -139t13 -139q1 -25 3.5 -48.5t5.5 -48.5q5 -48 12 -96.5t15 -95.5q8 -45 14.5 -88.5 t11.5 -87.5l4 -26q5 -32 7.5 -62t6.5 -62q1 -3 1 -5q0 -5 -3 -8q-4 -5 -10 -7h-4q-6 0 -10 4.5t-6 9.5q-5 32 -9 63.5t-8 63.5l-2 25q-11 86 -26 174q-8 48 -15.5 97t-12.5 97q-3 25 -4.5 50t-3.5 49q-6 68 -14 136.5t-25 134.5q-8 30 -15 53t-17.5 41.5t-27 33t-44.5 28.5 q-43 23 -87 23q-13 0 -27 -2q-58 -10 -110 -40.5t-97 -72t-78 -75.5q8 -161 25.5 -344t42.5 -388q5 -32 4 -60t-4 -55q-2 -15 -3 -31t-1 -34q0 -7 -5 -11.5t-11 -4.5h-2q-17 3 -17 18q0 18 1.5 33.5t4.5 31.5q1 27 2.5 53t-2.5 56q-26 208 -43.5 393t-26.5 349v1 q-2 31 -7.5 60.5t-15 54t-22 43t-26.5 27.5q-24 16 -57.5 14t-68.5 -14t-67 -29t-54 -30l-6 -2q-78 -43 -142 -98.5t-115 -118.5q2 -34 1.5 -68t-1.5 -68q-3 -69 -8 -137q-5 -59 -9 -117q-2 -41 -2 -81v-35q2 -58 10 -114.5t27 -111.5q2 -7 -1 -13.5t-11 -9.5h-6 q-10 0 -16 12q-19 58 -27 116.5t-10 118.5z" />
<glyph unicode="n" horiz-adv-x="1005" d="M126 126q0 12 -1 24q0 70 3 133q2 24 4 49.5t4 50.5q0 2 -0.5 3t0.5 3q0 1 0.5 1.5t0.5 1.5q2 16 3 32.5t3 33.5q7 62 13 126q4 48 4 94v30l-2 40t-3 40q-2 26 -3 51.5t-1 51.5q0 51 -4 94t-7 61q-2 7 2.5 12.5t11.5 7.5q17 0 19 -15q3 -19 7 -63.5t4 -96.5 q0 -25 1.5 -50.5t3.5 -50.5q1 -20 2 -41t1 -41q1 -17 0 -35q0 -31 -2 -61q-4 -48 -8 -99q11 26 21 49.5t19 40.5l21 41q38 72 74 134.5t85 123.5q20 26 58 54.5t83 51.5t93 36q34 9 64 10q11 0 22 -2q42 -6 70 -34t46.5 -70.5t28 -95t14 -107t5 -106.5t0.5 -94v-40 q1 -30 5 -71.5t9 -89.5q5 -32 8 -63.5t5 -60.5l3 -29q3 -45 9 -102.5t22 -111.5q3 -15 -13 -22h-4q-13 0 -17 13q-16 57 -22 116.5t-9 104.5l-2 29q-2 29 -5.5 60t-6.5 63q-6 48 -10.5 90.5t-4.5 73.5v40q0 37 -0.5 85t-4.5 99t-12 100.5t-23 90t-38.5 66.5t-57.5 31 q-9 2 -20 2q-23 0 -51 -8q-42 -11 -83.5 -31.5t-78 -46.5t-56.5 -52q-47 -59 -82 -120.5t-72 -131.5l-22 -42q-10 -18 -21 -43t-21.5 -52t-20.5 -55t-18 -53q-2 -26 -4.5 -52t-3.5 -51q-4 -60 -5 -127q0 -13 1 -27q1 -82 14 -160q1 -7 -2.5 -12.5t-10.5 -7.5h-4 q-13 0 -16 15q-14 81 -14 164z" />
<glyph unicode="o" horiz-adv-x="1017" d="M78 474q1 67 16.5 142.5t48.5 146.5t84 131.5t125 96.5q32 16 70 25q38 8 80 9h12q36 1 72 -5q42 -6 83 -22q46 -17 84 -54.5t65.5 -85.5t45.5 -103t26 -106q12 -81 12 -156q0 -63 -8 -122q-20 -128 -82 -233q-55 -94 -140 -144.5t-188 -50.5q-47 0 -92 11t-84 32 q-52 29 -89 67.5t-63 81.5t-41.5 89t-24 90.5t-10.5 85.5q-2 29 -2 54v20zM112 472v-13q0 -41 5 -95q6 -62 28 -126t65 -123t115 -99q34 -20 75 -29.5t84 -9.5q93 0 171 46t129 133q85 145 85 341q0 71 -11 148q-8 49 -25 100t-42.5 95.5t-59 78.5t-72.5 48q-35 13 -73 19 t-74 6q-41 0 -77.5 -7.5t-68.5 -23.5q-68 -34 -116 -90.5t-78 -124t-44.5 -139t-15.5 -135.5z" />
<glyph unicode="p" horiz-adv-x="1035" d="M130 933q0 39 3 79t11 83q3 15 15 15h5q6 -2 11 -8t4 -13q-14 -68 -15 -129v-24q0 -49 3 -99q46 33 90.5 61t92 50.5t99.5 39t114 27.5q24 4 46 4q26 0 49 -5q45 -11 83.5 -36t70 -60t56 -74t42 -79t27.5 -74q20 -69 23 -147v-24q0 -66 -12 -131q-13 -77 -43 -148.5 t-74 -127.5q-56 -68 -127.5 -104.5t-152.5 -36.5q-7 0 -12.5 0.5t-12.5 0.5q-42 3 -84.5 12t-80.5 19q-22 7 -42.5 18t-41.5 22q-19 9 -40.5 20t-44.5 21q3 -88 4 -177v-36q0 -72 -2 -144q-2 -21 -2 -43.5v-45.5q0 -48 -1 -99.5t-8 -105.5q-2 -6 -6.5 -11t-11.5 -5l-1 2 q-7 0 -12 6t-3 14q7 51 8 101t1 98v45.5t2 45.5q2 65 2 130q0 58 -2 116q-3 126 -7 250q-3 94 -6 191t-3 192q1 17 1 33q0 29 -3 55q-3 41 -5 82q-3 39 -5 77t-2 77zM171 782v15v-15q5 -42 7 -84.5t2 -90.5v-53q0 -67 2 -136q2 -97 5 -192q1 -26 2 -53t1 -53q1 0 -0.5 7.5 t0.5 6.5q39 -21 61 -35.5t42 -26.5q21 -11 40 -20t37 -14q43 -11 82 -19.5t75 -11.5q11 -1 22 -1q38 0 71 8q42 11 76.5 30t60.5 43t46 49q42 51 70.5 118.5t42.5 140.5q11 64 11 128v19q-2 74 -22 140q-10 31 -26.5 68t-39 73t-51 68.5t-62.5 55t-74 32.5q-21 6 -45 6 q-19 0 -39 -4q-124 -21 -220.5 -69.5t-176.5 -129.5z" />
<glyph unicode="q" horiz-adv-x="990" d="M53 426q-1 16 -1 32q0 55 8 109q11 69 28 126q23 74 65.5 137.5t99 112.5t125 80t142.5 40q14 1 35 1h23q38 -1 82.5 -6.5t90.5 -15.5t83 -25q3 0 5 -3q-2 0 -2 1v2q-5 5 -3 12.5t8 12.5t13 4.5t11 -7.5q9 -12 13 -39t5 -65v-22q0 -29 -2 -61q-2 -45 -5.5 -92t-8.5 -93 t-10 -85q-6 -104 -16.5 -205t-21.5 -203q-20 -176 -35.5 -354.5t-15.5 -359.5q0 -19 -16 -19q-19 0 -19 19q0 184 16 363t36 356q2 16 2.5 32.5t2.5 32.5q-18 -49 -48 -91t-79 -77q-45 -30 -99.5 -46t-111.5 -16q-47 0 -93 9.5t-87.5 27.5t-76.5 45t-60 62q-42 58 -61 127.5 t-22 140.5zM90 422q3 -67 20.5 -130t53.5 -113q36 -51 96 -82.5t128 -42.5q31 -4 62 -4l74 6q68 13 121 51q44 31 72 70.5t45.5 85.5t27 96.5t17.5 103.5q4 24 8 54t8 65q8 100 11 200v67q0 66 -3 133q0 3 1 3h2h-14q-30 13 -71 22t-83 14.5t-80 6.5q-24 1 -41 1h-22 q-68 -9 -131.5 -38t-116 -75t-92 -105t-60.5 -128q-18 -59 -27 -126q-7 -49 -7 -98q0 -18 1 -37z" />
<glyph unicode="r" horiz-adv-x="922" d="M132 730q0 46 4 92q2 26 3 47t1 42.5t-1 45.5t-3 57q-2 8 3 12.5t12 6.5q2 0 4 1q5 0 9 -5q5 -6 6 -13q2 -33 3 -58t1 -47t-1 -44t-3 -49q-4 -43 -4 -86.5t3 -87.5q12 20 26.5 42t29.5 42.5t29 38t25 28.5q24 26 58 55t73 54.5t82 46t87 29.5l28 6q39 8 81 14q19 3 38 4 q24 0 48 -5q27 -6 42 -23t22 -39t8 -46t1 -43v-19q0 -7 -5 -12t-12 -5q-8 -1 -12.5 4.5t-4.5 12.5v19q0 21 -1.5 41t-6 36t-14 26.5t-25.5 13.5q-20 4 -41 4l-35 -3q-38 -6 -77 -14l-26 -6q-39 -8 -78.5 -26t-76.5 -42t-70 -51.5t-58 -54.5q-14 -14 -33 -39.5t-38 -53 t-35.5 -54t-25.5 -43.5q0 -2 -3 -2q0 -11 0.5 -21.5t-0.5 -21.5q0 -86 0.5 -171t2.5 -168q0 -63 0.5 -125t0.5 -124q0 -7 -5 -12t-12 -5t-12 5t-5 12q0 62 -1 123.5t-1 123.5l-2 170t-1 171q2 26 1 50.5t-1 50.5q-2 46 -2 92z" />
<glyph unicode="s" horiz-adv-x="1009" d="M52 190q0 7 5 12q14 12 24 0q12 -11 22.5 -23t22.5 -25q25 -27 53.5 -54.5t67 -51t91 -40t126.5 -21.5q15 -1 33 -1q29 0 63 3q55 5 109 23t98.5 53t65.5 92q12 36 12 70q0 11 -1 21q-5 44 -24 84t-48 73.5t-62 57.5q-31 23 -56.5 37t-48 22.5t-43.5 13t-43 8.5l-19 4 q-22 4 -62 15t-83.5 25t-82 30t-57.5 31q-18 15 -28 39t-13.5 50t-1 51.5t9.5 43.5q21 54 65.5 97.5t107.5 73.5q13 6 51.5 17.5t89.5 25.5t107.5 29t105 27.5t81.5 21t37 9.5q2 1 5 1q4 0 6 -1q6 -2 8 -6q9 -13 17 -35t14.5 -46t11 -47t7.5 -37q1 -3 1 -8q1 -1 1 -5 q0 -16 -15 -19q-12 -1 -15.5 7t-5.5 18q-18 104 -38 142q-31 -8 -74 -19.5t-90.5 -24l-95 -25t-87.5 -24t-69 -20t-39 -12.5q-57 -27 -97.5 -66t-58.5 -87q-6 -16 -7 -37t2 -41.5t10 -38.5t19 -28q16 -12 51.5 -26.5t76.5 -28t80 -24t62 -14.5l17 -4q24 -5 46.5 -10t47 -14 t51.5 -24t60 -40q37 -27 70 -64.5t54 -81.5t25 -94q1 -10 1 -20q0 -41 -15 -85q-21 -57 -63.5 -95t-94.5 -60t-107.5 -31t-102.5 -9q-8 0 -17 0.5t-18 0.5q-79 6 -136 24t-98 43.5t-71 55.5t-55 58q-11 12 -21.5 23.5t-21.5 22.5q-6 5 -6 12z" />
<glyph unicode="t" horiz-adv-x="808" d="M72 994q6 4 13 2q23 -3 45.5 -6.5t46.5 -6.5q51 -9 100 -15t100 -6q-1 36 -3 74.5t-5 77.5q-3 66 -6 132.5t-3 127.5q0 7 5 12t12 5q8 0 12.5 -5t4.5 -12q0 -61 3.5 -126.5t7.5 -131.5q5 -80 6 -152q26 2 51.5 4.5t49.5 6.5q49 7 98 11q14 1 29 1q37 0 77 -7q7 0 11 -6 q3 -4 3 -11v-3q-3 -16 -21 -14q-38 7 -72 7q-15 0 -27 -1q-46 -4 -93 -11q-52 -10 -104 -11q1 -19 3 -49.5t3 -67.5l8 -141q5 -70 5 -138v-14q0 -74 -2 -147v-86q0 -14 -1 -29q0 -29 1 -59v-29.5t1 -29.5q2 -45 2 -91t-6 -99q-1 -6 -6 -10t-11 -4h-2q-17 2 -15 18q5 51 5 96 t-1 89q-1 14 -1 29.5v30.5q-2 44 -2 87.5t2 87.5v146.5t-3 150.5l-8 140q-2 36 -3.5 66t-2.5 49h-6q-53 0 -103 7t-100 15q-21 3 -44 7t-46 7q-8 0 -12 6q-3 4 -3 10q0 11 7 16z" />
<glyph unicode="u" horiz-adv-x="994" d="M116 612q2 78 10 173q1 21 1.5 38.5t2.5 34.5q0 19 1 38.5t3 42t5.5 50t9.5 63.5q1 8 7 12q4 3 9 4q2 0 4 -1q7 -1 11.5 -7t2.5 -13q-5 -35 -8 -62t-5 -49.5t-3 -41.5l-2 -38q-1 -17 -1.5 -35t-2.5 -39q-7 -93 -9 -170q-1 -33 0 -65q0 -43 1 -83q3 -84 11.5 -153.5 t20.5 -131.5q3 -13 8.5 -29t12 -31.5t15 -28t17.5 -16.5q2 -1 12 -5t21 -8.5t20.5 -9t11.5 -5.5q19 -11 50.5 -17t79.5 -14q58 -8 108 -8q16 1 31 1q62 4 115 16q19 4 43 13t48 21t45 26t34 29q-3 50 -5 103t-2 116q-1 38 -1 76v77q1 40 1 80v40q0 60 -3 122q-1 24 -1 47 q0 29 2 58q2 51 5 110q1 22 1.5 47t2.5 52q2 17 18 17q8 0 13 -5.5t5 -14.5q-1 -26 -2.5 -50.5t-2.5 -47.5q-4 -58 -6 -108q-1 -23 -1 -47q0 -28 2 -57q2 -61 2 -122v-121v-152q2 -66 3.5 -120t4.5 -105q2 -16 3 -31t3 -30q3 -32 5.5 -64t2.5 -65q0 -7 -5 -12t-13 -5 t-13 4.5t-5 11.5q-1 32 -3.5 64t-4.5 64q-1 6 -1 12t-1 11q-18 -14 -39.5 -26.5t-44 -23t-44 -18t-38.5 -11.5q-68 -15 -148 -15q-54 0 -118 6q-26 3 -54.5 9.5t-55.5 14t-49 16t-34 14.5l-6 4l-6 4q-11 5 -20.5 11t-18 16t-15 26t-12.5 41q-6 30 -12.5 69t-12 82t-10 88 t-5.5 87q-2 48 -2 99v51z" />
<glyph unicode="v" horiz-adv-x="956" d="M48 1021q-1 2 -1 5q0 4 3 8q4 6 10 8q4 1 8 1q12 0 15 -13q5 -20 14.5 -52.5t21.5 -71t26 -78.5t29 -75l36 -85q24 -60 49 -118.5t49 -118.5q18 -47 36.5 -93t35.5 -93l13 -34q14 -36 34 -87t40 -97q10 22 20 45t20 45l20 45q61 137 127.5 289.5t124.5 310.5 q9 25 19.5 49t19.5 47q18 41 35.5 83.5t25.5 85.5q2 7 8 11t14 2q7 -2 11 -8q2 -4 3 -8q0 -2 -1 -5q-10 -45 -27 -88.5t-36 -86.5q-11 -23 -20.5 -46t-18.5 -46q-59 -161 -125.5 -314t-128.5 -292l-19 -42q-14 -30 -26.5 -59.5t-26.5 -59.5h-1q3 -6 1 -12.5t-7 -9.5 q-6 -2 -9 -2q-11 0 -15 9q-13 24 -26.5 54t-25.5 60.5t-23 60.5t-19 55l-12 33q-18 47 -36.5 92.5t-36.5 92.5q-24 60 -48.5 118t-50.5 118l-34 86q-15 35 -29.5 76t-27 80t-22.5 72t-16 53z" />
<glyph unicode="w" horiz-adv-x="1361" d="M98 1008q0 7 4 12t12 5q2 1 4 1q6 0 10 -4q4 -6 5 -13q5 -57 15.5 -114t21.5 -111q5 -25 9.5 -50t9.5 -48q7 -39 13 -78t13 -77q9 -52 17.5 -102.5t17.5 -102.5q11 -56 20 -101t20 -86q1 -9 7 -27.5t13 -41t14 -45.5t12 -39q7 7 14.5 16t12.5 16q13 21 24 50.5t28 78.5 l19 55q11 30 20.5 59.5t17.5 58.5q8 32 17.5 64t22.5 64q23 67 40 121t30 100q10 32 19 60t17 54l59 216q3 13 17 13h2q13 0 15 -15q0 -3 4.5 -28t10.5 -61.5t13.5 -79t13.5 -79.5t10.5 -63.5t5.5 -31.5q5 -50 15.5 -99.5t21.5 -98.5q5 -20 9 -41t8 -41q13 -57 24.5 -113.5 t24.5 -113.5q4 -16 13 -41t18.5 -51t18 -48.5t13.5 -33.5q18 9 40 53t44 105.5t42.5 130.5t34.5 128q0 1 9 31t21.5 74.5t26.5 96.5t25 97q6 31 13.5 60t14.5 58q14 48 25.5 97t22.5 107q2 7 8 11q5 3 10 3h3q7 -1 11 -7q3 -4 3 -10q1 -18 -23 -112q-12 -50 -26 -98 q-8 -29 -14.5 -57t-14.5 -60q-11 -46 -24.5 -98t-26 -97t-21.5 -75t-10 -31q-4 -16 -13.5 -53t-23.5 -83.5t-31 -97t-36 -94t-39 -74.5t-39 -38q-8 -3 -15 -3q-11 0 -20 8l-3.5 3.5t-2.5 3.5t-9.5 24t-19.5 51.5t-22 60.5t-15 51q-14 58 -26 113.5t-23 114.5q-5 21 -9 41 t-9 40q-12 51 -22.5 101t-16.5 100q0 5 -4.5 32l-11 66l-14 84t-14.5 85l-39 -143q-9 -26 -17.5 -54t-17.5 -59q-13 -45 -30.5 -100.5t-41.5 -121.5q-23 -67 -38 -127q-11 -30 -19.5 -60t-19.5 -61l-19 -54q-18 -51 -29.5 -82t-27.5 -54q-6 -10 -14.5 -20.5t-16.5 -18.5 l-13.5 -13.5l-6.5 -6.5q-4 -4 -11 -4q-1 0 -2 0.5t-2 0.5q-8 3 -14 11q0 2 -7.5 26t-17 54.5t-18.5 59.5t-12 41q-11 42 -20.5 87t-20.5 104q-8 51 -16.5 101.5t-17.5 101.5q-6 40 -13 78.5t-15 77.5q-3 24 -7.5 48t-9.5 48q-12 57 -22.5 115t-15.5 117z" />
<glyph unicode="x" horiz-adv-x="1209" d="M69 21q0 7 4 12q73 84 151 162t157 153q51 48 102 98t102 101l-1 1q-32 41 -61 81t-61 82q-66 89 -133 177t-143 167q-5 6 -5 13t5 12q5 8 12.5 8t12.5 -8q77 -81 145 -169t134 -177q29 -41 59 -81t62 -81q44 45 88 89t89 86q87 83 172.5 169t163.5 183q4 6 10 6t13 -5 q6 -6 6 -14q0 -6 -4 -12q-78 -97 -164.5 -183.5t-174.5 -169.5q-45 -44 -89.5 -87.5t-88.5 -90.5q22 -28 44 -57.5t44 -58.5q81 -112 167.5 -220t190.5 -198q5 -6 5.5 -14t-4.5 -14q-4 -5 -14 -5q-6 0 -11 4q-104 92 -191.5 202t-168.5 221l-44 58l-44 58 q-50 -51 -100.5 -101t-99.5 -98q-80 -75 -158 -151.5t-150 -159.5q-3 -5 -12 -5q-2 0 -6 1t-6 4q-5 5 -5 12z" />
<glyph unicode="y" horiz-adv-x="1039" d="M13 1021q6 5 13 3t12 -8q38 -59 69 -116t61 -114q17 -35 34.5 -68.5t37.5 -65.5q34 -60 63.5 -114t55.5 -100q25 -48 45 -84t33 -56q33 -56 61.5 -111.5t45.5 -94.5q16 33 32 68t36 72q13 28 25 56.5t24 56.5q8 17 16 35t16 38q45 97 88.5 188.5t78.5 163.5l15 33 q27 54 52 109t37 115q2 8 8 11q3 3 8 3q2 0 5 -1q8 -2 11 -8q3 -3 3 -8q0 -2 -1 -5q-14 -62 -39 -119t-52 -113l-16 -32q-35 -73 -78 -163.5t-87 -189.5q-9 -17 -16.5 -35.5t-16.5 -36.5q-12 -28 -24.5 -56.5t-26.5 -56.5q-41 -83 -76 -158.5t-66.5 -149t-62 -147 t-62.5 -152.5q-4 -9 -17 -40.5t-27 -65.5q-17 -40 -37 -87l-32 13q20 47 37 87q14 34 27 65.5t17 40.5q44 110 87 212.5t91 209.5q-4 16 -14.5 42t-26 57t-34 65.5t-39.5 68.5q-14 23 -34 59t-46 84q-25 45 -54.5 99.5t-63.5 113.5q-20 34 -37.5 67.5t-35.5 68.5 q-29 56 -59.5 112.5t-68.5 113.5q-3 6 -3 11q0 9 8 14z" />
<glyph unicode="z" horiz-adv-x="1102" d="M126 -42q0 3 1 6q8 19 55 63l8 8q118 118 228 237t205 253q5 8 26.5 34.5t53.5 64.5q24 28 51 60.5t54.5 66.5l55 68t51.5 66q26 32 45.5 62.5t30.5 50.5q2 2 2 3q-27 0 -64.5 -2.5t-73.5 -7.5q-38 -5 -67 -7.5t-53 -3.5t-45 -0.5t-43 0.5q-26 0 -59 1h-23q-25 0 -56 -1 q-13 -1 -28 -1q-22 0 -49 2q-45 3 -92 8t-90.5 12.5t-73.5 15.5q-18 5 -13 21q2 8 8 12q4 2 8 2q3 0 6 -1q28 -8 70.5 -14.5t88 -11.5t89 -7.5t75.5 -2.5q47 2 80 2t59 -2h42.5t43.5 0.5t51.5 3t66.5 6.5q15 2 39.5 5t50.5 4.5t50 2.5t38 -3q2 0 3 -1t3 -1q5 -4 7 -10 q1 -3 2 -5q0 -3 -2 -6q-4 -7 -6 -8q-2 -4 -5 -9.5t-8 -14.5q-13 -20 -33 -51.5t-47 -65.5q-24 -31 -51.5 -65t-55.5 -68t-55 -67t-51 -61q-30 -37 -52 -63t-27 -34q-47 -68 -99 -131.5t-107.5 -124.5t-113.5 -120t-117 -118l-8 -9q-3 -3 -9 -8t-11 -13q106 16 202.5 27 t194.5 15q14 1 28 1q32 1 63 -3q45 -4 89 -10l40 -5q13 -2 26 -3t27 -2q33 -3 67 -7.5t68 -12.5q7 -1 11.5 -6t2.5 -13q-2 -17 -21 -14q-33 6 -66 9.5t-66 7.5q-14 1 -27 2.5t-26 2.5l-40 4q-43 5 -87 11q-32 4 -64 4q-12 0 -24 -1q-106 -5 -213 -17.5t-225 -29.5h-3 q-3 0 -7 1.5t-6 5.5q-4 5 -4 11z" />
<glyph unicode="{" horiz-adv-x="684" d="M4 563q1 14 8.5 24.5t17.5 18t21 12.5t21 9l6 2t5 2q26 11 49.5 25t37.5 36q17 25 17 55.5t-3 62.5l-1 8q-2 12 -3 32t-2 41q-1 15 -1.5 28.5t-1.5 22.5q-6 71 -6.5 141.5t4.5 142.5q7 112 43 202q25 66 69.5 107.5t104.5 54.5q43 10 84 6.5t81 -9.5q16 -2 31.5 -3.5 t31.5 -3.5q8 -1 12.5 -6t3.5 -13t-6 -12.5t-13 -3.5q-17 2 -33 4l-32 4q-39 5 -77 8t-76 -5q-32 -7 -56.5 -22t-42.5 -35t-30 -42t-20 -42q-32 -83 -41 -192q-5 -69 -4 -139t6 -139q1 -9 1.5 -23t2.5 -29l2 -40t2 -31l1 -8q4 -35 3.5 -72t-22.5 -70q-19 -27 -46 -43.5 t-56 -29.5q-4 -1 -12 -5q-19 -7 -31.5 -14.5t-14.5 -18.5q1 -2 4.5 -6.5t16.5 -12.5q10 -6 21 -11.5t20 -10.5q5 -3 9 -4.5t7 -3.5q84 -48 100 -163q6 -48 2 -98t-9 -96q-2 -16 -3.5 -30t-3.5 -28q-3 -32 -1 -59.5t7 -52.5q6 -24 15 -48.5t18 -47.5l1 -2q44 -111 121 -174 q42 -36 94 -44q27 -4 59 -1.5t74 11.5q7 2 13 -2t8 -11t-2 -13t-11 -8q-59 -13 -105 -13q-22 0 -41 3q-30 5 -59 18t-53 33q-83 70 -130 189l-1 1q-10 25 -19 50t-16 51q-6 28 -8 58t2 65q1 27 6 59q5 45 9 93t-2 93q-13 95 -82 137q-2 1 -5.5 3t-8.5 4q-17 8 -32 16.5 t-26.5 17.5t-18 19t-5.5 21z" />
<glyph unicode="|" horiz-adv-x="738" d="M349 1672q0 25 5.5 34t16.5 9q21 0 20 -43l1 -1916q1 -118 -21 -118q-16 -3 -18 29q-3 88 -3 358z" />
<glyph unicode="}" horiz-adv-x="750" d="M16 -327q1 8 6 12.5t13 3.5q17 -2 33 -4l32 -4q39 -5 77 -8t76 5q32 7 56 22t42 35t30.5 42t20.5 42q32 83 41 192q2 34 3 53.5t1 35.5t-1.5 35t-4.5 54q-1 9 -1.5 23t-2.5 29l-2 40t-2 31l-1 8q-2 17 -3.5 35.5t0 36.5t6.5 35.5t16 34.5q19 27 46 43.5t56 29.5q4 1 12 5 q19 7 31.5 14.5t14.5 18.5q-1 2 -4.5 6.5t-16.5 12.5q-10 6 -21 11.5t-20 10.5q-5 3 -9 4.5t-7 3.5q-84 48 -100 163q-3 24 -3.5 64t1 83.5t4 83.5t5.5 63q2 16 3.5 30t3.5 28q1 16 2 44.5t0.5 59t-2 57.5t-4.5 39q-6 24 -15 48.5t-18 47.5l-1 2q-11 28 -18 42t-14.5 23 t-18.5 16.5t-30 23.5q-10 9 -28 13t-38 6t-39 3t-31 3q-27 4 -59 1.5t-74 -11.5q-7 -2 -13 2t-8 11t2 13t11 8q59 13 105 13q21 0 41 -3q15 -2 36.5 -3.5t43.5 -4.5t42 -8.5t32 -15.5q20 -17 32 -27t21 -20.5t17 -26.5t20 -46l1 -1q10 -25 19 -50t16 -51q3 -14 4.5 -42 t2 -60t0 -62t-2.5 -47q-1 -27 -6 -59q-3 -22 -5.5 -61t-4 -82t-1 -82t3.5 -61q13 -95 82 -137q2 -1 5.5 -3t8.5 -4q34 -17 58.5 -34.5t23.5 -39.5q-2 -14 -9 -24.5t-17 -18t-21 -12.5t-21 -9l-6 -2t-5 -2q-26 -11 -49.5 -25t-37.5 -36q-17 -25 -17 -55.5t3 -62.5l1 -8 q2 -12 3 -32t2 -41q1 -15 1.5 -28.5t1.5 -22.5q3 -35 4.5 -55t2 -36.5t-0.5 -36.5t-4 -56q-7 -112 -43 -202q-25 -66 -69.5 -107.5t-104.5 -54.5q-43 -10 -84 -6.5t-81 9.5q-16 2 -31.5 3.5t-31.5 3.5q-8 1 -12.5 6t-3.5 13z" />
<glyph unicode="~" horiz-adv-x="1189" d="M103 536q-3 8 0 15q14 34 32.5 70t39 70.5t42 66t42.5 55.5q35 39 81.5 58t95.5 14q54 -7 101.5 -39t75.5 -85q22 -39 46.5 -76.5t54 -69t64.5 -55t79 -33.5q47 -13 82 11q24 17 41.5 48.5t29.5 70.5t20.5 82t15.5 83q2 13 4.5 25t4.5 23q2 8 8.5 12.5t12.5 2.5 q18 -3 15 -22q-2 -11 -4.5 -22.5t-4.5 -25.5q-7 -42 -15.5 -87.5t-22.5 -87.5t-34 -77t-50 -56q-16 -11 -34.5 -16t-39.5 -5q-10 0 -19 0.5t-19 3.5q-48 11 -87.5 37t-72.5 60.5t-59.5 75t-48.5 81.5q-24 44 -62 71.5t-83 32.5q-44 3 -81.5 -11.5t-66.5 -49.5 q-21 -23 -42 -53t-40.5 -63.5t-37 -68t-30.5 -67.5q-3 -6 -10 -9t-13 -1q-8 3 -11 11z" />
<glyph unicode="&#xa1;" horiz-adv-x="487" d="M170 1531q0 16 12 27t27 11q18 0 35 -22q16 -21 16 -39q0 -15 -12 -26t-27 -11q-18 0 -35 22q-16 21 -16 38zM190 -20l1 1235q2 31 22 31q21 0 19 -31q1 -117 1.5 -197.5t0.5 -120.5q0 -144 -0.5 -431.5t-2.5 -485.5q2 -34 -19 -34q-20 0 -22 34z" />
<glyph unicode="&#xa2;" horiz-adv-x="1276" d="M252 739q-8 81 1 155q29 264 137.5 403.5t295.5 154.5q90 8 152.5 -6t103 -39t62.5 -56t31 -56l56 115q3 8 9.5 9.5t13.5 -1.5t9.5 -9.5t-2.5 -12.5l-73 -157q-7 -10 -21 -10q-11 4 -11 17q-1 2 -4 17t-14 36t-32 44.5t-57 42t-89.5 28.5t-129.5 4q-174 -14 -275 -145.5 t-130 -380.5q-7 -71 1.5 -148t32 -146.5t63 -125.5t93.5 -84q56 -29 127 -41.5t141.5 -5.5t134 33t104.5 73q40 50 66.5 91t41.5 71q18 35 27 63q3 14 21 11q6 -2 10 -7.5t2 -11.5q-1 -2 -7.5 -20t-22.5 -50t-43.5 -75t-70.5 -94q-26 -31 -60.5 -54t-75.5 -38t-86 -22 t-90 -7q-64 0 -124 14.5t-110 40.5q-62 31 -105.5 91t-69 134t-33.5 155zM596 50l90 1686q3 15 18 15q8 0 13 -5t5 -10l-92 -1688q0 -5 -6 -10t-11 -5l-2 2q-6 0 -11.5 5t-3.5 10z" />
<glyph unicode="&#xa3;" horiz-adv-x="1625" d="M62 806q0 18 18 18q80 0 158 4t155 7q2 0 3.5 0.5t3.5 0.5q-5 47 -7.5 95.5t-0.5 98.5q3 114 30 208.5t76 166.5t119 120t159 68q44 9 101.5 6.5t118 -17t120 -42t107.5 -67.5q108 -94 97 -217q0 -6 -6.5 -11t-11.5 -3q-6 0 -11 5.5t-3 12.5q2 31 -5 59t-20 51.5 t-29.5 42.5t-33.5 33q-44 37 -98.5 63t-111.5 40.5t-111 16.5t-95 -7q-79 -18 -136 -55t-96.5 -84.5t-64 -102t-38 -107t-18.5 -100t-5 -80.5q-1 -50 1 -98t7 -94l90 4l90 4q62 2 123.5 2h122.5h68h35q62 2 108 1t62 -12q7 -3 8.5 -10t-1.5 -13q-4 -6 -10.5 -7.5t-12.5 1.5 q-7 4 -26 6t-42 2.5t-46.5 -0.5t-39.5 -2h-35h-68h-122.5t-123.5 -2q-44 -1 -88 -3t-88 -5q5 -46 11.5 -88.5t13.5 -81.5q15 -83 18.5 -158t-5 -145t-29.5 -135t-55 -129q-20 -42 -40.5 -73t-40.5 -55q16 6 31.5 15t29.5 17q12 5 24 11.5t21 11.5q48 22 93.5 32.5t92 10 t95.5 -11.5t103 -33q49 -21 106.5 -37.5t116 -23t115.5 -0.5t104 29q93 45 126 157q4 16 7.5 34.5t5 36.5t-0.5 33.5t-8 25.5q-2 7 -0.5 13.5t8.5 9.5q6 5 12.5 2.5t11.5 -9.5q9 -17 10.5 -39.5t-1 -45t-7 -41.5t-7.5 -29q-33 -126 -143 -180q-51 -25 -111.5 -31.5t-122.5 0 t-123.5 23.5t-113.5 40q-99 40 -182.5 41.5t-170.5 -38.5q-12 -5 -22 -11.5t-23 -12.5q-31 -17 -64 -31t-69 -16q-12 0 -16 12q-2 4 0 10t7 10q26 20 55 59t61 98q32 61 52 124t28.5 130t5 139.5t-17.5 153.5q-6 38 -13 81.5t-13 91.5q-5 0 -7 -1q-80 -4 -158 -8t-159 -4 q-8 0 -13 5.5t-5 12.5z" />
<glyph unicode="&#xa4;" horiz-adv-x="1253" d="M46.5 253.5q-0.5 7.5 4.5 12.5l280 314q-17 19 -27.5 42.5t-16 49t-6.5 52t1 52.5q5 56 24.5 99t61.5 75q18 13 35 23q-12 15 -33.5 38t-47.5 49.5t-53 54t-51 50.5l-37.5 37.5l-31.5 31.5q-23 24 -28 31t-5 13q0 8 5 12.5t12 4.5q11 0 16 -10q3 -4 12 -13.5t21.5 -22 l28 -28l31.5 -31.5q69 -69 121 -122t72 -80q43 18 86 26t78 11q45 4 104.5 -8t112.5 -42q12 10 37.5 32t59.5 49t73 57t78 56.5t74.5 47t62.5 29.5q7 2 13.5 -1.5t8.5 -10.5t-1 -13.5t-10 -8.5q-35 -11 -93.5 -48t-138.5 -100q-44 -34 -79.5 -63.5t-53.5 -45.5 q15 -12 29 -26t22 -32t11.5 -37t4.5 -39t1 -39q-2 -81 -26.5 -139.5t-80.5 -100.5q7 -5 16 -13.5t22 -19.5q21 -20 47 -45t55 -55q24 -25 50 -52t49.5 -52t41 -45.5t25.5 -32.5q5 -6 3.5 -13t-7.5 -11q-5 -3 -10 -3q-9 0 -15 7q-6 9 -21 26.5t-36 40.5t-47 50.5t-54 56.5 q-61 62 -98.5 97t-51.5 45q-14 -8 -28.5 -13.5t-31.5 -10.5q-30 -8 -62.5 -11.5t-65.5 -3.5q-22 0 -50.5 2.5t-60 10t-63 21.5t-59.5 38l-280 -313q-5 -6 -13 -6q-7 0 -11 4q-5 5 -5.5 12.5zM317 774q-3 -46 6 -94t41 -80q35 -38 94 -59t131 -21q29 0 59.5 3.5t57.5 11.5 q85 23 128.5 86t45.5 161q0 16 -0.5 32.5t-3 33t-8.5 31.5t-17 27q-22 22 -50.5 38t-59 26t-60.5 15t-55 5h-12t-11 -2q-23 -2 -50.5 -6t-56 -11.5t-56 -19.5t-51.5 -30q-36 -27 -51.5 -63t-20.5 -84z" />
<glyph unicode="&#xa5;" horiz-adv-x="1302" d="M173 1438q2 6 9.5 6.5t14.5 -4.5q1 -1 4.5 -5t17.5 -26.5t42.5 -69.5t80 -133t129.5 -217.5t191 -322.5q35 45 66.5 90.5t60.5 91.5q0 1 1 2q0 1 2 3q32 51 59.5 99t50.5 90q14 29 32 59.5t36 60.5q39 63 74.5 129.5t57.5 139.5q7 16 21 11q6 -2 9.5 -8.5t2.5 -13.5 q-20 -76 -58 -143.5t-79 -133.5q-16 -29 -33.5 -58t-33.5 -58q-20 -37 -41.5 -77t-47.5 -82q30 4 88 6.5t159 0.5q10 0 14.5 -5t4.5 -12q0 -6 -5.5 -11.5t-13.5 -5.5q-43 1 -88 0.5t-83 -2t-65.5 -4.5t-35.5 -7q-31 -49 -66 -99t-74 -99l-6 -142q13 -1 23 -2t18 -1 q30 -1 63 -1.5t63.5 -0.5t55.5 0.5t39 1.5q14 2 30.5 5t30.5 5l34 6q9 2 13.5 -3.5t6.5 -14.5q2 -5 -2 -11t-11 -6q-1 -1 -11 -2.5t-25 -3.5t-31.5 -4t-31.5 -3q-14 0 -40.5 -1t-58.5 -1h-63t-64 2q-8 0 -18 0.5t-22 1.5q-2 -81 -3.5 -161.5t-1 -147.5t2.5 -112.5t7 -55.5 q5 -4 4 -11t-6 -12q-8 -4 -12 -4q-8 0 -14 7q-8 9 -11.5 56.5t-4.5 118t0.5 155.5t4.5 169q-31 2 -68 4.5t-74.5 5t-72.5 5t-62.5 4.5t-44 3t-17.5 1q-8 0 -13 5.5t-3 15.5q0 6 5 9.5t13 3.5q1 0 36 -2.5t86.5 -6t110 -8t105.5 -7.5l6 144l-121 202q-38 1 -84 2.5t-88 2 t-74.5 -0.5t-42.5 -4h-4q-12 0 -15 10q-3 8 -0.5 13.5t10.5 7.5q12 5 46 6.5t76 1.5t84.5 -2t71.5 -3q-59 98 -115.5 193t-102 171t-75.5 124.5t-34 54.5q-13 10 -2 25z" />
<glyph unicode="&#xa6;" horiz-adv-x="731" d="M342 1484q0 97 3 179q4 28 19 28q18 -3 20 -25t2 -59q0 -20 -1 -61t-1 -62q0 -29 1 -85.5t1 -459.5q0 -59 -21 -59q-15 0 -16 19q-4 46 -4 115q0 336 -1.5 389.5t-1.5 80.5zM350 262q-7 134 9 420q4 28 19 28q18 -3 20 -25t-1 -51q-10 -59 -9.5 -202t-0.5 -166 q0 -35 3.5 -90.5t3.5 -149.5q0 -61 -21 -61q-15 0 -16 19q-4 48 -4 117q0 27 -1.5 80.5t-1.5 80.5z" />
<glyph unicode="&#xa7;" horiz-adv-x="1300" d="M136 367q2 17 18 17q8 0 13 -6.5t4 -12.5q-5 -75 16 -138.5t66 -113.5q62 -68 162 -105.5t224 -41.5q63 -3 116.5 4.5t91.5 21.5q44 14 79 39t58.5 58.5t34.5 73.5t8 84q-6 106 -40.5 170.5t-103.5 97.5q-46 22 -102 37t-113 27q-42 9 -84 19t-79 24q-47 15 -98.5 37.5 t-95 54t-72.5 74t-30 98.5q-1 88 38.5 162.5t120.5 130.5q6 5 12.5 3.5t11.5 -7.5q9 -12 -4 -24q-73 -53 -109 -118t-34 -147q1 -48 27 -85t65.5 -64.5t86.5 -47.5t90 -35q38 -12 78.5 -21.5t82.5 -19.5q58 -12 116.5 -27t108.5 -40q76 -37 117 -109.5t47 -186.5 q3 -50 -10.5 -96t-40 -84t-65.5 -67.5t-87 -46.5q-80 -27 -195 -27h-27q-131 4 -238.5 46t-173.5 114q-51 56 -73.5 126t-17.5 152zM299 1349q4 33 10 61q17 68 74.5 122t145.5 83q64 21 132 18t135.5 -27.5t133.5 -71t126 -113.5q10 -16 -2 -25q-5 -5 -12 -4.5t-12 5.5 q-57 63 -118.5 107t-125 68t-126.5 26.5t-122 -17.5q-78 -25 -129.5 -72t-65.5 -107q-6 -26 -9 -56t2 -61.5t21.5 -63t50.5 -61.5q24 -22 55.5 -40.5t69.5 -36.5q42 -19 84 -35t85 -31q57 -21 109 -42.5t95 -47.5t75 -60t49 -80q22 -63 17 -111.5t-20.5 -82t-33 -51 t-19.5 -17.5q-1 -4 -9 -4q-7 0 -14 5q-5 5 -5 12.5t7 12.5q1 1 15 16t26 43t16 69t-15 95q-14 40 -42.5 70t-68 53.5t-90 43.5t-107.5 41q-41 16 -83.5 32.5t-87.5 36.5q-39 19 -72.5 39t-58.5 43q-40 36 -59 73.5t-25 73.5t-2 69z" />
<glyph unicode="&#xa8;" horiz-adv-x="1085" d="M187 1285q0 15 20 30t38 15q70 0 70 -56q0 -16 -24 -30q-21 -14 -40 -14q-64 0 -64 55zM763 1282q0 36 24 48q14 6 54 6q19 0 37 -16.5t18 -32.5q0 -49 -75 -49q-21 0 -38 12q-20 12 -20 32z" />
<glyph unicode="&#xa9;" horiz-adv-x="1629" d="M110 871q0 109 23.5 201t70.5 162q21 31 45 60t45 51.5t35 36.5l16 16q122 103 248.5 155t266.5 57h30q71 0 151 -14.5t156 -54.5t142.5 -110.5t110.5 -181.5q41 -104 50.5 -188.5t-1.5 -155t-37 -130t-57 -114.5q-94 -163 -208.5 -259t-250.5 -124q-55 -11 -111.5 -15.5 t-111.5 -4.5q-146 0 -257.5 37t-178.5 108q-46 51 -79.5 103.5t-55 110t-32 120.5t-10.5 134zM144 871q0 -68 10 -128t31 -114t53 -104t76 -97q60 -65 165.5 -100.5t243.5 -35.5q54 0 108 6t108 17q128 25 236.5 116.5t196.5 249.5q30 51 55.5 107t36 123t1.5 147t-48 178 q-41 105 -103.5 171t-134 103t-147 50.5t-142.5 13.5h-30q-132 -5 -253 -54.5t-241 -148.5q-23 -22 -46 -48q-20 -22 -43 -50t-43 -58q-44 -66 -67 -153.5t-23 -190.5zM442.5 915q-11.5 72 16.5 144q18 46 57 83.5t89 65.5t106 46.5t108 26.5q51 7 83.5 4.5t51.5 -9 t26 -14.5t9 -11q7 -11 0 -21q-7 -11 -21 -6q-8 3 -12 14q-4 1 -12 4.5t-23 5.5t-38 1.5t-56 -5.5q-41 -5 -92 -20t-99 -40t-87 -60t-56 -80q-24 -62 -15.5 -124.5t52.5 -116.5q22 -29 52 -51.5t63.5 -37.5t69.5 -21t70 -3q19 2 45.5 9.5t54 18t52 22t39.5 22.5 q30 24 48 49.5t37 57.5q11 13 25 6q6 -5 8 -12t-3 -13q-19 -34 -40.5 -61t-55.5 -56q-15 -12 -41.5 -25t-56 -24t-58.5 -19t-50 -10q-9 -2 -17 -2h-16q-72 0 -139.5 33.5t-115.5 96.5q-47 60 -58.5 132z" />
<glyph unicode="&#xaa;" horiz-adv-x="1008" d="M112 1247q-8 75 7.5 149t56.5 133q25 36 57.5 60t68 39t72 22t70.5 9.5t63.5 1t49.5 -3.5l25 -1q44 -5 92.5 -12.5t88.5 -31.5h3.5t4.5 -1q5 -2 8 -4.5t4 -10.5q2 -3 2 -8.5t-2 -8.5q2 -5 2 -8.5v-10.5q5 -34 0 -74q1 -45 4 -101.5t6.5 -116t7.5 -118t8 -106t8.5 -81 t8.5 -43.5q4 -7 1 -13t-10 -10q-3 -2 -7 -2q-5 0 -10 2.5t-7 7.5q-9 23 -17.5 114t-19.5 255q0 15 -1 29t-1 26q-15 -56 -37.5 -109t-48.5 -99t-55 -81.5t-57 -55.5q-39 -30 -81.5 -44.5t-85.5 -14.5t-83 15.5t-74 46.5q-52 48 -83 116.5t-39 143.5zM148.5 1250 q7.5 -69 35.5 -131.5t75 -104.5q29 -27 63.5 -40.5t70.5 -13.5t72.5 13.5t71.5 40.5q35 25 71 75.5t65.5 114.5t49.5 136.5t25 143.5q-2 36 -2 58.5v36.5q-16 11 -36.5 18t-43.5 11t-46 6t-43 4l-22 5q-14 1 -31.5 1h-37.5q-33 0 -71.5 -4.5t-76 -17t-72.5 -35t-60 -59.5 q-37 -53 -51 -121t-6.5 -137z" />
<glyph unicode="&#xab;" horiz-adv-x="1098" d="M20 570q-3 11 5 18q26 25 54 45t55 40t53 39t51 40q33 30 64.5 62.5t61.5 64.5q35 33 65 68q5 4 10 8.5t10 9.5l28.5 28.5t21.5 31.5q6 15 23 10q8 -3 10.5 -10t-0.5 -13q-9 -23 -25.5 -41t-33.5 -33q-5 -5 -9.5 -8.5t-7.5 -8.5q-17 -17 -33 -33.5t-32 -33.5 q-32 -32 -64 -64.5t-66 -63.5q-26 -23 -52 -42.5t-54 -39.5q-20 -14 -40.5 -29t-39.5 -31q92 -26 155 -94q10 -13 18 -21.5t16 -15.5q9 -10 16 -18.5t15.5 -17l18.5 -18.5t25 -24q11 -8 20 -17t19 -18q29 -23 57 -49.5t52 -56.5q9 -14 -4 -25q-3 -3 -10 -3q-11 0 -15 7 q-22 28 -48 52.5t-54 48.5q-11 9 -20.5 17t-20.5 18q-15 14 -25.5 24t-19.5 19t-16.5 18t-16.5 20q-8 8 -15.5 16t-17.5 19q-20 23 -59 50t-112 44q-9 2 -13 11zM505 557q-1 10 6 16q27 25 52.5 47.5t51.5 43.5q20 19 42.5 37.5t45.5 41.5q33 29 65.5 61t62.5 64 q16 17 32 33.5t33 33.5q5 5 9 9.5t10 8.5q15 15 28.5 30t21.5 32q2 7 9 10t14 -1q7 -3 9.5 -10t-0.5 -14q-9 -21 -25.5 -38.5t-33.5 -34.5q-5 -3 -9 -7t-8 -9l-33 -33t-32 -33q-31 -34 -63 -66t-65 -63q-24 -21 -46 -40.5t-44 -37.5q-21 -17 -41.5 -35.5t-41.5 -36.5 q44 -23 80.5 -53.5t69.5 -63.5q20 -18 41.5 -37t44.5 -36q32 -26 76.5 -64t84.5 -89q5 -5 4 -12t-6 -12q-4 -2 -6.5 -3t-5.5 -1q-8 0 -14 6q-29 37 -66 72t-91 76q-23 18 -44.5 36.5t-41.5 38.5q-38 35 -77 67.5t-88 53.5q-5 1 -7.5 4.5t-3.5 7.5z" />
<glyph unicode="&#xac;" horiz-adv-x="958" d="M42 674q0 6 5.5 11t13.5 5l24.5 -0.5t62.5 -1.5t84 -1.5t89.5 -0.5t79.5 0.5t53 3.5q14 2 48.5 4t79 3t93 1t90.5 -1t71 -3t35 -6q5 -3 8 -8.5t3.5 -24.5t-0.5 -57t-4 -106q-1 -28 -2 -59.5t-1.5 -59.5t-0.5 -50t2 -30q0 -2 1 -3t1 -3q3 -8 -1 -14.5t-12 -8.5q-2 0 -2 -1 t-2 -1q-7 0 -11 4q-5 5 -8 13.5t-3.5 32t0.5 66t4 114.5q1 24 2.5 49.5t2 48t1 41t-0.5 27.5q-12 1 -41 2t-66.5 1t-80 0.5t-81.5 -0.5t-71 -2t-48 -3q-19 -3 -54.5 -4.5t-79 -1.5t-89.5 0.5t-84.5 1.5t-64.5 1.5t-29 0.5q-7 2 -12 6.5t-5 13.5z" />
<glyph unicode="&#xad;" horiz-adv-x="853" d="M111 535q0 8 6.5 14.5t12.5 4.5q5 -1 47 -0.5t104 2.5t134.5 4.5t138.5 5.5t115.5 5.5t65.5 3.5q8 2 14 -2t9 -10q3 -8 -0.5 -14t-11.5 -8q-21 -6 -73.5 -10.5t-119.5 -7t-139.5 -3.5t-134 -1.5t-104 -0.5h-47.5q-6 0 -11.5 5t-5.5 12z" />
<glyph unicode="&#xae;" horiz-adv-x="1629" d="M98.5 940.5q6.5 77.5 21.5 140.5q16 73 39 126t47 90.5t48 63t44 44.5q17 15 27 28q23 24 68 52.5t105.5 54.5t134 44.5t153.5 21.5q49 2 88 3t73 1q42 0 75 -3t62 -10.5t56 -20.5t59 -33q46 -28 92 -76t85 -100t67.5 -101t39.5 -79q10 -29 16 -78t6.5 -105t-5 -112 t-17.5 -99q-9 -32 -25 -82.5t-43.5 -105.5t-69 -108.5t-101.5 -91.5q-14 -9 -29 -20.5t-30 -20.5q-35 -27 -74.5 -53.5t-87.5 -47.5t-107 -34t-134 -13q-61 0 -128 10.5t-144 30.5q-108 29 -183 83.5t-123 125.5t-72.5 152t-32 163t-1 159.5zM134 939.5q-6 -73.5 1 -151.5 t30 -155.5t68 -144.5t115.5 -119.5t172.5 -79.5q72 -18 137.5 -28.5t123.5 -10.5q70 0 126 13t102 33.5t83.5 46t71.5 50.5q15 11 30 21t31 19q55 36 94 86.5t65 103t41 101t23 79.5q11 40 16 93t5 106.5t-5.5 100.5t-15.5 74q-9 27 -36.5 73.5t-65 96t-81 95t-85.5 71.5 q-29 19 -54.5 31t-52 19t-57 10t-70.5 3q-32 0 -71.5 -1.5t-87.5 -3.5q-84 -4 -156 -23t-129 -44.5t-96 -52t-56 -44.5q-8 -6 -14 -12l-14 -14q-20 -19 -43 -43t-45.5 -59.5t-43.5 -85t-37 -120.5q-14 -60 -20 -133.5zM431 566l134 715q2 6 7 10t11 4h17q79 23 150.5 29.5 t151.5 -0.5q32 -3 68 -10t68.5 -22.5t58 -40.5t36.5 -64q6 -24 7 -53.5t-16 -59.5t-57.5 -60t-115.5 -56q-25 -9 -67 -18t-90.5 -15t-98.5 -8.5t-91 0.5l-14 2q15 -14 30 -29t32 -34q11 -11 20 -19t15 -13q23 -20 44 -38t39 -35q35 -30 64.5 -54.5t59 -43t62.5 -31t76 -19.5 q9 -2 13.5 -7.5t2.5 -13.5q-4 -14 -20 -14q-47 7 -83.5 20.5t-69 33t-63 45.5t-66.5 57q-19 17 -38.5 35t-42.5 36q-6 6 -16 15.5t-21 23.5l-21 21t-25 23.5t-26 22t-23 16.5l-67 -357q-3 -13 -16 -13h-4q-15 2 -15 19zM541 956h18t18 -2h29q42 -3 91.5 -1t96 8t85.5 13.5 t60 15.5q72 25 107.5 52.5t48.5 53t10.5 47.5t-6.5 36q-23 92 -199 110q-79 8 -147.5 1.5t-144.5 -28.5h-6h-4z" />
<glyph unicode="&#xaf;" horiz-adv-x="1284" d="M-38 1780v35q23 0 69 -1t69 -1h447q71 0 213.5 1t213.5 1h351v-35l-336 1q-71 0 -212 -1t-212 -1q-101 0 -301.5 0.5t-301.5 0.5z" />
<glyph unicode="&#xb0;" horiz-adv-x="826" d="M77 1335q0 142 100 239q97 91 230 91q149 0 243.5 -100t94.5 -253q0 -136 -110 -232q-105 -91 -245 -91q-147 0 -234 104q-79 97 -79 242zM120 1339q0 -124 62 -210q71 -100 196 -100q124 0 222 76q103 82 103 199q0 143 -81 232t-217 89q-109 0 -194 -79 q-91 -85 -91 -207z" />
<glyph unicode="&#xb1;" horiz-adv-x="984" d="M65 -35q-1 8 3 13t10 7q19 3 56.5 5t84 3.5t96.5 2t95 1.5h61.5t39.5 1q15 1 44 1h63h70.5t66.5 -0.5t50 -0.5h23q7 1 18.5 1t23.5 -1.5t23 -6.5t16 -14q7 -15 -5 -23q-7 -5 -13.5 -3t-10.5 9q-3 3 -18.5 5t-31.5 0h-22.5h-50.5t-66.5 0.5t-71 0.5h-63t-43.5 -1 q-14 -1 -41 -1.5t-62 -0.5q-41 0 -90.5 -0.5t-95.5 -2t-83.5 -3.5t-55.5 -6h-3q-14 0 -17 14zM66 654q6 16 22 11q13 -5 32.5 -7t42.5 -2t48.5 1.5t50.5 3.5q19 2 36.5 3t35.5 2q31 3 72 0.5t85 -4.5q55 -3 106 -4.5t77 3.5q23 5 59.5 5t72 -2.5t62 -5t29.5 -2.5 q14 -3 14 -18q-2 -16 -19 -16q-1 0 -26 2.5t-59 4.5t-69.5 2t-57.5 -4q-27 -5 -79 -3.5t-112 4.5q-43 3 -84 4.5t-69 0.5q-18 -1 -35.5 -2t-35.5 -3l-54 -4t-52 -2q-52 0 -84 11q-5 3 -8 9.5t-1 11.5zM447.5 924.5q0.5 38.5 2.5 68.5t6 45q4 14 21 11q6 -2 10 -7t2 -13 q-3 -13 -5 -41t-2.5 -64.5t0.5 -77.5t2 -78t2.5 -67t3.5 -44q5 -50 0 -376v-15q0 -8 -5.5 -12.5t-12.5 -4.5q-17 0 -17 17l1 15q1 101 1.5 169t0.5 110.5t-1 64t-2 29.5q-1 13 -2.5 42.5t-2.5 67.5t-2 80t-0.5 80.5z" />
<glyph unicode="&#xb2;" horiz-adv-x="1333" d="M387 1496q2 37 21 75.5t52 74.5q31 34 68 58.5t74 35.5q50 15 99 7.5t94 -36.5q51 -33 84 -88.5t41 -118.5q6 -60 -15.5 -104t-58.5 -76.5t-84 -56.5t-92 -44q-19 -8 -35.5 -15.5t-32.5 -15.5q-39 -20 -76 -49t-62 -58q-18 -22 -32 -48t-10 -43q1 -4 4 -8.5t13 -8.5 q29 -13 66.5 -13t73.5 2q11 0 20.5 0.5t19.5 0.5q19 1 36.5 1h34.5q34 0 67 1t66 2.5t67.5 4.5t72.5 8q8 1 13 -3.5t7 -11.5q1 -8 -3.5 -13.5t-11.5 -6.5q-39 -5 -74.5 -8t-69 -4.5t-66.5 -2.5t-68 -1h-34.5t-35.5 -1h-19.5t-20.5 -1q-14 -1 -28 -1.5t-28 -0.5q-26 0 -51 3 t-48 13q-19 8 -27 19.5t-10 21.5q-6 30 14 69q9 17 19.5 31l16.5 22q27 32 66.5 62.5t81.5 52.5q16 8 33.5 16t35.5 16q45 20 88.5 42t77.5 51q38 32 53.5 69t10.5 83q-6 55 -35 104t-74 78q-13 9 -30 17t-38 12.5t-45 4t-51 -8.5q-32 -10 -65 -32t-61 -53 q-29 -31 -46 -64.5t-19 -63.5q0 -8 -5.5 -12.5t-12.5 -4.5q-8 1 -12.5 6.5t-3.5 12.5z" />
<glyph unicode="&#xb3;" horiz-adv-x="1312" d="M419.5 921.5q-2.5 6.5 1.5 13.5q3 6 9.5 8.5t13.5 -0.5q26 -13 51.5 -21.5t51.5 -13.5q39 -7 78 -6t74 11q39 10 71.5 29t58.5 46q29 32 39.5 77.5t-1.5 93.5q-6 23 -16.5 42t-26.5 33q-16 15 -38 29t-38 16q-17 2 -35.5 4t-36 3t-32 2t-23.5 1q-11 0 -12 1q-7 1 -11 6.5 t-3 12.5t6 11t11 4h9q7 0 22.5 1t44.5 6q6 0 16 2q23 3 43 6.5t42 14.5q20 10 32 23t19 27.5t9.5 28t3.5 24.5q2 47 -20.5 90t-60.5 65q-32 19 -70 28t-77.5 8t-77 -11.5t-68.5 -31.5q-6 -5 -13 -3t-11 8q-5 6 -3.5 12.5t7.5 11.5q35 23 76.5 35.5t87.5 13.5q45 2 88.5 -9 t78.5 -32q22 -14 40.5 -34.5t31.5 -45t19.5 -52t5.5 -55.5q-2 -45 -23.5 -79t-59.5 -53q-9 -5 -18 -8t-17 -6q23 -8 44.5 -23t34.5 -26q19 -17 32.5 -40.5t20.5 -52.5q14 -56 1 -110t-48 -92q-59 -63 -146 -86q-44 -12 -94 -12q-18 0 -36.5 2t-36.5 5q-29 5 -57 14t-55 23 q-7 4 -9.5 10.5z" />
<glyph unicode="&#xb4;" horiz-adv-x="1139" d="M269 1214q4 19 148 251q97 139 171 183q22 6 26 -5t-2 -19q-12 -14 -59 -60q-70 -68 -119 -148l-99 -166q-29 -44 -40 -56q-12 -10 -22.5 -2.5t-3.5 22.5z" />
<glyph unicode="&#xb5;" horiz-adv-x="1065" d="M45 -386l11 35q18 61 36 118.5t39 113t46 110t58 110.5q-21 44 -13 106q12 99 26.5 204.5t36.5 214t52.5 217.5t73.5 214q2 6 9 9t12 0q15 -7 10 -22q-42 -103 -72.5 -210.5t-52 -214.5t-36 -212t-26.5 -204q-6 -57 13 -92q2 -2 4 -6q5 -8 11.5 -15.5t14.5 -13.5 q30 -25 75 -34t94 -7.5t97 11t84 21.5q56 18 109.5 40.5t106.5 46.5l12 5l42 220q3 14 11.5 49t20.5 84t26.5 106.5t29.5 116.5t29.5 114.5t26 99.5t19 72.5t8.5 33.5q2 6 7 10t13 2q15 -5 12 -21q0 -1 -7 -28t-18.5 -70t-25.5 -99t-29 -115.5t-30 -118t-27 -108 t-20.5 -85.5t-10.5 -50q-18 -89 -32 -162.5t-23.5 -128.5t-14.5 -87.5t-5 -38.5q2 -8 -2.5 -13t-12.5 -7h-3q-5 0 -10 3.5t-6 10.5q0 2 -0.5 7t2 21.5l7.5 49.5t16 91q-51 -22 -103.5 -44t-106.5 -40q-37 -12 -92.5 -23t-115.5 -11q-50 0 -95.5 11.5t-79.5 37.5 q-11 8 -21 20q-30 -53 -53 -105t-42 -104.5t-36 -107.5t-35 -113l-11 -35q-3 -11 -17 -11h-4q-17 5 -12 21z" />
<glyph unicode="&#xb6;" horiz-adv-x="1379" d="M64 948q7 60 28.5 122.5t54 121.5t74 110.5t88.5 89.5q56 43 114.5 74t120 54t126 39.5t130.5 31.5q38 11 76.5 21t76.5 20q8 4 14.5 0t8.5 -11q3 -7 -0.5 -12.5t-11.5 -7.5q-7 -2 -13 -4t-13 -4q2 -14 4.5 -40t5.5 -58.5t5.5 -67.5t3.5 -68q1 -25 -1 -69.5t-5 -98.5 t-6.5 -114t-7.5 -116q-2 -30 -3 -58t-2.5 -51t-2 -39.5t-0.5 -23.5q0 -15 -4 -55t-11 -93.5t-15.5 -114.5t-16.5 -117.5t-15.5 -102.5t-11.5 -70q-5 -25 -14.5 -64.5t-21.5 -84.5t-24.5 -91t-23 -83.5t-17.5 -63t-8 -28.5q-2 -5 -6.5 -8t-9.5 -3h-6q-6 3 -9.5 8.5t-0.5 13.5 q0 1 6.5 24.5t17 61t23 83.5t24 91.5t21 85t14.5 63.5q6 32 15 90.5t19 127.5q-51 -17 -115 -25t-124 -8q-21 0 -40 2.5t-36 4.5q-78 5 -149.5 29.5t-137.5 64.5q-51 31 -89.5 76.5t-63 100t-34 117t-1.5 127.5zM98 945q-7 -61 1.5 -118.5t31 -108t58 -92.5t82.5 -72 q61 -37 129.5 -59.5t142.5 -30.5q33 -3 74 -3t83 3.5t82 11.5t71 20q2 0 3 0.5t3 0.5q7 49 13 96.5t10.5 87t7.5 68.5t3 40q0 16 2.5 63.5t7.5 112.5q3 52 6.5 111.5t6.5 114t4.5 99.5t0.5 69q0 31 -2 64t-4.5 63.5t-5 56t-4.5 40.5q-25 -7 -49 -13t-48 -11 q-65 -16 -127.5 -33t-122.5 -39t-117.5 -52t-110.5 -72q-44 -35 -83 -83.5t-70 -104.5t-51.5 -115t-27.5 -115zM941 -174q15 54 33 107.5t35 107.5l19 66q70 222 114 477.5t61 531.5q3 60 5.5 123t0 125.5t-12.5 123.5t-31 118q-3 7 -0.5 13t8.5 8q8 4 14.5 1t9.5 -9 q22 -60 32.5 -123t13.5 -127.5t0.5 -127.5t-5.5 -123q-17 -281 -61.5 -540t-114.5 -482l-22 -68q-17 -51 -32.5 -104t-31.5 -107q-2 -5 -7 -8t-10 -3h-6q-6 2 -10 7.5t-2 12.5z" />
<glyph unicode="&#xb7;" horiz-adv-x="510" d="M743 712q0 21 13.5 35.5t32.5 14.5q21 0 35 -14.5t14 -35.5q0 -20 -14 -33.5t-35 -13.5q-19 0 -32.5 13.5t-13.5 33.5z" />
<glyph unicode="&#xb8;" horiz-adv-x="1139" d="M372.5 -281.5q-0.5 7.5 5.5 13.5q6 5 14 5t13 -5q27 -26 64 -48t78 -37.5t81.5 -21.5t75.5 2q26 6 49 22t38.5 38t23 48.5t3.5 53.5q-5 40 -11.5 69t-18.5 52t-30.5 43t-47.5 41q-7 5 -8 12t4 14t12.5 8.5t13.5 -3.5q33 -24 54.5 -47.5t35.5 -50t22 -58.5t14 -75 q4 -35 -5.5 -68t-29.5 -60.5t-48.5 -47.5t-62.5 -29q-13 -2 -25 -4t-25 -2q-37 0 -76.5 10t-77 26.5t-71 38t-59.5 45.5q-5 8 -5.5 15.5z" />
<glyph unicode="&#xb9;" horiz-adv-x="1333" d="M422 942q5 17 21 13q20 -5 40 -4.5t41 2.5q14 1 28 1.5t28 -0.5h2q20 -1 39.5 -2t39.5 -1q4 14 3.5 28.5t-2.5 31.5q-1 8 -2 17.5t-1 17.5q0 62 -3 122v2q-2 55 -2 116t1.5 123.5t4 123.5t7.5 116q-8 -7 -16.5 -13t-14.5 -11q-17 -11 -38.5 -25.5t-43.5 -30.5 q-22 -15 -42.5 -29.5t-37.5 -25.5q-6 -4 -13 -2.5t-11 7.5t-2.5 13t7.5 11q17 11 37.5 25t41.5 29q23 16 44.5 31.5t38.5 26.5q6 3 14 9.5t17 14t16.5 14t11.5 10.5q10 8 20 2q11 -5 9 -17q-5 -56 -9 -121t-5.5 -133t-1.5 -135.5t2 -127.5v-2q1 -30 2 -60.5t1 -62.5 q0 -14 3 -32q2 -15 2.5 -31t-2.5 -31q16 0 31.5 0.5t30.5 1.5q15 0 29.5 0.5t29.5 0.5q9 1 30.5 1t42.5 -1h39q7 0 12 -4.5t5 -12.5t-5 -12.5t-12 -5.5q-6 0 -16 0.5t-23 0.5h-72q-14 -1 -29 -1.5t-29 -0.5q-23 -1 -46.5 -2t-47.5 -1q-22 0 -44 1t-43 2h-2q-13 1 -25.5 0.5 t-26.5 -1.5q-10 -1 -20 -1.5t-21 -0.5q-22 0 -50 5q-7 2 -11 8t-2 13z" />
<glyph unicode="&#xba;" horiz-adv-x="900" d="M65 1233q-15 75 6 144.5t65 127.5t105.5 102t128.5 68l12 3q67 24 146 5t151 -77q23 -18 50.5 -45t50.5 -63t37 -80t10 -95q-4 -53 -14.5 -103t-27.5 -93q-20 -50 -54 -90t-79 -69t-99 -44.5t-113 -15.5q-51 0 -97 11.5t-88 33.5q-34 18 -64 47t-55 65.5t-43 79t-28 88.5 zM101 1241q9 -43 25 -82t38.5 -72t49.5 -58.5t57 -41.5q38 -23 81.5 -32.5t87.5 -9.5q54 0 103 13.5t89.5 39t71.5 62t48 81.5q16 40 26.5 87t12.5 98q3 44 -10 83t-34 71t-46 56.5t-45 40.5q-47 38 -97.5 58.5t-97.5 20.5q-17 0 -34.5 -3t-34.5 -8l-10 -4q-61 -23 -118 -63 t-97.5 -92.5t-60 -115t-5.5 -129.5z" />
<glyph unicode="&#xbb;" horiz-adv-x="1118" d="M17.5 1024q2.5 7 9.5 10q7 4 14 1t9 -10q8 -18 22 -33t29 -30q6 -4 10 -8.5t9 -9.5q18 -17 34 -34l32 -34q30 -33 63 -65t67 -61q23 -23 45.5 -42t43.5 -38q26 -22 51.5 -44.5t53.5 -48.5q7 -6 6 -16q-1 -4 -3.5 -7.5t-7.5 -4.5q-50 -21 -89.5 -54t-77.5 -68 q-20 -20 -42 -39t-45 -37q-54 -42 -92 -77t-67 -73q-6 -6 -14 -6q-3 0 -5.5 1t-6.5 3q-5 5 -6.5 12t4.5 12q40 51 85 90t77 65q24 17 45.5 36.5t42.5 37.5q33 34 70 64.5t81 53.5q-21 19 -41.5 37.5t-42.5 35.5q-22 19 -44 38.5t-47 40.5q-33 32 -65.5 64t-63.5 67 q-17 17 -33 33.5t-33 33.5q-4 5 -8 9t-9 7q-18 17 -34.5 34.5t-25.5 39.5q-3 7 -0.5 14zM488.5 1035q2.5 7 10.5 10q17 5 23 -10q7 -17 21.5 -32t29.5 -29q5 -5 10 -9.5t10 -8.5q15 -17 31.5 -34.5t34.5 -34.5q30 -32 62 -65t65 -63q25 -22 51.5 -41t53.5 -39 q28 -20 56 -40.5t55 -45.5q8 -7 5 -19q-4 -10 -14 -11q-37 -8 -64.5 -19.5t-48 -24.5t-35.5 -26t-25 -25q-10 -11 -17.5 -19t-15.5 -16q-9 -11 -16.5 -20t-16.5 -18t-20 -19.5t-26 -24.5q-11 -10 -20.5 -18t-20.5 -18q-29 -24 -55 -48.5t-49 -53.5q-4 -7 -15 -7q-7 0 -10 3 q-13 11 -4 25q24 31 52.5 57.5t57.5 50.5q11 9 20 18t20 17q15 14 25 24.5t18.5 19t16 17t16.5 18.5q8 7 16 15.5t18 22.5q32 33 70.5 57t86.5 38q-19 16 -40 31t-41 29q-28 20 -54.5 40t-52.5 43q-35 32 -67.5 65t-64.5 65l-32 34t-34 34q-3 5 -7.5 8.5t-9.5 8.5 q-17 15 -33.5 33.5t-25.5 41.5q-3 6 -0.5 13z" />
<glyph unicode="&#xbc;" horiz-adv-x="1333" d="M155 647q-3 8 2 15t14 9q28 7 58 10.5t56.5 5t45 1.5t23.5 -1q6 2 13.5 2t14.5 1q19 1 41.5 2t52.5 2t69.5 2t90.5 1q38 0 94 -3t128 -8q83 -4 134.5 -6.5t86.5 -2.5h14.5t30.5 -1.5t37.5 -4.5t35.5 -9q9 -2 12.5 -9.5t-0.5 -15.5q-6 -12 -22 -12q-3 0 -5 0.5t-4 1.5 q-11 4 -25 6t-28.5 3t-27 1.5t-18.5 0.5q-35 0 -88 2.5t-136 6.5h-1q-71 5 -125.5 8t-92.5 3q-51 0 -89.5 -0.5t-68 -1.5t-52 -2.5t-40.5 -2.5q-8 0 -15.5 -0.5t-15.5 -0.5h-1h-17t-42 -1.5t-54.5 -4.5t-55.5 -10q-9 -2 -18 1.5t-12 11.5zM289 -60q20 42 48 79t57 72 q7 9 14.5 18t14.5 18q14 17 27 34t27 34q39 51 79.5 101.5t84.5 98.5q17 18 33 33.5t32 29.5q2 2 4.5 3.5t4.5 3.5q13 13 30.5 25.5t38.5 9.5q7 -1 11 -6t4 -11q0 -19 -3 -36.5t-7 -34.5t-7 -34t-3 -36q-1 -29 1 -58t4 -55q2 -23 3 -43t0 -36q-1 -24 -2 -41.5t-2 -30.5 q-2 -23 -2.5 -43t2.5 -56q1 -5 1 -10t1 -10q106 0 187 -9q8 -1 12.5 -6.5t3.5 -12.5q-1 -8 -6.5 -12.5t-13.5 -3.5q-77 9 -180 9q1 -5 1 -10t1 -10q6 -57 9.5 -114t-4.5 -115q-1 -7 -6 -11t-11 -4h-2q-8 1 -12.5 6.5t-2.5 12.5q7 56 3.5 111.5t-9.5 110.5q0 5 -0.5 11 t-1.5 12q-21 0 -43 -0.5t-46 -1.5q-11 -1 -23 -1h-26q-38 0 -69 -0.5t-63 -2.5q-20 -1 -41.5 -1.5t-45.5 -0.5q-2 0 -4.5 -0.5t-5.5 -0.5q-31 -2 -53 -2.5t-33 3.5q-8 2 -11 9t0 15zM332 -53q19 0 51 3h12q24 1 45 1.5t41 1.5l64 2t70 1h25t23 1q23 1 44.5 1t42.5 1 q-1 5 -1 8.5t-1 8.5q-3 38 -2.5 59.5t2.5 44.5q2 14 2.5 30.5t1.5 40.5q1 14 0 33t-3 42q-2 27 -4 57t-1 59q0 22 3.5 40.5t7.5 36.5q2 11 4 21l4 20q-7 -4 -13.5 -9.5t-11.5 -10.5q-6 -6 -9 -8q-15 -14 -30 -29l-32 -32q-43 -47 -83.5 -97t-79.5 -100q-13 -17 -26.5 -34.5 t-27.5 -34.5q-7 -9 -14.5 -18.5t-15.5 -17.5q-23 -29 -46.5 -59t-41.5 -63zM422 942q5 17 21 13q20 -5 40 -4.5t41 2.5q14 1 28 1.5t28 -0.5h2q20 -1 39.5 -2t39.5 -1q4 14 3.5 28.5t-2.5 31.5q-1 8 -2 17.5t-1 17.5q0 62 -3 122v2q-2 55 -2 116t1.5 123.5t4 123.5t7.5 116 q-8 -7 -16.5 -13t-14.5 -11q-17 -11 -38.5 -25.5t-43.5 -30.5q-22 -15 -42.5 -29.5t-37.5 -25.5q-6 -4 -13 -2.5t-11 7.5t-2.5 13t7.5 11q17 11 37.5 25t41.5 29q23 16 44.5 31.5t38.5 26.5q6 3 14 9.5t17 14t16.5 14t11.5 10.5q10 8 20 2q11 -5 9 -17q-5 -56 -9 -121 t-5.5 -133t-1.5 -135.5t2 -127.5v-2q1 -30 2 -60.5t1 -62.5q0 -14 3 -32q2 -15 2.5 -31t-2.5 -31q16 0 31.5 0.5t30.5 1.5q15 0 29.5 0.5t29.5 0.5q9 1 30.5 1t42.5 -1h39q7 0 12 -4.5t5 -12.5t-5 -12.5t-12 -5.5q-6 0 -16 0.5t-23 0.5h-72q-14 -1 -29 -1.5t-29 -0.5 q-23 -1 -46.5 -2t-47.5 -1q-22 0 -44 1t-43 2h-2q-13 1 -25.5 0.5t-26.5 -1.5q-10 -1 -20 -1.5t-21 -0.5q-22 0 -50 5q-7 2 -11 8t-2 13z" />
<glyph unicode="&#xbd;" horiz-adv-x="1333" d="M155 647q-3 8 2 15t14 9q28 7 58 10.5t56.5 5t45 1.5t23.5 -1q6 2 13.5 2t14.5 1q19 1 41.5 2t52.5 2t69.5 2t90.5 1q38 0 94 -3t128 -8q83 -4 134.5 -6.5t86.5 -2.5h14.5t30.5 -1.5t37.5 -4.5t35.5 -9q9 -2 12.5 -9.5t-0.5 -15.5q-6 -12 -22 -12q-3 0 -5 0.5t-4 1.5 q-11 4 -25 6t-28.5 3t-27 1.5t-18.5 0.5q-35 0 -88 2.5t-136 6.5h-1q-71 5 -125.5 8t-92.5 3q-51 0 -89.5 -0.5t-68 -1.5t-52 -2.5t-40.5 -2.5q-8 0 -15.5 -0.5t-15.5 -0.5h-1h-17t-42 -1.5t-54.5 -4.5t-55.5 -10q-9 -2 -18 1.5t-12 11.5zM387 230q2 37 21 75.5t52 74.5 q31 34 68 58.5t74 35.5q50 15 99 7.5t94 -36.5q51 -33 84 -88.5t41 -118.5q6 -60 -15.5 -104t-58.5 -76.5t-84 -56.5t-92 -44q-19 -8 -35.5 -15.5t-32.5 -15.5q-39 -20 -76 -49t-62 -58q-18 -22 -32 -48t-10 -43q1 -4 4 -8.5t13 -8.5q29 -13 66.5 -13t73.5 2q11 0 20.5 0.5 t19.5 0.5q19 1 36.5 1h34.5q34 0 67 1t66 2.5t67.5 4.5t72.5 8q8 1 13 -3.5t7 -11.5q1 -8 -3.5 -13.5t-11.5 -6.5q-39 -5 -74.5 -8t-69 -4.5t-66.5 -2.5t-68 -1h-34.5t-35.5 -1h-19.5t-20.5 -1q-14 -1 -28 -1.5t-28 -0.5q-26 0 -51 3t-48 13q-19 8 -27 19.5t-10 21.5 q-6 30 14 69q9 17 19.5 31l16.5 22q27 32 66.5 62.5t81.5 52.5q16 8 33.5 16t35.5 16q45 20 88.5 42t77.5 51q38 32 53.5 69t10.5 83q-6 55 -35 104t-74 78q-13 9 -30 17t-38 12.5t-45 4t-51 -8.5q-32 -10 -65 -32t-61 -53q-29 -31 -46 -64.5t-19 -63.5q0 -8 -5.5 -12.5 t-12.5 -4.5q-8 1 -12.5 6.5t-3.5 12.5zM422 942q5 17 21 13q20 -5 40 -4.5t41 2.5q14 1 28 1.5t28 -0.5h2q20 -1 39.5 -2t39.5 -1q4 14 3.5 28.5t-2.5 31.5q-1 8 -2 17.5t-1 17.5q0 62 -3 122v2q-2 55 -2 116t1.5 123.5t4 123.5t7.5 116q-8 -7 -16.5 -13t-14.5 -11 q-17 -11 -38.5 -25.5t-43.5 -30.5q-22 -15 -42.5 -29.5t-37.5 -25.5q-6 -4 -13 -2.5t-11 7.5t-2.5 13t7.5 11q17 11 37.5 25t41.5 29q23 16 44.5 31.5t38.5 26.5q6 3 14 9.5t17 14t16.5 14t11.5 10.5q10 8 20 2q11 -5 9 -17q-5 -56 -9 -121t-5.5 -133t-1.5 -135.5t2 -127.5 v-2q1 -30 2 -60.5t1 -62.5q0 -14 3 -32q2 -15 2.5 -31t-2.5 -31q16 0 31.5 0.5t30.5 1.5q15 0 29.5 0.5t29.5 0.5q9 1 30.5 1t42.5 -1h39q7 0 12 -4.5t5 -12.5t-5 -12.5t-12 -5.5q-6 0 -16 0.5t-23 0.5h-72q-14 -1 -29 -1.5t-29 -0.5q-23 -1 -46.5 -2t-47.5 -1q-22 0 -44 1 t-43 2h-2q-13 1 -25.5 0.5t-26.5 -1.5q-10 -1 -20 -1.5t-21 -0.5q-22 0 -50 5q-7 2 -11 8t-2 13z" />
<glyph unicode="&#xbe;" horiz-adv-x="1333" d="M155 647q-3 8 2 15t14 9q28 7 58 10.5t56.5 5t45 1.5t23.5 -1q6 2 13.5 2t14.5 1q19 1 41.5 2t52.5 2t69.5 2t90.5 1q38 0 94 -3t128 -8q83 -4 134.5 -6.5t86.5 -2.5h14.5t30.5 -1.5t37.5 -4.5t35.5 -9q9 -2 12.5 -9.5t-0.5 -15.5q-6 -12 -22 -12q-3 0 -5 0.5t-4 1.5 q-11 4 -25 6t-28.5 3t-27 1.5t-18.5 0.5q-35 0 -88 2.5t-136 6.5h-1q-71 5 -125.5 8t-92.5 3q-51 0 -89.5 -0.5t-68 -1.5t-52 -2.5t-40.5 -2.5q-8 0 -15.5 -0.5t-15.5 -0.5h-1h-17t-42 -1.5t-54.5 -4.5t-55.5 -10q-9 -2 -18 1.5t-12 11.5zM289 -60q20 42 48 79t57 72 q7 9 14.5 18t14.5 18q14 17 27 34t27 34q39 51 79.5 101.5t84.5 98.5q17 18 33 33.5t32 29.5q2 2 4.5 3.5t4.5 3.5q13 13 30.5 25.5t38.5 9.5q7 -1 11 -6t4 -11q0 -19 -3 -36.5t-7 -34.5t-7 -34t-3 -36q-1 -29 1 -58t4 -55q2 -23 3 -43t0 -36q-1 -24 -2 -41.5t-2 -30.5 q-2 -23 -2.5 -43t2.5 -56q1 -5 1 -10t1 -10q106 0 187 -9q8 -1 12.5 -6.5t3.5 -12.5q-1 -8 -6.5 -12.5t-13.5 -3.5q-77 9 -180 9q1 -5 1 -10t1 -10q6 -57 9.5 -114t-4.5 -115q-1 -7 -6 -11t-11 -4h-2q-8 1 -12.5 6.5t-2.5 12.5q7 56 3.5 111.5t-9.5 110.5q0 5 -0.5 11 t-1.5 12q-21 0 -43 -0.5t-46 -1.5q-11 -1 -23 -1h-26q-38 0 -69 -0.5t-63 -2.5q-20 -1 -41.5 -1.5t-45.5 -0.5q-2 0 -4.5 -0.5t-5.5 -0.5q-31 -2 -53 -2.5t-33 3.5q-8 2 -11 9t0 15zM332 -53q19 0 51 3h12q24 1 45 1.5t41 1.5l64 2t70 1h25t23 1q23 1 44.5 1t42.5 1 q-1 5 -1 8.5t-1 8.5q-3 38 -2.5 59.5t2.5 44.5q2 14 2.5 30.5t1.5 40.5q1 14 0 33t-3 42q-2 27 -4 57t-1 59q0 22 3.5 40.5t7.5 36.5q2 11 4 21l4 20q-7 -4 -13.5 -9.5t-11.5 -10.5q-6 -6 -9 -8q-15 -14 -30 -29l-32 -32q-43 -47 -83.5 -97t-79.5 -100q-13 -17 -26.5 -34.5 t-27.5 -34.5q-7 -9 -14.5 -18.5t-15.5 -17.5q-23 -29 -46.5 -59t-41.5 -63zM419.5 921.5q-2.5 6.5 1.5 13.5q3 6 9.5 8.5t13.5 -0.5q26 -13 51.5 -21.5t51.5 -13.5q39 -7 78 -6t74 11q39 10 71.5 29t58.5 46q29 32 39.5 77.5t-1.5 93.5q-6 23 -16.5 42t-26.5 33 q-16 15 -38 29t-38 16q-17 2 -35.5 4t-36 3t-32 2t-23.5 1q-11 0 -12 1q-7 1 -11 6.5t-3 12.5t6 11t11 4h9q7 0 22.5 1t44.5 6q6 0 16 2q23 3 43 6.5t42 14.5q20 10 32 23t19 27.5t9.5 28t3.5 24.5q2 47 -20.5 90t-60.5 65q-32 19 -70 28t-77.5 8t-77 -11.5t-68.5 -31.5 q-6 -5 -13 -3t-11 8q-5 6 -3.5 12.5t7.5 11.5q35 23 76.5 35.5t87.5 13.5q45 2 88.5 -9t78.5 -32q22 -14 40.5 -34.5t31.5 -45t19.5 -52t5.5 -55.5q-2 -45 -23.5 -79t-59.5 -53q-9 -5 -18 -8t-17 -6q23 -8 44.5 -23t34.5 -26q19 -17 32.5 -40.5t20.5 -52.5q14 -56 1 -110 t-48 -92q-59 -63 -146 -86q-44 -12 -94 -12q-18 0 -36.5 2t-36.5 5q-29 5 -57 14t-55 23q-7 4 -9.5 10.5z" />
<glyph unicode="&#xbf;" horiz-adv-x="1073" d="M83 406q9 58 32 106.5t53.5 88.5t66 73t69.5 60q16 13 32.5 25.5t33.5 24.5q42 32 83 65t77.5 68.5t65.5 75t46 84.5q3 4 7 7t10 3q2 0 3 -1t3 -1q8 -2 10 -8.5t0 -13.5q-20 -48 -50.5 -89.5t-68.5 -78.5t-80.5 -71.5t-85.5 -67.5q-17 -11 -33.5 -23.5t-31.5 -26.5 q-32 -25 -65.5 -55.5t-62 -68t-50 -82.5t-30.5 -99q-8 -53 3 -95t36.5 -78t62.5 -69.5t80 -69.5l5 -5q85 -69 176.5 -95.5t178.5 -5.5q29 7 59.5 21.5t59.5 32.5t55 37.5t45.5 35.5t31 26.5t12.5 10.5q12 9 24 -1q5 -5 5 -12t-5 -12q-3 -2 -29.5 -25t-66 -52.5t-88 -57 t-94.5 -39.5q-96 -22 -195.5 6.5t-190.5 103.5l-5 4q-42 35 -81.5 70.5t-67.5 76t-41.5 89t-3.5 108.5zM668 1332q-2 23 2.5 41.5t4.5 19.5q2 3 3 5t4 4q2 2 8 4.5t12 2.5q12 0 21 -12q3 -5 3.5 -16t-1 -23.5t-4 -23.5t-5.5 -16q-5 -9 -10.5 -11.5t-10.5 -2.5q-13 0 -18.5 9 t-6.5 13q-2 2 -2 6z" />
<glyph unicode="&#xc0;" horiz-adv-x="1498" d="M141.5 11.5q-2.5 7.5 1.5 13.5q22 42 44.5 86.5t43.5 88t40.5 84t35.5 75.5q14 27 26 50t23 45q-5 2 -9 4t-6 8q-3 7 1 13.5t10 7.5q5 3 12 4t13 3q30 58 59.5 113t61.5 109q31 55 63.5 111t65.5 118q23 44 57.5 98t69.5 104q17 26 32.5 50.5t29.5 46.5q8 11 15 23t15 25 q28 45 56 89.5t65 90.5q3 5 8.5 6.5t10.5 0.5q12 -5 12 -18q0 -21 4.5 -42t10.5 -42q3 -16 6.5 -29.5t5.5 -28.5q18 -123 37.5 -233.5t42 -220t48.5 -223.5t59 -242q15 -60 30.5 -115t32.5 -109q5 -18 11 -44.5t11 -53.5t7.5 -51.5t1.5 -38.5q0 -17 -15 -17h-2 q-7 0 -11.5 5.5t-2.5 13.5q0 12 -3 35t-8 48.5t-11 51t-12 42.5q-16 54 -32 109t-32 116q-11 51 -22.5 99t-22.5 96q-90 -23 -180 -35.5t-181 -22.5q-94 -11 -186.5 -25.5t-183.5 -40.5q-32 -53 -62 -117q-17 -36 -37 -77.5t-41 -85t-43.5 -88t-43.5 -86.5q-3 -6 -10.5 -8.5 t-14.5 0.5q-5 3 -7.5 10.5zM421 504q85 22 172 35.5t173 23.5q91 11 179.5 22.5t176.5 34.5q-21 89 -39 173t-33.5 168t-30 170.5t-28.5 180.5q-2 14 -5 28.5t-7 28.5q-3 11 -6 23t-5 22q-26 -35 -49 -70t-43 -70q-8 -13 -15.5 -25t-16.5 -25q-13 -20 -28.5 -44.5 t-33.5 -50.5q-34 -51 -68.5 -103.5t-56.5 -96.5q-33 -63 -65 -118.5t-63 -109.5q-28 -49 -55 -97.5t-53 -99.5zM700.5 2073.5q3.5 10.5 23.5 4.5q83 -40 171 -168q126 -166 140 -231q4 -18 -7 -22t-19 9q-5 9 -31 50l-100 149q-53 73 -112 132q-53 46 -64 59q-5 7 -1.5 17.5 z" />
<glyph unicode="&#xc1;" horiz-adv-x="1498" d="M141.5 11.5q-2.5 7.5 1.5 13.5q22 42 44.5 86.5t43.5 88t40.5 84t35.5 75.5q14 27 26 50t23 45q-5 2 -9 4t-6 8q-3 7 1 13.5t10 7.5q5 3 12 4t13 3q30 58 59.5 113t61.5 109q31 55 63.5 111t65.5 118q23 44 57.5 98t69.5 104q17 26 32.5 50.5t29.5 46.5q8 11 15 23t15 25 q28 45 56 89.5t65 90.5q3 5 8.5 6.5t10.5 0.5q12 -5 12 -18q0 -21 4.5 -42t10.5 -42q3 -16 6.5 -29.5t5.5 -28.5q18 -123 37.5 -233.5t42 -220t48.5 -223.5t59 -242q15 -60 30.5 -115t32.5 -109q5 -18 11 -44.5t11 -53.5t7.5 -51.5t1.5 -38.5q0 -17 -15 -17h-2 q-7 0 -11.5 5.5t-2.5 13.5q0 12 -3 35t-8 48.5t-11 51t-12 42.5q-16 54 -32 109t-32 116q-11 51 -22.5 99t-22.5 96q-90 -23 -180 -35.5t-181 -22.5q-94 -11 -186.5 -25.5t-183.5 -40.5q-32 -53 -62 -117q-17 -36 -37 -77.5t-41 -85t-43.5 -88t-43.5 -86.5q-3 -6 -10.5 -8.5 t-14.5 0.5q-5 3 -7.5 10.5zM421 504q85 22 172 35.5t173 23.5q91 11 179.5 22.5t176.5 34.5q-21 89 -39 173t-33.5 168t-30 170.5t-28.5 180.5q-2 14 -5 28.5t-7 28.5q-3 11 -6 23t-5 22q-26 -35 -49 -70t-43 -70q-8 -13 -15.5 -25t-16.5 -25q-13 -20 -28.5 -44.5 t-33.5 -50.5q-34 -51 -68.5 -103.5t-56.5 -96.5q-33 -63 -65 -118.5t-63 -109.5q-28 -49 -55 -97.5t-53 -99.5zM896 1657q4 19 148 251q97 139 171 183q22 6 26 -5t-2 -19q-12 -14 -59 -60q-70 -68 -119 -148l-99 -166q-29 -44 -40 -56q-12 -10 -22.5 -2.5t-3.5 22.5z" />
<glyph unicode="&#xc2;" horiz-adv-x="1498" d="M141.5 11.5q-2.5 7.5 1.5 13.5q22 42 44.5 86.5t43.5 88t40.5 84t35.5 75.5q14 27 26 50t23 45q-5 2 -9 4t-6 8q-3 7 1 13.5t10 7.5q5 3 12 4t13 3q30 58 59.5 113t61.5 109q31 55 63.5 111t65.5 118q23 44 57.5 98t69.5 104q17 26 32.5 50.5t29.5 46.5q8 11 15 23t15 25 q28 45 56 89.5t65 90.5q3 5 8.5 6.5t10.5 0.5q12 -5 12 -18q0 -21 4.5 -42t10.5 -42q3 -16 6.5 -29.5t5.5 -28.5q18 -123 37.5 -233.5t42 -220t48.5 -223.5t59 -242q15 -60 30.5 -115t32.5 -109q5 -18 11 -44.5t11 -53.5t7.5 -51.5t1.5 -38.5q0 -17 -15 -17h-2 q-7 0 -11.5 5.5t-2.5 13.5q0 12 -3 35t-8 48.5t-11 51t-12 42.5q-16 54 -32 109t-32 116q-11 51 -22.5 99t-22.5 96q-90 -23 -180 -35.5t-181 -22.5q-94 -11 -186.5 -25.5t-183.5 -40.5q-32 -53 -62 -117q-17 -36 -37 -77.5t-41 -85t-43.5 -88t-43.5 -86.5q-3 -6 -10.5 -8.5 t-14.5 0.5q-5 3 -7.5 10.5zM421 504q85 22 172 35.5t173 23.5q91 11 179.5 22.5t176.5 34.5q-21 89 -39 173t-33.5 168t-30 170.5t-28.5 180.5q-2 14 -5 28.5t-7 28.5q-3 11 -6 23t-5 22q-26 -35 -49 -70t-43 -70q-8 -13 -15.5 -25t-16.5 -25q-13 -20 -28.5 -44.5 t-33.5 -50.5q-34 -51 -68.5 -103.5t-56.5 -96.5q-33 -63 -65 -118.5t-63 -109.5q-28 -49 -55 -97.5t-53 -99.5zM528.5 1623.5q1.5 7.5 7.5 12.5q60 57 107.5 114t90 114t84 112.5t89.5 108.5q12 11 33.5 -2.5t45.5 -42.5q22 -27 36 -43.5t26.5 -31t27.5 -30t39 -40.5 q22 -23 50 -51.5t57.5 -58t57.5 -59t49 -53.5q4 -6 3.5 -14t-5.5 -13t-13 -4t-12 6q-21 24 -48.5 53.5t-57 59.5t-57.5 58l-51 51q-24 25 -39 41.5t-27.5 30.5t-26.5 31t-36 44q-23 25 -30.5 29.5t-8.5 4.5t-3.5 -3t-4.5 -6l-4 -6q-2 -2 -3.5 -4t-1.5 -3q-39 -58 -76 -111.5 t-77 -105.5t-86.5 -103t-106.5 -103q-2 -2 -5 -3t-5 -1q-8 0 -15 9q-5 5 -3.5 12.5z" />
<glyph unicode="&#xc3;" horiz-adv-x="1498" d="M141.5 11.5q-2.5 7.5 1.5 13.5q22 42 44.5 86.5t43.5 88t40.5 84t35.5 75.5q14 27 26 50t23 45q-5 2 -9 4t-6 8q-3 7 1 13.5t10 7.5q5 3 12 4t13 3q30 58 59.5 113t61.5 109q31 55 63.5 111t65.5 118q23 44 57.5 98t69.5 104q17 26 32.5 50.5t29.5 46.5q8 11 15 23t15 25 q28 45 56 89.5t65 90.5q3 5 8.5 6.5t10.5 0.5q12 -5 12 -18q0 -21 4.5 -42t10.5 -42q3 -16 6.5 -29.5t5.5 -28.5q18 -123 37.5 -233.5t42 -220t48.5 -223.5t59 -242q15 -60 30.5 -115t32.5 -109q5 -18 11 -44.5t11 -53.5t7.5 -51.5t1.5 -38.5q0 -17 -15 -17h-2 q-7 0 -11.5 5.5t-2.5 13.5q0 12 -3 35t-8 48.5t-11 51t-12 42.5q-16 54 -32 109t-32 116q-11 51 -22.5 99t-22.5 96q-90 -23 -180 -35.5t-181 -22.5q-94 -11 -186.5 -25.5t-183.5 -40.5q-32 -53 -62 -117q-17 -36 -37 -77.5t-41 -85t-43.5 -88t-43.5 -86.5q-3 -6 -10.5 -8.5 t-14.5 0.5q-5 3 -7.5 10.5zM421 504q85 22 172 35.5t173 23.5q91 11 179.5 22.5t176.5 34.5q-21 89 -39 173t-33.5 168t-30 170.5t-28.5 180.5q-2 14 -5 28.5t-7 28.5q-3 11 -6 23t-5 22q-26 -35 -49 -70t-43 -70q-8 -13 -15.5 -25t-16.5 -25q-13 -20 -28.5 -44.5 t-33.5 -50.5q-34 -51 -68.5 -103.5t-56.5 -96.5q-33 -63 -65 -118.5t-63 -109.5q-28 -49 -55 -97.5t-53 -99.5zM532.5 1707.5q-2.5 6.5 0.5 12.5q27 60 58 108.5t66 87.5q32 33 71 48.5t83 10.5q45 -5 83 -31.5t64 -68.5l3 -6q19 -31 38.5 -61t44 -53.5t54.5 -38t70 -14.5h6 q41 1 73 16t57 37.5t42.5 50.5t30 56.5t20 54.5t11.5 45q2 7 7.5 11t13.5 2q6 -1 10.5 -7t2.5 -13q-4 -21 -12.5 -50t-22.5 -60.5t-34.5 -62.5t-48.5 -56t-65 -41t-84 -17h-7q-47 0 -82.5 16.5t-63.5 43t-49.5 59t-40.5 64.5l-4 6q-22 35 -53.5 57t-67.5 27q-70 8 -123 -48 q-69 -75 -119 -187q-2 -6 -9 -8.5t-13 0.5q-8 3 -10.5 9.5z" />
<glyph unicode="&#xc4;" horiz-adv-x="1498" d="M141.5 11.5q-2.5 7.5 1.5 13.5q22 42 44.5 86.5t43.5 88t40.5 84t35.5 75.5q14 27 26 50t23 45q-5 2 -9 4t-6 8q-3 7 1 13.5t10 7.5q5 3 12 4t13 3q30 58 59.5 113t61.5 109q31 55 63.5 111t65.5 118q23 44 57.5 98t69.5 104q17 26 32.5 50.5t29.5 46.5q8 11 15 23t15 25 q28 45 56 89.5t65 90.5q3 5 8.5 6.5t10.5 0.5q12 -5 12 -18q0 -21 4.5 -42t10.5 -42q3 -16 6.5 -29.5t5.5 -28.5q18 -123 37.5 -233.5t42 -220t48.5 -223.5t59 -242q15 -60 30.5 -115t32.5 -109q5 -18 11 -44.5t11 -53.5t7.5 -51.5t1.5 -38.5q0 -17 -15 -17h-2 q-7 0 -11.5 5.5t-2.5 13.5q0 12 -3 35t-8 48.5t-11 51t-12 42.5q-16 54 -32 109t-32 116q-11 51 -22.5 99t-22.5 96q-90 -23 -180 -35.5t-181 -22.5q-94 -11 -186.5 -25.5t-183.5 -40.5q-32 -53 -62 -117q-17 -36 -37 -77.5t-41 -85t-43.5 -88t-43.5 -86.5q-3 -6 -10.5 -8.5 t-14.5 0.5q-5 3 -7.5 10.5zM421 504q85 22 172 35.5t173 23.5q91 11 179.5 22.5t176.5 34.5q-21 89 -39 173t-33.5 168t-30 170.5t-28.5 180.5q-2 14 -5 28.5t-7 28.5q-3 11 -6 23t-5 22q-26 -35 -49 -70t-43 -70q-8 -13 -15.5 -25t-16.5 -25q-13 -20 -28.5 -44.5 t-33.5 -50.5q-34 -51 -68.5 -103.5t-56.5 -96.5q-33 -63 -65 -118.5t-63 -109.5q-28 -49 -55 -97.5t-53 -99.5zM654 1735q0 15 20 30t38 15q70 0 70 -56q0 -16 -24 -30q-21 -14 -40 -14q-64 0 -64 55zM1230 1732q0 36 24 48q14 6 54 6q19 0 37 -16.5t18 -32.5q0 -49 -75 -49 q-21 0 -38 12q-20 12 -20 32z" />
<glyph unicode="&#xc5;" horiz-adv-x="1498" d="M141.5 11.5q-2.5 7.5 1.5 13.5q22 42 44.5 86.5t43.5 88t40.5 84t35.5 75.5q14 27 26 50t23 45q-5 2 -9 4t-6 8q-3 7 1 13.5t10 7.5q5 3 12 4t13 3q30 58 59.5 113t61.5 109q31 55 63.5 111t65.5 118q23 44 57.5 98t69.5 104q17 26 32.5 50.5t29.5 46.5q8 11 15 23t15 25 q28 45 56 89.5t65 90.5q3 5 8.5 6.5t10.5 0.5q12 -5 12 -18q0 -21 4.5 -42t10.5 -42q3 -16 6.5 -29.5t5.5 -28.5q18 -123 37.5 -233.5t42 -220t48.5 -223.5t59 -242q15 -60 30.5 -115t32.5 -109q5 -18 11 -44.5t11 -53.5t7.5 -51.5t1.5 -38.5q0 -17 -15 -17h-2 q-7 0 -11.5 5.5t-2.5 13.5q0 12 -3 35t-8 48.5t-11 51t-12 42.5q-16 54 -32 109t-32 116q-11 51 -22.5 99t-22.5 96q-90 -23 -180 -35.5t-181 -22.5q-94 -11 -186.5 -25.5t-183.5 -40.5q-32 -53 -62 -117q-17 -36 -37 -77.5t-41 -85t-43.5 -88t-43.5 -86.5q-3 -6 -10.5 -8.5 t-14.5 0.5q-5 3 -7.5 10.5zM421 504q85 22 172 35.5t173 23.5q91 11 179.5 22.5t176.5 34.5q-21 89 -39 173t-33.5 168t-30 170.5t-28.5 180.5q-2 14 -5 28.5t-7 28.5q-3 11 -6 23t-5 22q-26 -35 -49 -70t-43 -70q-8 -13 -15.5 -25t-16.5 -25q-13 -20 -28.5 -44.5 t-33.5 -50.5q-34 -51 -68.5 -103.5t-56.5 -96.5q-33 -63 -65 -118.5t-63 -109.5q-28 -49 -55 -97.5t-53 -99.5zM643 1724q5 56 30.5 104.5t67.5 80.5q26 20 56.5 33.5t61 22t60 13t53.5 6.5q29 3 66 -1.5t75 -16t73.5 -31t62.5 -47.5q29 -29 41.5 -62.5t12.5 -71.5 q-2 -55 -17 -103t-43 -86.5t-66.5 -66t-86.5 -40.5q-30 -8 -62.5 -11.5t-65.5 -3.5q-24 0 -55.5 3t-66 12.5t-68.5 27t-62 47.5q-36 38 -54 87.5t-13 103.5zM678 1722q-3 -46 12 -88.5t47 -74.5q35 -38 94 -59t131 -21q29 0 59.5 3.5t57.5 11.5q42 12 76.5 35.5t59 57.5 t38 76t15.5 91q0 62 -44 111q-22 22 -50.5 38t-59 26t-60.5 15t-55 5h-12t-11 -2q-23 -2 -50.5 -6t-56 -11.5t-56 -19.5t-51.5 -30q-36 -27 -57.5 -68.5t-26.5 -89.5z" />
<glyph unicode="&#xc6;" horiz-adv-x="2226" d="M23 70q12 15 30 40t38.5 55t41.5 62.5t40 62.5t35 55.5t25 41.5q29 46 74 111.5t101.5 144t122.5 165.5t137 175q38 49 76.5 96t77.5 95q45 56 85 100t79 84l16 16t15 16l45.5 45.5t47 42t51.5 36t60 28.5q23 8 39 4.5t26 -10.5q8 -6 14 -14.5t11 -18.5q57 16 115.5 30 t113 23.5t102.5 15.5t85 6h14q36 0 78.5 -2.5t87 -7.5t88.5 -12.5t82.5 -16.5t68.5 -20t46 -23q13 -10 4 -24q-5 -5 -12.5 -6.5t-12.5 3.5q-21 16 -72 29.5t-115.5 24t-132.5 16.5t-123 6q-35 -1 -82 -7t-100.5 -15.5t-111 -23t-113.5 -28.5q5 -27 7.5 -57t0.5 -60 q-2 -97 -6.5 -191t-9.5 -186q-2 -44 -3.5 -88t-4.5 -89q28 2 55 4l54 4l5 1q164 14 341.5 26.5t345.5 10.5q16 0 16 -16q0 -18 -16 -18q-167 2 -344 -10.5t-341 -27.5l-4 -1q-29 -2 -56.5 -3.5t-56.5 -3.5q-2 -66 -4.5 -133t-2.5 -135q-1 -120 4 -219t17 -189 q6 -55 33.5 -81t90.5 -34q129 -17 263.5 -10t268.5 20q28 3 55 5.5t55 5.5q7 1 12 -4t7 -13q0 -16 -17 -18q-26 -2 -53.5 -4.5t-55.5 -4.5q-88 -9 -175.5 -16t-175.5 -7q-49 0 -96 2.5t-93 10.5q-73 9 -109.5 43t-44.5 100q-11 92 -16 192t-4 221q0 68 2 134t5 132 q-35 -2 -71 -4.5t-71 -4.5q-32 -3 -63 -5t-63 -4t-63 -4.5t-63 -5.5q-41 -2 -81 -5.5t-80 -5.5q-32 -2 -67 -6q-31 -2 -64 -4.5t-60 -2.5h-11.5t-10.5 1q-78 -107 -140 -196.5t-99 -147.5q-10 -16 -26 -41.5t-35.5 -56t-41 -63t-42 -62.5t-38.5 -55.5t-30 -41.5 q-10 -13 -24 -3q-12 12 -3 24zM526 746q26 0 57.5 2.5t61.5 5.5q18 2 35.5 3t32.5 2q39 2 79 5t80 7q32 2 64 4.5t65 4.5q31 3 62.5 4.5t63.5 3.5q35 2 71.5 4.5t73.5 4.5q2 47 4 91.5t4 89.5q5 93 9.5 186.5t6.5 188.5q1 131 -30 155q-3 2 -10 5t-23 -3 q-59 -22 -103.5 -60.5t-87.5 -82.5q-8 -8 -15.5 -16.5t-16.5 -16.5q-38 -39 -77 -83t-84 -99q-40 -48 -78.5 -95t-76.5 -95q-44 -55 -86 -109t-82 -107z" />
<glyph unicode="&#xc7;" horiz-adv-x="1234" d="M97 577q5 53 18 106t31 107q30 82 77.5 166.5t120.5 181.5q41 54 87.5 108.5t101.5 100t119.5 79t141.5 46.5q58 10 117.5 10t110.5 -28q34 -18 66 -47.5t58 -70.5l-4 37q0 8 5 13.5t13 5.5q7 0 12 -4.5t5 -12.5l9 -114q0 -6 -3 -11t-10 -7q-6 -2 -11.5 1t-7.5 9 q-64 127 -149 172q-24 12 -49.5 17.5t-51.5 5.5t-53 -3t-52 -7q-72 -12 -133 -43.5t-113.5 -75.5t-97 -96.5t-83.5 -105.5q-71 -94 -117.5 -176.5t-75.5 -163.5q-36 -102 -48 -204q-23 -193 59 -330q25 -42 56 -80t62 -65q26 -20 59 -36.5t69 -27.5q260 -76 520 119 q17 13 45 37t55 48.5t47 42.5t21 19q4 5 11 4.5t13 -6.5q11 -12 -2 -25q-2 -2 -21.5 -20t-46.5 -42t-55 -48.5t-46 -38.5q-98 -73 -197 -110q-49 -17 -98 -27q8 -7 16 -13q24 -21 38 -44t19 -44.5t9 -60.5q3 -32 -5.5 -61.5t-26.5 -54t-43.5 -42.5t-55.5 -26 q-8 -3 -33.5 -6.5t-54 -5.5t-52.5 -3.5t-29 -1.5q-53 0 -105 6t-99 35q-11 7 -9.5 14t9.5 13q5 4 11.5 4.5t11.5 -4.5q24 -23 69 -31t95 -7t98.5 8t79.5 13q24 6 44.5 20.5t34.5 34t20.5 43.5t3.5 48q-5 36 -12 59t-17.5 39.5t-25.5 29.5t-35 28q-6 5 -16 3q-20 -2 -39 -2 q-39 0 -77.5 5.5t-78.5 18.5q-40 12 -76 29.5t-64 39.5q-34 29 -67.5 69.5t-60.5 86.5q-87 147 -62 350z" />
<glyph unicode="&#xc8;" horiz-adv-x="1279" d="M173 339q-3 57 0 114t6 113q3 26 4 51.5t3 54.5q0 17 1 35t3 38q-7 0 -12 3.5t-5 10.5q-2 7 2 13t11 6q4 0 6 1q2 29 3.5 59.5t4.5 59.5q4 72 9 143t7 143q0 50 -2 104t-7 102.5t-13 88t-19 60.5q-3 8 -0.5 14.5t8.5 9.5q14 8 24 -8q2 -3 2 -8t2 -8q18 9 59 16t102 12.5 t139 10t170 9.5l33 2q152 11 275.5 -8t208.5 -64q6 -2 8.5 -10t-0.5 -15q-5 -8 -17 -8h-4t-4 2q-81 42 -200 59.5t-265 9.5l-34 -2q-40 -3 -87.5 -5.5t-95.5 -5.5t-94 -6.5t-83 -8t-63 -9.5t-34 -11h-2q8 -32 13.5 -72t8.5 -83t4 -86t0 -82q-1 -73 -5 -145.5t-10 -144.5 q0 -26 -1 -54t-3 -57q39 4 108 11t153 14t176.5 14.5t179 13.5t160 9t119.5 2q8 0 13 -4.5t5 -12.5q0 -7 -5 -13t-13 -6h-15q-51 0 -126 -3.5t-161.5 -9.5t-177.5 -13t-172.5 -14t-147 -13t-101.5 -10q0 -20 -1 -39.5t-3 -38.5q-2 -28 -3 -54.5t-2 -53.5q-5 -54 -7.5 -110.5 t0.5 -110.5v-24t2 -28q1 -35 3 -73.5t8 -76t17.5 -71t30.5 -58.5q16 -19 63.5 -32.5t113 -22t142 -11.5t151.5 0q89 2 175.5 12.5t183.5 23.5q8 2 13.5 -1.5t5.5 -10.5q2 -8 -2 -14.5t-13 -7.5q-97 -14 -185 -24.5t-176 -13.5h-54q-29 0 -69 1t-85 3.5t-90.5 8t-85 14.5 t-70 22t-44.5 31q-23 28 -36 65t-20 76.5t-9.5 80.5t-3.5 79v27t-2 23zM556.5 2182.5q3.5 10.5 23.5 4.5q83 -40 171 -168q126 -166 140 -231q4 -18 -7 -22t-19 9q-5 9 -31 50l-100 149q-53 73 -112 132q-53 46 -64 59q-5 7 -1.5 17.5z" />
<glyph unicode="&#xc9;" horiz-adv-x="1279" d="M173 339q-3 57 0 114t6 113q3 26 4 51.5t3 54.5q0 17 1 35t3 38q-7 0 -12 3.5t-5 10.5q-2 7 2 13t11 6q4 0 6 1q2 29 3.5 59.5t4.5 59.5q4 72 9 143t7 143q0 50 -2 104t-7 102.5t-13 88t-19 60.5q-3 8 -0.5 14.5t8.5 9.5q14 8 24 -8q2 -3 2 -8t2 -8q18 9 59 16t102 12.5 t139 10t170 9.5l33 2q152 11 275.5 -8t208.5 -64q6 -2 8.5 -10t-0.5 -15q-5 -8 -17 -8h-4t-4 2q-81 42 -200 59.5t-265 9.5l-34 -2q-40 -3 -87.5 -5.5t-95.5 -5.5t-94 -6.5t-83 -8t-63 -9.5t-34 -11h-2q8 -32 13.5 -72t8.5 -83t4 -86t0 -82q-1 -73 -5 -145.5t-10 -144.5 q0 -26 -1 -54t-3 -57q39 4 108 11t153 14t176.5 14.5t179 13.5t160 9t119.5 2q8 0 13 -4.5t5 -12.5q0 -7 -5 -13t-13 -6h-15q-51 0 -126 -3.5t-161.5 -9.5t-177.5 -13t-172.5 -14t-147 -13t-101.5 -10q0 -20 -1 -39.5t-3 -38.5q-2 -28 -3 -54.5t-2 -53.5q-5 -54 -7.5 -110.5 t0.5 -110.5v-24t2 -28q1 -35 3 -73.5t8 -76t17.5 -71t30.5 -58.5q16 -19 63.5 -32.5t113 -22t142 -11.5t151.5 0q89 2 175.5 12.5t183.5 23.5q8 2 13.5 -1.5t5.5 -10.5q2 -8 -2 -14.5t-13 -7.5q-97 -14 -185 -24.5t-176 -13.5h-54q-29 0 -69 1t-85 3.5t-90.5 8t-85 14.5 t-70 22t-44.5 31q-23 28 -36 65t-20 76.5t-9.5 80.5t-3.5 79v27t-2 23zM712 1791q4 19 148 251q97 139 171 183q22 6 26 -5t-2 -19q-12 -14 -59 -60q-70 -68 -119 -148l-99 -166q-29 -44 -40 -56q-12 -10 -22.5 -2.5t-3.5 22.5z" />
<glyph unicode="&#xca;" horiz-adv-x="1279" d="M173 339q-3 57 0 114t6 113q3 26 4 51.5t3 54.5q0 17 1 35t3 38q-7 0 -12 3.5t-5 10.5q-2 7 2 13t11 6q4 0 6 1q2 29 3.5 59.5t4.5 59.5q4 72 9 143t7 143q0 50 -2 104t-7 102.5t-13 88t-19 60.5q-3 8 -0.5 14.5t8.5 9.5q14 8 24 -8q2 -3 2 -8t2 -8q18 9 59 16t102 12.5 t139 10t170 9.5l33 2q152 11 275.5 -8t208.5 -64q6 -2 8.5 -10t-0.5 -15q-5 -8 -17 -8h-4t-4 2q-81 42 -200 59.5t-265 9.5l-34 -2q-40 -3 -87.5 -5.5t-95.5 -5.5t-94 -6.5t-83 -8t-63 -9.5t-34 -11h-2q8 -32 13.5 -72t8.5 -83t4 -86t0 -82q-1 -73 -5 -145.5t-10 -144.5 q0 -26 -1 -54t-3 -57q39 4 108 11t153 14t176.5 14.5t179 13.5t160 9t119.5 2q8 0 13 -4.5t5 -12.5q0 -7 -5 -13t-13 -6h-15q-51 0 -126 -3.5t-161.5 -9.5t-177.5 -13t-172.5 -14t-147 -13t-101.5 -10q0 -20 -1 -39.5t-3 -38.5q-2 -28 -3 -54.5t-2 -53.5q-5 -54 -7.5 -110.5 t0.5 -110.5v-24t2 -28q1 -35 3 -73.5t8 -76t17.5 -71t30.5 -58.5q16 -19 63.5 -32.5t113 -22t142 -11.5t151.5 0q89 2 175.5 12.5t183.5 23.5q8 2 13.5 -1.5t5.5 -10.5q2 -8 -2 -14.5t-13 -7.5q-97 -14 -185 -24.5t-176 -13.5h-54q-29 0 -69 1t-85 3.5t-90.5 8t-85 14.5 t-70 22t-44.5 31q-23 28 -36 65t-20 76.5t-9.5 80.5t-3.5 79v27t-2 23zM366.5 1790.5q1.5 7.5 7.5 12.5q60 57 107.5 114t90 114t84 112.5t89.5 108.5q12 11 33.5 -2.5t45.5 -42.5q22 -27 36 -43.5t26.5 -31t27.5 -30t39 -40.5q22 -23 50 -51.5t57.5 -58t57.5 -59t49 -53.5 q4 -6 3.5 -14t-5.5 -13t-13 -4t-12 6q-21 24 -48.5 53.5t-57 59.5t-57.5 58l-51 51q-24 25 -39 41.5t-27.5 30.5t-26.5 31t-36 44q-23 25 -30.5 29.5t-8.5 4.5t-3.5 -3t-4.5 -6l-4 -6q-2 -2 -3.5 -4t-1.5 -3q-39 -58 -76 -111.5t-77 -105.5t-86.5 -103t-106.5 -103 q-2 -2 -5 -3t-5 -1q-8 0 -15 9q-5 5 -3.5 12.5z" />
<glyph unicode="&#xcb;" horiz-adv-x="1279" d="M173 339q-3 57 0 114t6 113q3 26 4 51.5t3 54.5q0 17 1 35t3 38q-7 0 -12 3.5t-5 10.5q-2 7 2 13t11 6q4 0 6 1q2 29 3.5 59.5t4.5 59.5q4 72 9 143t7 143q0 50 -2 104t-7 102.5t-13 88t-19 60.5q-3 8 -0.5 14.5t8.5 9.5q14 8 24 -8q2 -3 2 -8t2 -8q18 9 59 16t102 12.5 t139 10t170 9.5l33 2q152 11 275.5 -8t208.5 -64q6 -2 8.5 -10t-0.5 -15q-5 -8 -17 -8h-4t-4 2q-81 42 -200 59.5t-265 9.5l-34 -2q-40 -3 -87.5 -5.5t-95.5 -5.5t-94 -6.5t-83 -8t-63 -9.5t-34 -11h-2q8 -32 13.5 -72t8.5 -83t4 -86t0 -82q-1 -73 -5 -145.5t-10 -144.5 q0 -26 -1 -54t-3 -57q39 4 108 11t153 14t176.5 14.5t179 13.5t160 9t119.5 2q8 0 13 -4.5t5 -12.5q0 -7 -5 -13t-13 -6h-15q-51 0 -126 -3.5t-161.5 -9.5t-177.5 -13t-172.5 -14t-147 -13t-101.5 -10q0 -20 -1 -39.5t-3 -38.5q-2 -28 -3 -54.5t-2 -53.5q-5 -54 -7.5 -110.5 t0.5 -110.5v-24t2 -28q1 -35 3 -73.5t8 -76t17.5 -71t30.5 -58.5q16 -19 63.5 -32.5t113 -22t142 -11.5t151.5 0q89 2 175.5 12.5t183.5 23.5q8 2 13.5 -1.5t5.5 -10.5q2 -8 -2 -14.5t-13 -7.5q-97 -14 -185 -24.5t-176 -13.5h-54q-29 0 -69 1t-85 3.5t-90.5 8t-85 14.5 t-70 22t-44.5 31q-23 28 -36 65t-20 76.5t-9.5 80.5t-3.5 79v27t-2 23zM394 1853q0 15 20 30t38 15q70 0 70 -56q0 -16 -24 -30q-21 -14 -40 -14q-64 0 -64 55zM970 1850q0 36 24 48q14 6 54 6q19 0 37 -16.5t18 -32.5q0 -49 -75 -49q-21 0 -38 12q-20 12 -20 32z" />
<glyph unicode="&#xcc;" horiz-adv-x="1119" d="M81 1432q0 8 4.5 14t12.5 6q3 0 25.5 2.5t59 5t82.5 6t96.5 5t101.5 2t96 -2.5l1 1v1l2 -2h16t15 -2q28 -3 71 -7t92.5 -9.5t100.5 -11.5t95 -12.5t76 -13t43 -11.5q6 -3 8.5 -10t-0.5 -13q-2 -5 -7 -8t-10 -3q-2 0 -4 1t-4 1q-10 5 -56 13t-112 17t-144 17.5t-152 14.5 h-8t-8 2q-13 -92 -21.5 -176.5t-13 -168t-6 -167.5t-0.5 -174q1 -68 4 -134t7 -131q5 -103 8 -208t-4 -214h9q25 2 53 2.5t60 2.5q53 2 108 4t103.5 2t87.5 -2.5t60 -8.5q6 -2 9.5 -9t1.5 -14t-8.5 -10.5t-13.5 -1.5q-18 6 -57 8.5t-87.5 2t-101.5 -2.5t-100 -4 q-32 -2 -61 -3t-52 -1q-31 -1 -75 -5.5t-92 -11.5t-95 -14.5t-85 -14t-61.5 -11t-24.5 -4.5h-2q-6 0 -11 4t-6 10q-2 8 2.5 14t11.5 8q3 0 23 3.5t52 9t72 12t83 13t85 11.5t78 8q7 109 4 214t-9 208q-3 66 -6 132.5t-5 135.5q0 90 1.5 174.5t6 167.5t12.5 168t21 177 q-45 2 -94.5 1.5t-98 -2.5t-92.5 -5.5t-78 -6t-54 -4.5t-21 -2q-18 0 -20 15zM355.5 2113.5q3.5 10.5 23.5 4.5q83 -40 171 -168q126 -166 140 -231q4 -18 -7 -22t-19 9q-5 9 -31 50l-100 149q-53 73 -112 132q-53 46 -64 59q-5 7 -1.5 17.5z" />
<glyph unicode="&#xcd;" horiz-adv-x="1119" d="M81 1432q0 8 4.5 14t12.5 6q3 0 25.5 2.5t59 5t82.5 6t96.5 5t101.5 2t96 -2.5l1 1v1l2 -2h16t15 -2q28 -3 71 -7t92.5 -9.5t100.5 -11.5t95 -12.5t76 -13t43 -11.5q6 -3 8.5 -10t-0.5 -13q-2 -5 -7 -8t-10 -3q-2 0 -4 1t-4 1q-10 5 -56 13t-112 17t-144 17.5t-152 14.5 h-8t-8 2q-13 -92 -21.5 -176.5t-13 -168t-6 -167.5t-0.5 -174q1 -68 4 -134t7 -131q5 -103 8 -208t-4 -214h9q25 2 53 2.5t60 2.5q53 2 108 4t103.5 2t87.5 -2.5t60 -8.5q6 -2 9.5 -9t1.5 -14t-8.5 -10.5t-13.5 -1.5q-18 6 -57 8.5t-87.5 2t-101.5 -2.5t-100 -4 q-32 -2 -61 -3t-52 -1q-31 -1 -75 -5.5t-92 -11.5t-95 -14.5t-85 -14t-61.5 -11t-24.5 -4.5h-2q-6 0 -11 4t-6 10q-2 8 2.5 14t11.5 8q3 0 23 3.5t52 9t72 12t83 13t85 11.5t78 8q7 109 4 214t-9 208q-3 66 -6 132.5t-5 135.5q0 90 1.5 174.5t6 167.5t12.5 168t21 177 q-45 2 -94.5 1.5t-98 -2.5t-92.5 -5.5t-78 -6t-54 -4.5t-21 -2q-18 0 -20 15zM489 1684q4 19 148 251q97 139 171 183q22 6 26 -5t-2 -19q-12 -14 -59 -60q-70 -68 -119 -148l-99 -166q-29 -44 -40 -56q-12 -10 -22.5 -2.5t-3.5 22.5z" />
<glyph unicode="&#xce;" horiz-adv-x="1119" d="M81 1432q0 8 4.5 14t12.5 6q3 0 25.5 2.5t59 5t82.5 6t96.5 5t101.5 2t96 -2.5l1 1v1l2 -2h16t15 -2q28 -3 71 -7t92.5 -9.5t100.5 -11.5t95 -12.5t76 -13t43 -11.5q6 -3 8.5 -10t-0.5 -13q-2 -5 -7 -8t-10 -3q-2 0 -4 1t-4 1q-10 5 -56 13t-112 17t-144 17.5t-152 14.5 h-8t-8 2q-13 -92 -21.5 -176.5t-13 -168t-6 -167.5t-0.5 -174q1 -68 4 -134t7 -131q5 -103 8 -208t-4 -214h9q25 2 53 2.5t60 2.5q53 2 108 4t103.5 2t87.5 -2.5t60 -8.5q6 -2 9.5 -9t1.5 -14t-8.5 -10.5t-13.5 -1.5q-18 6 -57 8.5t-87.5 2t-101.5 -2.5t-100 -4 q-32 -2 -61 -3t-52 -1q-31 -1 -75 -5.5t-92 -11.5t-95 -14.5t-85 -14t-61.5 -11t-24.5 -4.5h-2q-6 0 -11 4t-6 10q-2 8 2.5 14t11.5 8q3 0 23 3.5t52 9t72 12t83 13t85 11.5t78 8q7 109 4 214t-9 208q-3 66 -6 132.5t-5 135.5q0 90 1.5 174.5t6 167.5t12.5 168t21 177 q-45 2 -94.5 1.5t-98 -2.5t-92.5 -5.5t-78 -6t-54 -4.5t-21 -2q-18 0 -20 15zM191.5 1710.5q1.5 7.5 7.5 12.5q60 57 107.5 114t90 114t84 112.5t89.5 108.5q12 11 33.5 -2.5t45.5 -42.5q22 -27 36 -43.5t26.5 -31t27.5 -30t39 -40.5q22 -23 50 -51.5t57.5 -58t57.5 -59 t49 -53.5q4 -6 3.5 -14t-5.5 -13t-13 -4t-12 6q-21 24 -48.5 53.5t-57 59.5t-57.5 58l-51 51q-24 25 -39 41.5t-27.5 30.5t-26.5 31t-36 44q-23 25 -30.5 29.5t-8.5 4.5t-3.5 -3t-4.5 -6l-4 -6q-2 -2 -3.5 -4t-1.5 -3q-39 -58 -76 -111.5t-77 -105.5t-86.5 -103t-106.5 -103 q-2 -2 -5 -3t-5 -1q-8 0 -15 9q-5 5 -3.5 12.5z" />
<glyph unicode="&#xcf;" horiz-adv-x="1119" d="M81 1432q0 8 4.5 14t12.5 6q3 0 25.5 2.5t59 5t82.5 6t96.5 5t101.5 2t96 -2.5l1 1v1l2 -2h16t15 -2q28 -3 71 -7t92.5 -9.5t100.5 -11.5t95 -12.5t76 -13t43 -11.5q6 -3 8.5 -10t-0.5 -13q-2 -5 -7 -8t-10 -3q-2 0 -4 1t-4 1q-10 5 -56 13t-112 17t-144 17.5t-152 14.5 h-8t-8 2q-13 -92 -21.5 -176.5t-13 -168t-6 -167.5t-0.5 -174q1 -68 4 -134t7 -131q5 -103 8 -208t-4 -214h9q25 2 53 2.5t60 2.5q53 2 108 4t103.5 2t87.5 -2.5t60 -8.5q6 -2 9.5 -9t1.5 -14t-8.5 -10.5t-13.5 -1.5q-18 6 -57 8.5t-87.5 2t-101.5 -2.5t-100 -4 q-32 -2 -61 -3t-52 -1q-31 -1 -75 -5.5t-92 -11.5t-95 -14.5t-85 -14t-61.5 -11t-24.5 -4.5h-2q-6 0 -11 4t-6 10q-2 8 2.5 14t11.5 8q3 0 23 3.5t52 9t72 12t83 13t85 11.5t78 8q7 109 4 214t-9 208q-3 66 -6 132.5t-5 135.5q0 90 1.5 174.5t6 167.5t12.5 168t21 177 q-45 2 -94.5 1.5t-98 -2.5t-92.5 -5.5t-78 -6t-54 -4.5t-21 -2q-18 0 -20 15zM223 1755q0 15 20 30t38 15q70 0 70 -56q0 -16 -24 -30q-21 -14 -40 -14q-64 0 -64 55zM799 1752q0 36 24 48q14 6 54 6q19 0 37 -16.5t18 -32.5q0 -49 -75 -49q-21 0 -38 12q-20 12 -20 32z" />
<glyph unicode="&#xd0;" horiz-adv-x="1478" d="M-52 707q0 8 6.5 14.5t12.5 4.5q4 -1 29 -0.5t64 1.5t88.5 2.5t101.5 3.5q1 110 4 228.5t6 230.5q3 88 5 165t4 146q-5 5 -5 12q0 16 18 16q25 -1 52.5 -7t55.5 -14t55 -18t53 -19l19 -8q28 -11 55 -20t56 -19q53 -18 107 -37.5t108.5 -46.5t109.5 -64t110 -90 q58 -56 118.5 -127t109.5 -153.5t79.5 -175.5t29.5 -193q-1 -113 -38 -213t-103.5 -181t-161 -140t-210.5 -89q-42 -11 -91.5 -16t-100.5 -5q-23 0 -45 1t-45 2q-21 3 -46.5 7t-52 10t-52.5 14.5t-48 20.5q-12 7 -23.5 12.5t-22.5 11.5q-25 11 -47 24t-44 31q-2 -1 -3.5 -2 t-3.5 -1h-2q-16 0 -16 19q10 115 10 220.5t-3 213.5q0 48 -0.5 94.5t-0.5 97.5v21q-53 -1 -102.5 -1.5t-88.5 -0.5h-64.5h-29.5q-6 0 -11.5 5t-5.5 12zM281 66q21 -22 44 -35t49 -24q11 -5 23.5 -11t24.5 -15q21 -11 45 -18.5t49 -13t49 -9t45 -6.5q32 -4 67 -5t70 1.5 t68.5 7.5t62.5 12q110 28 199.5 84t153 133t98.5 171.5t36 200.5q1 95 -29 184t-77.5 169t-106.5 148.5t-116 123.5q-52 50 -103.5 85t-104 61t-105 45.5t-106.5 37.5q-29 9 -57 19t-55 21l-19 6q-43 17 -90.5 33.5t-90.5 21.5q-2 -67 -4 -142.5t-5 -159.5 q-3 -111 -6 -229.5t-4 -228.5q49 2 95.5 4t85.5 3.5t66.5 3t38.5 2.5q8 2 14 -2t9 -10q3 -8 -0.5 -14t-11.5 -8q-15 -4 -45 -7.5t-69.5 -5.5t-86.5 -4t-96 -3v-22q0 -51 1 -98t1 -93q2 -105 2 -205t-9 -209z" />
<glyph unicode="&#xd1;" horiz-adv-x="1632" d="M165 -36q17 227 21 447.5t2 415.5q-2 63 -2 124t-2 124q-3 52 -4.5 102t-4.5 101q-3 57 -5.5 115t-4.5 116q-2 6 1.5 9.5t8.5 5.5q5 4 11 3t9 -6l197 -241q168 -205 332.5 -403t335.5 -394q91 -104 181.5 -207.5t181.5 -207.5l35 -41q3 57 5 113t4 114l4 76 q8 160 8 342.5t-17 368.5q-12 117 -27.5 233.5t-53.5 240.5q-2 5 2.5 12t11.5 10q5 2 11 -2t8 -11q25 -59 39 -119.5t21.5 -121t11.5 -120.5t9 -118q17 -189 17.5 -372.5t-7.5 -344.5l-5 -76q-1 -68 -3.5 -133.5t-5.5 -134.5q0 -5 -3.5 -9t-6.5 -6q-13 -3 -21 4l-62 72 q-92 105 -182.5 208.5t-181.5 206.5q-171 195 -335.5 394.5t-332.5 403.5l-167 202l4 -90l4 -90q4 -51 6.5 -101t4.5 -103q2 -63 3 -124.5t1 -124.5q1 -97 1.5 -202t-2 -214.5t-8 -222.5t-15.5 -226q0 -17 -18 -17q-7 0 -12 5.5t-3 13.5zM382.5 1726.5q-2.5 6.5 0.5 12.5 q27 60 58 108.5t66 87.5q32 33 71 48.5t83 10.5q45 -5 83 -31.5t64 -68.5l3 -6q19 -31 38.5 -61t44 -53.5t54.5 -38t70 -14.5h6q41 1 73 16t57 37.5t42.5 50.5t30 56.5t20 54.5t11.5 45q2 7 7.5 11t13.5 2q6 -1 10.5 -7t2.5 -13q-4 -21 -12.5 -50t-22.5 -60.5t-34.5 -62.5 t-48.5 -56t-65 -41t-84 -17h-7q-47 0 -82.5 16.5t-63.5 43t-49.5 59t-40.5 64.5l-4 6q-22 35 -53.5 57t-67.5 27q-70 8 -123 -48q-69 -75 -119 -187q-2 -6 -9 -8.5t-13 0.5q-8 3 -10.5 9.5z" />
<glyph unicode="&#xd2;" horiz-adv-x="1635" d="M124 596q0 131 31.5 247.5t85 215.5t124.5 179t149 137.5t158.5 91.5t153.5 41q197 19 342 -29.5t239 -161.5q47 -57 78 -128t46 -153t13.5 -172.5t-19.5 -186.5q-14 -69 -37.5 -150t-61.5 -162.5t-92 -157.5t-128 -134.5t-170.5 -93.5t-218.5 -35q-20 0 -41.5 1.5 t-43.5 3.5q-608 65 -608 647zM160 596q0 -275 144.5 -428.5t430.5 -183.5q21 -3 41.5 -3.5t40.5 -0.5q116 0 207.5 34t162 90t122 129t87.5 151t58 155.5t35 142.5q36 186 7.5 345t-116.5 268q-151 183 -451 183q-23 0 -48.5 -1.5t-50.5 -4.5q-69 -6 -145 -39t-150.5 -89 t-142.5 -133t-119.5 -172.5t-82 -207t-30.5 -235.5zM822.5 2083.5q3.5 10.5 23.5 4.5q83 -40 171 -168q126 -166 140 -231q4 -18 -7 -22t-19 9q-5 9 -31 50l-100 149q-53 73 -112 132q-53 46 -64 59q-5 7 -1.5 17.5z" />
<glyph unicode="&#xd3;" horiz-adv-x="1635" d="M124 596q0 131 31.5 247.5t85 215.5t124.5 179t149 137.5t158.5 91.5t153.5 41q197 19 342 -29.5t239 -161.5q47 -57 78 -128t46 -153t13.5 -172.5t-19.5 -186.5q-14 -69 -37.5 -150t-61.5 -162.5t-92 -157.5t-128 -134.5t-170.5 -93.5t-218.5 -35q-20 0 -41.5 1.5 t-43.5 3.5q-608 65 -608 647zM160 596q0 -275 144.5 -428.5t430.5 -183.5q21 -3 41.5 -3.5t40.5 -0.5q116 0 207.5 34t162 90t122 129t87.5 151t58 155.5t35 142.5q36 186 7.5 345t-116.5 268q-151 183 -451 183q-23 0 -48.5 -1.5t-50.5 -4.5q-69 -6 -145 -39t-150.5 -89 t-142.5 -133t-119.5 -172.5t-82 -207t-30.5 -235.5zM934 1664q4 19 148 251q97 139 171 183q22 6 26 -5t-2 -19q-12 -14 -59 -60q-70 -68 -119 -148l-99 -166q-29 -44 -40 -56q-12 -10 -22.5 -2.5t-3.5 22.5z" />
<glyph unicode="&#xd4;" horiz-adv-x="1635" d="M124 596q0 131 31.5 247.5t85 215.5t124.5 179t149 137.5t158.5 91.5t153.5 41q197 19 342 -29.5t239 -161.5q47 -57 78 -128t46 -153t13.5 -172.5t-19.5 -186.5q-14 -69 -37.5 -150t-61.5 -162.5t-92 -157.5t-128 -134.5t-170.5 -93.5t-218.5 -35q-20 0 -41.5 1.5 t-43.5 3.5q-608 65 -608 647zM160 596q0 -275 144.5 -428.5t430.5 -183.5q21 -3 41.5 -3.5t40.5 -0.5q116 0 207.5 34t162 90t122 129t87.5 151t58 155.5t35 142.5q36 186 7.5 345t-116.5 268q-151 183 -451 183q-23 0 -48.5 -1.5t-50.5 -4.5q-69 -6 -145 -39t-150.5 -89 t-142.5 -133t-119.5 -172.5t-82 -207t-30.5 -235.5zM595.5 1673.5q1.5 7.5 7.5 12.5q60 57 107.5 114t90 114t84 112.5t89.5 108.5q12 11 33.5 -2.5t45.5 -42.5q22 -27 36 -43.5t26.5 -31t27.5 -30t39 -40.5q22 -23 50 -51.5t57.5 -58t57.5 -59t49 -53.5q4 -6 3.5 -14 t-5.5 -13t-13 -4t-12 6q-21 24 -48.5 53.5t-57 59.5t-57.5 58l-51 51q-24 25 -39 41.5t-27.5 30.5t-26.5 31t-36 44q-23 25 -30.5 29.5t-8.5 4.5t-3.5 -3t-4.5 -6l-4 -6q-2 -2 -3.5 -4t-1.5 -3q-39 -58 -76 -111.5t-77 -105.5t-86.5 -103t-106.5 -103q-2 -2 -5 -3t-5 -1 q-8 0 -15 9q-5 5 -3.5 12.5z" />
<glyph unicode="&#xd5;" horiz-adv-x="1635" d="M124 596q0 131 31.5 247.5t85 215.5t124.5 179t149 137.5t158.5 91.5t153.5 41q197 19 342 -29.5t239 -161.5q47 -57 78 -128t46 -153t13.5 -172.5t-19.5 -186.5q-14 -69 -37.5 -150t-61.5 -162.5t-92 -157.5t-128 -134.5t-170.5 -93.5t-218.5 -35q-20 0 -41.5 1.5 t-43.5 3.5q-608 65 -608 647zM160 596q0 -275 144.5 -428.5t430.5 -183.5q21 -3 41.5 -3.5t40.5 -0.5q116 0 207.5 34t162 90t122 129t87.5 151t58 155.5t35 142.5q36 186 7.5 345t-116.5 268q-151 183 -451 183q-23 0 -48.5 -1.5t-50.5 -4.5q-69 -6 -145 -39t-150.5 -89 t-142.5 -133t-119.5 -172.5t-82 -207t-30.5 -235.5zM538.5 1709.5q-2.5 6.5 0.5 12.5q27 60 58 108.5t66 87.5q32 33 71 48.5t83 10.5q45 -5 83 -31.5t64 -68.5l3 -6q19 -31 38.5 -61t44 -53.5t54.5 -38t70 -14.5h6q41 1 73 16t57 37.5t42.5 50.5t30 56.5t20 54.5t11.5 45 q2 7 7.5 11t13.5 2q6 -1 10.5 -7t2.5 -13q-4 -21 -12.5 -50t-22.5 -60.5t-34.5 -62.5t-48.5 -56t-65 -41t-84 -17h-7q-47 0 -82.5 16.5t-63.5 43t-49.5 59t-40.5 64.5l-4 6q-22 35 -53.5 57t-67.5 27q-70 8 -123 -48q-69 -75 -119 -187q-2 -6 -9 -8.5t-13 0.5 q-8 3 -10.5 9.5z" />
<glyph unicode="&#xd6;" horiz-adv-x="1635" d="M124 596q0 131 31.5 247.5t85 215.5t124.5 179t149 137.5t158.5 91.5t153.5 41q197 19 342 -29.5t239 -161.5q47 -57 78 -128t46 -153t13.5 -172.5t-19.5 -186.5q-14 -69 -37.5 -150t-61.5 -162.5t-92 -157.5t-128 -134.5t-170.5 -93.5t-218.5 -35q-20 0 -41.5 1.5 t-43.5 3.5q-608 65 -608 647zM160 596q0 -275 144.5 -428.5t430.5 -183.5q21 -3 41.5 -3.5t40.5 -0.5q116 0 207.5 34t162 90t122 129t87.5 151t58 155.5t35 142.5q36 186 7.5 345t-116.5 268q-151 183 -451 183q-23 0 -48.5 -1.5t-50.5 -4.5q-69 -6 -145 -39t-150.5 -89 t-142.5 -133t-119.5 -172.5t-82 -207t-30.5 -235.5zM643 1761q0 15 20 30t38 15q70 0 70 -56q0 -16 -24 -30q-21 -14 -40 -14q-64 0 -64 55zM1219 1758q0 36 24 48q14 6 54 6q19 0 37 -16.5t18 -32.5q0 -49 -75 -49q-21 0 -38 12q-20 12 -20 32z" />
<glyph unicode="&#xd7;" horiz-adv-x="984" d="M76.5 947q-1.5 7 2.5 13t11 8t13 -3q43 -27 65 -48t39 -41q8 -10 17.5 -19.5l20.5 -20.5q40 -36 81 -70.5t82 -67.5l26 -22l26 -22q12 14 24.5 27t25.5 27q79 80 170 161q14 12 28 25l28 26q18 17 37 34.5t39 34.5q5 5 12 4t12 -7q5 -5 4 -12t-6 -12q-20 -16 -38.5 -33 t-35.5 -34q-14 -13 -28.5 -26t-28.5 -26q-46 -41 -87.5 -80t-80.5 -80q-26 -26 -48 -51q20 -17 38.5 -35t37.5 -36q23 -23 46 -45t46 -41q42 -34 82 -75.5t89 -103.5q5 -5 4 -12t-7 -12q-4 -4 -11 -4q-9 0 -13 6q-48 60 -86.5 100.5t-78.5 73.5q-25 20 -49 42.5t-47 45.5 q-18 18 -36.5 35.5t-37.5 34.5q-8 -9 -15.5 -18t-15.5 -18q-27 -31 -56 -66t-61 -76q-7 -8 -14 -17.5t-15 -17.5q-29 -38 -58.5 -76t-54.5 -78q-6 -8 -15 -8q-5 0 -9 2q-15 10 -6 25q26 42 56 80l60 76q8 9 14.5 18t13.5 18q32 41 61.5 76t56.5 67q8 9 15.5 17.5t15.5 17.5 q-26 22 -51 42q-42 34 -83 69t-81 72q-13 11 -22.5 21t-18.5 21q-9 9 -17.5 18.5t-19.5 19.5t-25.5 21t-34.5 24q-6 4 -7.5 11z" />
<glyph unicode="&#xd8;" horiz-adv-x="1635" d="M104 -43q1 7 4 14l172 161q-161 162 -161 462q0 131 31.5 248t85 216t124.5 179t149 137.5t158.5 91.5t153.5 41q386 36 575 -185q45 49 88.5 99.5t84.5 104.5q10 13 24 3q2 -2 4 -3.5t2 -6.5q1 -9 -5 -12q-42 -56 -87 -107.5t-91 -102.5q86 -115 112 -275.5t-9 -346.5 q-14 -69 -37.5 -150t-61.5 -162.5t-91.5 -157t-127.5 -134t-170.5 -93.5t-218.5 -35q-20 0 -42 1.5t-43 3.5q-273 29 -422 161q-45 -42 -88 -83t-87 -80q-4 -6 -10.5 -5.5t-11.5 5.5q-5 4 -4 11zM154 594q0 -280 153 -436l46 40q107 99 208 202t196 207t186 207.5t178 205.5 q45 52 89.5 101.5t89.5 97.5l36 38t36 39q-152 181 -449 181q-23 0 -48.5 -1.5t-49.5 -5.5q-69 -6 -145.5 -38.5t-151 -88.5t-142.5 -133.5t-119.5 -173t-82 -207t-30.5 -235.5zM331 133l2 1q140 -124 396 -151q22 -3 42.5 -3.5t40.5 -0.5q116 0 207.5 34t162 90 t121.5 128.5t87 150.5t58.5 155.5t35.5 142.5q34 178 10 329.5t-102 260.5q-17 -19 -34.5 -38t-34.5 -39q-45 -46 -89 -96t-91 -101q-174 -203 -363.5 -412t-406.5 -412l-40 -38zM1378 1290q0 -2 2 -2zM1390 1273l2 -2z" />
<glyph unicode="&#xd9;" horiz-adv-x="1509" d="M184 783.5q0 77.5 1 150.5v121q0 57 0.5 108.5t2.5 102.5q2 49 2.5 98.5t-0.5 104.5q0 7 5.5 12.5t13.5 5.5q6 0 11.5 -5.5t5.5 -12.5q0 -55 -1 -105.5t-3 -99.5q-1 -49 -2 -100.5t-1 -108.5v-123q-1 -106 1.5 -221t21 -225.5t60.5 -207.5t120 -167q19 -17 45.5 -33 t56.5 -30t61.5 -25t62.5 -17q81 -15 156.5 -7.5t142.5 35t122 74.5t96 112q30 48 51.5 98.5t37.5 102t27.5 103.5t22.5 103q9 46 15 101t9.5 113.5t4.5 117.5t0.5 112.5t-2 99t-2.5 76.5v7q-1 54 -1 103.5t1 108.5q0 8 5.5 12.5t12.5 4.5q17 0 17 -17q0 -60 -1 -108.5 t1 -101.5l1 -7q2 -59 3 -139.5t-1 -166.5t-9.5 -170.5t-21.5 -151.5q-10 -53 -21.5 -106.5t-27.5 -106t-38 -104.5t-53 -101q-36 -58 -84 -103t-105 -75.5t-121 -46.5t-132 -16q-28 0 -56 2.5t-56 9.5q-33 6 -67.5 17t-66.5 25.5t-60.5 32t-49.5 36.5q-55 49 -92.5 111 t-61.5 132t-36.5 146t-18 154t-5.5 155.5zM528.5 2069.5q3.5 10.5 23.5 4.5q83 -40 171 -168q126 -166 140 -231q4 -18 -7 -22t-19 9q-5 9 -31 50l-100 149q-53 73 -112 132q-53 46 -64 59q-5 7 -1.5 17.5z" />
<glyph unicode="&#xda;" horiz-adv-x="1509" d="M184 783.5q0 77.5 1 150.5v121q0 57 0.5 108.5t2.5 102.5q2 49 2.5 98.5t-0.5 104.5q0 7 5.5 12.5t13.5 5.5q6 0 11.5 -5.5t5.5 -12.5q0 -55 -1 -105.5t-3 -99.5q-1 -49 -2 -100.5t-1 -108.5v-123q-1 -106 1.5 -221t21 -225.5t60.5 -207.5t120 -167q19 -17 45.5 -33 t56.5 -30t61.5 -25t62.5 -17q81 -15 156.5 -7.5t142.5 35t122 74.5t96 112q30 48 51.5 98.5t37.5 102t27.5 103.5t22.5 103q9 46 15 101t9.5 113.5t4.5 117.5t0.5 112.5t-2 99t-2.5 76.5v7q-1 54 -1 103.5t1 108.5q0 8 5.5 12.5t12.5 4.5q17 0 17 -17q0 -60 -1 -108.5 t1 -101.5l1 -7q2 -59 3 -139.5t-1 -166.5t-9.5 -170.5t-21.5 -151.5q-10 -53 -21.5 -106.5t-27.5 -106t-38 -104.5t-53 -101q-36 -58 -84 -103t-105 -75.5t-121 -46.5t-132 -16q-28 0 -56 2.5t-56 9.5q-33 6 -67.5 17t-66.5 25.5t-60.5 32t-49.5 36.5q-55 49 -92.5 111 t-61.5 132t-36.5 146t-18 154t-5.5 155.5zM732 1670q4 19 148 251q97 139 171 183q22 6 26 -5t-2 -19q-12 -14 -59 -60q-70 -68 -119 -148l-99 -166q-29 -44 -40 -56q-12 -10 -22.5 -2.5t-3.5 22.5z" />
<glyph unicode="&#xdb;" horiz-adv-x="1509" d="M184 783.5q0 77.5 1 150.5v121q0 57 0.5 108.5t2.5 102.5q2 49 2.5 98.5t-0.5 104.5q0 7 5.5 12.5t13.5 5.5q6 0 11.5 -5.5t5.5 -12.5q0 -55 -1 -105.5t-3 -99.5q-1 -49 -2 -100.5t-1 -108.5v-123q-1 -106 1.5 -221t21 -225.5t60.5 -207.5t120 -167q19 -17 45.5 -33 t56.5 -30t61.5 -25t62.5 -17q81 -15 156.5 -7.5t142.5 35t122 74.5t96 112q30 48 51.5 98.5t37.5 102t27.5 103.5t22.5 103q9 46 15 101t9.5 113.5t4.5 117.5t0.5 112.5t-2 99t-2.5 76.5v7q-1 54 -1 103.5t1 108.5q0 8 5.5 12.5t12.5 4.5q17 0 17 -17q0 -60 -1 -108.5 t1 -101.5l1 -7q2 -59 3 -139.5t-1 -166.5t-9.5 -170.5t-21.5 -151.5q-10 -53 -21.5 -106.5t-27.5 -106t-38 -104.5t-53 -101q-36 -58 -84 -103t-105 -75.5t-121 -46.5t-132 -16q-28 0 -56 2.5t-56 9.5q-33 6 -67.5 17t-66.5 25.5t-60.5 32t-49.5 36.5q-55 49 -92.5 111 t-61.5 132t-36.5 146t-18 154t-5.5 155.5zM433.5 1679.5q1.5 7.5 7.5 12.5q60 57 107.5 114t90 114t84 112.5t89.5 108.5q12 11 33.5 -2.5t45.5 -42.5q22 -27 36 -43.5t26.5 -31t27.5 -30t39 -40.5q22 -23 50 -51.5t57.5 -58t57.5 -59t49 -53.5q4 -6 3.5 -14t-5.5 -13 t-13 -4t-12 6q-21 24 -48.5 53.5t-57 59.5t-57.5 58l-51 51q-24 25 -39 41.5t-27.5 30.5t-26.5 31t-36 44q-23 25 -30.5 29.5t-8.5 4.5t-3.5 -3t-4.5 -6l-4 -6q-2 -2 -3.5 -4t-1.5 -3q-39 -58 -76 -111.5t-77 -105.5t-86.5 -103t-106.5 -103q-2 -2 -5 -3t-5 -1q-8 0 -15 9 q-5 5 -3.5 12.5z" />
<glyph unicode="&#xdc;" horiz-adv-x="1509" d="M184 783.5q0 77.5 1 150.5v121q0 57 0.5 108.5t2.5 102.5q2 49 2.5 98.5t-0.5 104.5q0 7 5.5 12.5t13.5 5.5q6 0 11.5 -5.5t5.5 -12.5q0 -55 -1 -105.5t-3 -99.5q-1 -49 -2 -100.5t-1 -108.5v-123q-1 -106 1.5 -221t21 -225.5t60.5 -207.5t120 -167q19 -17 45.5 -33 t56.5 -30t61.5 -25t62.5 -17q81 -15 156.5 -7.5t142.5 35t122 74.5t96 112q30 48 51.5 98.5t37.5 102t27.5 103.5t22.5 103q9 46 15 101t9.5 113.5t4.5 117.5t0.5 112.5t-2 99t-2.5 76.5v7q-1 54 -1 103.5t1 108.5q0 8 5.5 12.5t12.5 4.5q17 0 17 -17q0 -60 -1 -108.5 t1 -101.5l1 -7q2 -59 3 -139.5t-1 -166.5t-9.5 -170.5t-21.5 -151.5q-10 -53 -21.5 -106.5t-27.5 -106t-38 -104.5t-53 -101q-36 -58 -84 -103t-105 -75.5t-121 -46.5t-132 -16q-28 0 -56 2.5t-56 9.5q-33 6 -67.5 17t-66.5 25.5t-60.5 32t-49.5 36.5q-55 49 -92.5 111 t-61.5 132t-36.5 146t-18 154t-5.5 155.5zM452 1738q0 15 20 30t38 15q70 0 70 -56q0 -16 -24 -30q-21 -14 -40 -14q-64 0 -64 55zM1028 1735q0 36 24 48q14 6 54 6q19 0 37 -16.5t18 -32.5q0 -49 -75 -49q-21 0 -38 12q-20 12 -20 32z" />
<glyph unicode="&#xdd;" horiz-adv-x="1301" d="M35 1471.5q-1 7.5 4 12.5t12 6t12 -4q48 -41 81.5 -93t63.5 -103q11 -19 21 -37l20 -36q14 -20 28.5 -41.5t30.5 -44.5q29 -45 58.5 -89t49.5 -85q34 -67 63.5 -112.5t60.5 -86.5l34 -46t35 -52l12 -19q18 -29 37.5 -56t39.5 -54l22 46t21 45q34 70 61.5 126t40.5 80 q13 25 33.5 66t45.5 86q18 34 36 68.5t34 65t27.5 54t17.5 35.5q8 14 20 43t25 61q12 29 25 59t25 57.5t23 50t20 36.5q4 5 11 7t13 -2q5 -4 7 -11.5t-3 -14.5q-8 -12 -18.5 -33.5t-22.5 -48.5t-24 -56.5t-23 -57.5q-14 -34 -26.5 -61.5t-20.5 -43.5q-6 -12 -17.5 -36 t-27.5 -54t-34 -65t-36 -69q-25 -47 -45.5 -87t-33.5 -66q-6 -12 -17 -32.5t-24.5 -47.5t-29 -59t-31.5 -66q-33 -70 -61.5 -129.5t-50.5 -104t-36.5 -72.5t-19.5 -36q-8 -11 -22.5 -34.5t-32.5 -52.5t-37 -62t-35.5 -63t-28 -55t-13.5 -39q-3 -14 -17 -14h-3 q-7 2 -11.5 7.5t-2.5 13.5q3 17 16 45.5t31 62t38.5 68.5t39 65t32 50.5t17.5 26.5t14 25t24 47.5t31.5 64.5t36.5 75q-47 61 -89 127l-12 19q-18 27 -35 50.5t-32 45.5q-16 21 -32 43t-31.5 46t-31.5 52.5t-33 63.5q-20 39 -48.5 82.5t-57.5 87.5q-16 23 -31 45.5t-28 42.5 q-11 17 -21.5 35t-21.5 36q-29 51 -60 101t-76 88q-5 4 -6 11.5zM631 1755q4 19 148 251q97 139 171 183q22 6 26 -5t-2 -19q-12 -14 -59 -60q-70 -68 -119 -148l-99 -166q-29 -44 -40 -56q-12 -10 -22.5 -2.5t-3.5 22.5z" />
<glyph unicode="&#xde;" horiz-adv-x="1037" d="M118 12q19 118 23 239t6 241q1 67 2.5 135.5t5.5 135.5q1 26 3.5 72.5t5 104t5 122.5t5.5 129t5.5 122.5t4 103.5t3 72.5t1.5 28.5q0 7 5 12t13 4q7 0 12 -5t4 -13q0 -1 -0.5 -18t-2 -46.5t-3 -69.5t-3.5 -86q159 30 281 27t215 -39q51 -20 98 -59t83.5 -88.5t60 -106 t27.5 -110.5q4 -59 -8.5 -117t-40.5 -111t-69.5 -99.5t-94.5 -80.5q-135 -87 -266 -100q-29 -3 -57 -3q-34 0 -67 2.5t-65 6.5q-32 3 -64.5 6t-64.5 3q-2 -106 -7 -211.5t-21 -208.5q-1 -7 -6 -11t-11 -4q-2 0 -3 1q-8 1 -12 6.5t-3 12.5zM181 461q34 0 67 -2.5t65 -5.5 q45 -5 91 -8.5t92 1.5q124 14 250 96q49 31 87.5 73.5t64 92t38 103t8.5 107.5q-4 48 -25 99t-56 99t-78.5 83.5t-88.5 52.5q-89 34 -208 36t-276 -28q-3 -70 -6.5 -145.5t-6.5 -144t-5.5 -124t-3.5 -85.5q-5 -67 -6 -135t-2 -135v-15t-1 -15z" />
<glyph unicode="&#xdf;" horiz-adv-x="908" d="M87 -131q18 82 27.5 165.5t12.5 166.5t1.5 166t-3.5 165q-3 72 -4.5 144.5t0.5 144.5q3 72 6.5 142t8.5 137q5 64 12.5 113.5t21.5 94.5q15 57 50 109t79 85q17 12 38.5 24.5t44.5 22.5t47.5 17t47.5 9q96 6 175 -38.5t124 -131.5q24 -47 35.5 -93.5t11 -89.5t-12.5 -82 t-36 -70q-20 -29 -54 -60t-69 -62q-15 -13 -33 -28t-33 -29t-25 -26t-10 -18q3 -5 15.5 -17t28 -25.5t30.5 -26t23 -18.5q8 -8 13 -12t7 -6l18 -18q47 -50 78 -86.5t51 -80t31 -104.5t18 -159q5 -79 -18.5 -147.5t-72.5 -119.5q-36 -38 -80.5 -58.5t-87.5 -20.5h-6 q-68 2 -116 20t-78 44t-44.5 55.5t-15.5 54.5q0 8 5 13t11 5h2q6 0 11 -4t5 -12q1 -20 13.5 -43.5t39.5 -44.5t68.5 -36t100.5 -17h4q37 0 74.5 17.5t69.5 50.5q42 46 63 107.5t18 133.5q-5 62 -10.5 107t-14 79.5t-20.5 61t-29.5 51t-41 49.5t-54.5 58l-18 20q-2 2 -6 5.5 t-10 8.5q-45 37 -72.5 62t-35.5 39q-12 25 17.5 56.5t92.5 85.5q35 30 67.5 59.5t51.5 55.5q41 57 40.5 136t-42.5 163q-38 79 -108 117.5t-155 33.5q-19 -2 -40.5 -8t-43 -15t-42 -20.5t-36.5 -22.5q-39 -31 -70.5 -77.5t-46.5 -98.5q-12 -43 -19.5 -91t-12.5 -109 q-9 -133 -12 -277q-2 -72 -1 -144.5t3 -144.5q2 -83 3.5 -166.5t-1.5 -167.5t-12.5 -168t-28.5 -167q-4 -14 -16 -14h-4q-8 2 -12 8t-2 12z" />
<glyph unicode="&#xe0;" d="M120 282q-29 162 5.5 309t129.5 262q27 34 71 68.5t95.5 62.5t105.5 46t101 18h5q50 0 95.5 -8.5t85.5 -21.5t74 -29.5t61 -31.5q12 -9 7 -25q-5 -7 -16 -7q-11 -61 -21 -117.5t-15 -123.5q-6 -93 -9.5 -186t5.5 -182t36 -173t81 -160q4 -7 3 -13.5t-8 -11.5 q-4 -4 -10 -4q-9 0 -13 9q-26 36 -45 73t-34 76q-37 -24 -75 -47t-80 -40q-12 -5 -24 -10.5t-25 -12.5q-29 -14 -58 -26t-58 -17q-53 -11 -116 -11q-46 0 -93 8.5t-89 31.5q-41 22 -70 56.5t-49.5 74.5t-33 82.5t-19.5 80.5zM155 288q6 -29 16.5 -67t28.5 -76t44 -71.5 t64 -53.5q33 -18 69 -26.5t72.5 -10t71 1.5t63.5 9q25 5 58.5 19t61.5 28q6 3 18.5 8t25.5 11t25 11t17 8q21 11 36.5 20.5t27.5 17.5l22.5 15t21.5 14h1q-20 64 -29 130t-10.5 133.5t1.5 136t7 136.5q5 74 15.5 134t23.5 124q-26 14 -57 27.5t-66 24t-74.5 16.5t-81.5 6 q-42 -1 -92 -18t-98.5 -43t-90 -58.5t-66.5 -63.5q-90 -109 -122 -248.5t-4 -294.5zM349.5 1608.5q3.5 10.5 23.5 4.5q83 -40 171 -168q126 -166 140 -231q4 -18 -7 -22t-19 9q-5 9 -31 50l-100 149q-53 73 -112 132q-53 46 -64 59q-5 7 -1.5 17.5z" />
<glyph unicode="&#xe1;" d="M120 282q-29 162 5.5 309t129.5 262q27 34 71 68.5t95.5 62.5t105.5 46t101 18h5q50 0 95.5 -8.5t85.5 -21.5t74 -29.5t61 -31.5q12 -9 7 -25q-5 -7 -16 -7q-11 -61 -21 -117.5t-15 -123.5q-6 -93 -9.5 -186t5.5 -182t36 -173t81 -160q4 -7 3 -13.5t-8 -11.5 q-4 -4 -10 -4q-9 0 -13 9q-26 36 -45 73t-34 76q-37 -24 -75 -47t-80 -40q-12 -5 -24 -10.5t-25 -12.5q-29 -14 -58 -26t-58 -17q-53 -11 -116 -11q-46 0 -93 8.5t-89 31.5q-41 22 -70 56.5t-49.5 74.5t-33 82.5t-19.5 80.5zM155 288q6 -29 16.5 -67t28.5 -76t44 -71.5 t64 -53.5q33 -18 69 -26.5t72.5 -10t71 1.5t63.5 9q25 5 58.5 19t61.5 28q6 3 18.5 8t25.5 11t25 11t17 8q21 11 36.5 20.5t27.5 17.5l22.5 15t21.5 14h1q-20 64 -29 130t-10.5 133.5t1.5 136t7 136.5q5 74 15.5 134t23.5 124q-26 14 -57 27.5t-66 24t-74.5 16.5t-81.5 6 q-42 -1 -92 -18t-98.5 -43t-90 -58.5t-66.5 -63.5q-90 -109 -122 -248.5t-4 -294.5zM548 1214q4 19 148 251q97 139 171 183q22 6 26 -5t-2 -19q-12 -14 -59 -60q-70 -68 -119 -148l-99 -166q-29 -44 -40 -56q-12 -10 -22.5 -2.5t-3.5 22.5z" />
<glyph unicode="&#xe2;" d="M120 282q-29 162 5.5 309t129.5 262q27 34 71 68.5t95.5 62.5t105.5 46t101 18h5q50 0 95.5 -8.5t85.5 -21.5t74 -29.5t61 -31.5q12 -9 7 -25q-5 -7 -16 -7q-11 -61 -21 -117.5t-15 -123.5q-6 -93 -9.5 -186t5.5 -182t36 -173t81 -160q4 -7 3 -13.5t-8 -11.5 q-4 -4 -10 -4q-9 0 -13 9q-26 36 -45 73t-34 76q-37 -24 -75 -47t-80 -40q-12 -5 -24 -10.5t-25 -12.5q-29 -14 -58 -26t-58 -17q-53 -11 -116 -11q-46 0 -93 8.5t-89 31.5q-41 22 -70 56.5t-49.5 74.5t-33 82.5t-19.5 80.5zM155 288q6 -29 16.5 -67t28.5 -76t44 -71.5 t64 -53.5q33 -18 69 -26.5t72.5 -10t71 1.5t63.5 9q25 5 58.5 19t61.5 28q6 3 18.5 8t25.5 11t25 11t17 8q21 11 36.5 20.5t27.5 17.5l22.5 15t21.5 14h1q-20 64 -29 130t-10.5 133.5t1.5 136t7 136.5q5 74 15.5 134t23.5 124q-26 14 -57 27.5t-66 24t-74.5 16.5t-81.5 6 q-42 -1 -92 -18t-98.5 -43t-90 -58.5t-66.5 -63.5q-90 -109 -122 -248.5t-4 -294.5zM176.5 1231.5q1.5 7.5 7.5 12.5q60 57 107.5 114t90 114t84 112.5t89.5 108.5q12 11 33.5 -2.5t45.5 -42.5q22 -27 36 -43.5t26.5 -31t27.5 -30t39 -40.5q22 -23 50 -51.5t57.5 -58 t57.5 -59t49 -53.5q4 -6 3.5 -14t-5.5 -13t-13 -4t-12 6q-21 24 -48.5 53.5t-57 59.5t-57.5 58l-51 51q-24 25 -39 41.5t-27.5 30.5t-26.5 31t-36 44q-23 25 -30.5 29.5t-8.5 4.5t-3.5 -3t-4.5 -6l-4 -6q-2 -2 -3.5 -4t-1.5 -3q-39 -58 -76 -111.5t-77 -105.5t-86.5 -103 t-106.5 -103q-2 -2 -5 -3t-5 -1q-8 0 -15 9q-5 5 -3.5 12.5z" />
<glyph unicode="&#xe3;" d="M120 282q-29 162 5.5 309t129.5 262q27 34 71 68.5t95.5 62.5t105.5 46t101 18h5q50 0 95.5 -8.5t85.5 -21.5t74 -29.5t61 -31.5q12 -9 7 -25q-5 -7 -16 -7q-11 -61 -21 -117.5t-15 -123.5q-6 -93 -9.5 -186t5.5 -182t36 -173t81 -160q4 -7 3 -13.5t-8 -11.5 q-4 -4 -10 -4q-9 0 -13 9q-26 36 -45 73t-34 76q-37 -24 -75 -47t-80 -40q-12 -5 -24 -10.5t-25 -12.5q-29 -14 -58 -26t-58 -17q-53 -11 -116 -11q-46 0 -93 8.5t-89 31.5q-41 22 -70 56.5t-49.5 74.5t-33 82.5t-19.5 80.5zM154.5 1238.5q-2.5 6.5 0.5 12.5q27 60 58 108.5 t66 87.5q32 33 71 48.5t83 10.5q45 -5 83 -31.5t64 -68.5l3 -6q19 -31 38.5 -61t44 -53.5t54.5 -38t70 -14.5h6q41 1 73 16t57 37.5t42.5 50.5t30 56.5t20 54.5t11.5 45q2 7 7.5 11t13.5 2q6 -1 10.5 -7t2.5 -13q-4 -21 -12.5 -50t-22.5 -60.5t-34.5 -62.5t-48.5 -56 t-65 -41t-84 -17h-7q-47 0 -82.5 16.5t-63.5 43t-49.5 59t-40.5 64.5l-4 6q-22 35 -53.5 57t-67.5 27q-70 8 -123 -48q-69 -75 -119 -187q-2 -6 -9 -8.5t-13 0.5q-8 3 -10.5 9.5zM155 288q6 -29 16.5 -67t28.5 -76t44 -71.5t64 -53.5q33 -18 69 -26.5t72.5 -10t71 1.5 t63.5 9q25 5 58.5 19t61.5 28q6 3 18.5 8t25.5 11t25 11t17 8q21 11 36.5 20.5t27.5 17.5l22.5 15t21.5 14h1q-20 64 -29 130t-10.5 133.5t1.5 136t7 136.5q5 74 15.5 134t23.5 124q-26 14 -57 27.5t-66 24t-74.5 16.5t-81.5 6q-42 -1 -92 -18t-98.5 -43t-90 -58.5 t-66.5 -63.5q-90 -109 -122 -248.5t-4 -294.5z" />
<glyph unicode="&#xe4;" d="M120 282q-29 162 5.5 309t129.5 262q27 34 71 68.5t95.5 62.5t105.5 46t101 18h5q50 0 95.5 -8.5t85.5 -21.5t74 -29.5t61 -31.5q12 -9 7 -25q-5 -7 -16 -7q-11 -61 -21 -117.5t-15 -123.5q-6 -93 -9.5 -186t5.5 -182t36 -173t81 -160q4 -7 3 -13.5t-8 -11.5 q-4 -4 -10 -4q-9 0 -13 9q-26 36 -45 73t-34 76q-37 -24 -75 -47t-80 -40q-12 -5 -24 -10.5t-25 -12.5q-29 -14 -58 -26t-58 -17q-53 -11 -116 -11q-46 0 -93 8.5t-89 31.5q-41 22 -70 56.5t-49.5 74.5t-33 82.5t-19.5 80.5zM155 288q6 -29 16.5 -67t28.5 -76t44 -71.5 t64 -53.5q33 -18 69 -26.5t72.5 -10t71 1.5t63.5 9q25 5 58.5 19t61.5 28q6 3 18.5 8t25.5 11t25 11t17 8q21 11 36.5 20.5t27.5 17.5l22.5 15t21.5 14h1q-20 64 -29 130t-10.5 133.5t1.5 136t7 136.5q5 74 15.5 134t23.5 124q-26 14 -57 27.5t-66 24t-74.5 16.5t-81.5 6 q-42 -1 -92 -18t-98.5 -43t-90 -58.5t-66.5 -63.5q-90 -109 -122 -248.5t-4 -294.5zM356 1285q0 15 20 30t38 15q70 0 70 -56q0 -16 -24 -30q-21 -14 -40 -14q-64 0 -64 55zM932 1282q0 36 24 48q14 6 54 6q19 0 37 -16.5t18 -32.5q0 -49 -75 -49q-21 0 -38 12 q-20 12 -20 32z" />
<glyph unicode="&#xe5;" d="M120 282q-29 162 5.5 309t129.5 262q27 34 71 68.5t95.5 62.5t105.5 46t101 18h5q50 0 95.5 -8.5t85.5 -21.5t74 -29.5t61 -31.5q12 -9 7 -25q-5 -7 -16 -7q-11 -61 -21 -117.5t-15 -123.5q-6 -93 -9.5 -186t5.5 -182t36 -173t81 -160q4 -7 3 -13.5t-8 -11.5 q-4 -4 -10 -4q-9 0 -13 9q-26 36 -45 73t-34 76q-37 -24 -75 -47t-80 -40q-12 -5 -24 -10.5t-25 -12.5q-29 -14 -58 -26t-58 -17q-53 -11 -116 -11q-46 0 -93 8.5t-89 31.5q-41 22 -70 56.5t-49.5 74.5t-33 82.5t-19.5 80.5zM155 288q6 -29 16.5 -67t28.5 -76t44 -71.5 t64 -53.5q33 -18 69 -26.5t72.5 -10t71 1.5t63.5 9q25 5 58.5 19t61.5 28q6 3 18.5 8t25.5 11t25 11t17 8q21 11 36.5 20.5t27.5 17.5l22.5 15t21.5 14h1q-20 64 -29 130t-10.5 133.5t1.5 136t7 136.5q5 74 15.5 134t23.5 124q-26 14 -57 27.5t-66 24t-74.5 16.5t-81.5 6 q-42 -1 -92 -18t-98.5 -43t-90 -58.5t-66.5 -63.5q-90 -109 -122 -248.5t-4 -294.5zM288 1481q5 56 30.5 104.5t67.5 80.5q26 20 56.5 33.5t61 22t60 13t53.5 6.5q29 3 66 -1.5t75 -16t73.5 -31t62.5 -47.5q29 -29 41.5 -62.5t12.5 -71.5q-2 -55 -17 -103t-43 -86.5 t-66.5 -66t-86.5 -40.5q-30 -8 -62.5 -11.5t-65.5 -3.5q-24 0 -55.5 3t-66 12.5t-68.5 27t-62 47.5q-36 38 -54 87.5t-13 103.5zM323 1479q-3 -46 12 -88.5t47 -74.5q35 -38 94 -59t131 -21q29 0 59.5 3.5t57.5 11.5q42 12 76.5 35.5t59 57.5t38 76t15.5 91q0 62 -44 111 q-22 22 -50.5 38t-59 26t-60.5 15t-55 5h-12t-11 -2q-23 -2 -50.5 -6t-56 -11.5t-56 -19.5t-51.5 -30q-36 -27 -57.5 -68.5t-26.5 -89.5z" />
<glyph unicode="&#xe6;" horiz-adv-x="1867" d="M105 282q-29 162 5.5 309t129.5 262q27 34 71 68.5t95.5 62.5t105.5 46t101 18h5q50 0 95.5 -8.5t85.5 -21.5t74 -29.5t61 -31.5q12 -9 7 -25q-5 -7 -16 -7q-11 -61 -21 -118q-8 -45 -13 -96q4 11 9 22q27 67 64 122q37 54 92.5 92.5t117 60t124.5 27t116 -4.5 q37 -8 78 -22t80 -36.5t72.5 -56t55.5 -80.5q17 -35 17.5 -49.5t-1.5 -18.5q-4 -12 -23.5 -31t-48 -41.5t-63 -45.5t-68.5 -43q-66 -38 -136 -75.5t-145 -70.5q-22 -9 -46.5 -18.5t-50.5 -19.5q-65 -24 -130 -52t-110 -62q21 -69 65 -128t102 -101.5t127 -67t140 -24.5h22 q11 0 22 2q63 7 119.5 23t93.5 37q31 18 60 38t53.5 44.5t42 54t25.5 66.5q2 8 8 11.5t13 1.5q8 -1 11.5 -7t1.5 -12q-9 -42 -28.5 -76t-46.5 -61t-59 -49t-64 -40q-30 -18 -64 -30t-66 -19.5t-58 -11t-38 -4.5q-12 -2 -23.5 -2.5t-22.5 -0.5q-81 0 -159 29t-142.5 79.5 t-110.5 119.5q-8 11 -15 23q7 -30 17 -60q27 -84 81 -160q4 -7 3 -13.5t-8 -11.5q-4 -4 -10 -4q-9 0 -13 9q-26 36 -45 73t-34 76q-37 -24 -75 -47t-80 -40q-12 -5 -24 -10.5t-25 -12.5q-29 -14 -58 -26t-58 -17q-53 -11 -116 -11q-46 0 -93 8.5t-89 31.5q-41 22 -70 56.5 t-49.5 74.5t-33 82.5t-19.5 80.5zM140 288q6 -29 16.5 -67t28.5 -76t44 -71.5t64 -53.5q33 -18 69 -26.5t72.5 -10t71 1.5t63.5 9q25 5 58.5 19t61.5 28q6 3 18.5 8t25.5 11t25 11t17 8q21 11 36.5 20.5t27.5 17.5l22 15l22 14h1q-20 64 -29 130q-8 55 -10 111q-4 34 -3 71 q0 24 2 48q1 20 2 39q3 69 7 137q5 74 15.5 134t23.5 124q-26 14 -57 27.5t-66 24t-74.5 16.5t-81.5 6q-42 -1 -92 -18t-98.5 -43t-90 -58.5t-66.5 -63.5q-90 -109 -122 -248.5t-4 -294.5zM879 392q3 -25 8 -48q47 34 110.5 60.5t125.5 49.5q26 10 50.5 19t44.5 19 q74 32 143.5 69.5t134.5 74.5q42 24 75.5 47.5t58 42.5t38.5 33t16 19q0 2 -3 13t-12 29q-20 42 -50.5 72t-66.5 50.5t-74 33t-72 19.5q-35 8 -69 8q-46 0 -95 -10.5t-94.5 -31.5t-86 -52.5t-69.5 -73.5q-35 -51 -60 -113t-39 -127q-9 -39 -13 -78v-2q0 -9 -1 -17 q-2 -54 0 -106z" />
<glyph unicode="&#xe7;" horiz-adv-x="1052" d="M141 448q15 159 88 325q16 34 42 78.5t62.5 86t83.5 72.5t107 40q122 20 226.5 -18t182.5 -132q7 -5 5.5 -12.5t-7.5 -12.5q-5 -5 -12 -4t-11 6q-75 87 -171 122t-208 18q-53 -8 -96 -37.5t-76 -67.5t-57 -79.5t-39 -73.5q-38 -80 -58.5 -159t-28.5 -156q-7 -74 6 -136.5 t38.5 -113t60.5 -90t72.5 -67t75 -43.5t68.5 -20q36 -5 88.5 2.5t112.5 28.5t122.5 57t118.5 89q5 4 12 4t12 -4q5 -5 5 -12.5t-5 -12.5q-50 -48 -106.5 -83t-114 -58.5t-112.5 -35t-101 -11.5h-18t-18 2q-33 4 -74 21t-82 47t-79.5 72.5t-66.5 97.5t-42 122.5t-6 147.5z M307.5 -296q-0.5 7 5.5 13q5 5 11.5 5t11.5 -5q24 -23 57.5 -43t70 -33.5t73.5 -19t68 0.5q24 6 44.5 20.5t34.5 34t20.5 43.5t3.5 48q-5 36 -10.5 62t-14.5 46.5t-23 36t-35 29.5q-6 5 -12.5 4.5t-15.5 -2.5q-4 -1 -0.5 5.5t10.5 14t14 13t10 3.5q30 -21 49.5 -42t31.5 -45 t19 -53t13 -68q3 -32 -5.5 -61.5t-26.5 -54t-43.5 -42.5t-55.5 -26q-12 -2 -23 -4t-23 -2q-33 0 -68.5 9t-69 24t-64 34.5t-52.5 40.5q-5 7 -5.5 14z" />
<glyph unicode="&#xe8;" horiz-adv-x="1122" d="M90.5 458q1.5 69 16 139t41.5 136.5t64 121.5q37 54 92.5 92.5t117 60t124.5 27t116 -4.5q37 -8 78 -22t80 -36.5t72.5 -56t55.5 -80.5q17 -35 17.5 -49.5t-1.5 -18.5q-4 -12 -23.5 -31t-48 -41.5t-63 -45.5t-68.5 -43q-66 -38 -136 -75.5t-145 -70.5q-22 -9 -46.5 -18.5 t-50.5 -19.5q-65 -24 -130 -52t-110 -62q21 -69 65 -128t102 -101.5t127 -67t140 -24.5h22t22 2q63 7 119.5 23t93.5 37q31 18 60 38t53.5 44.5t42 54t25.5 66.5q2 8 8 11.5t13 1.5q8 -1 11.5 -7t1.5 -12q-9 -42 -28.5 -76t-46.5 -61t-59 -49t-64 -40q-30 -18 -64 -30 t-66 -19.5t-58 -11t-38 -4.5q-12 -2 -23.5 -2.5t-22.5 -0.5q-81 0 -159 29t-142.5 79.5t-110.5 119.5t-64 149q-14 60 -12.5 129zM125 465.5q-2 -64.5 10 -121.5q47 34 110.5 60.5t125.5 49.5q26 10 50.5 19t44.5 19q74 32 143.5 69.5t134.5 74.5q42 24 75.5 47.5t58 42.5 t38.5 33t16 19q0 2 -3 13t-12 29q-20 42 -50.5 72t-66.5 50.5t-74 33t-72 19.5q-35 8 -69 8q-46 0 -95 -10.5t-94.5 -31.5t-86 -52.5t-69.5 -73.5q-35 -51 -60 -113t-39 -127t-16 -129.5zM336.5 1613.5q3.5 10.5 23.5 4.5q83 -40 171 -168q126 -166 140 -231q4 -18 -7 -22 t-19 9q-5 9 -31 50l-100 149q-53 73 -112 132q-53 46 -64 59q-5 7 -1.5 17.5z" />
<glyph unicode="&#xe9;" horiz-adv-x="1122" d="M90.5 458q1.5 69 16 139t41.5 136.5t64 121.5q37 54 92.5 92.5t117 60t124.5 27t116 -4.5q37 -8 78 -22t80 -36.5t72.5 -56t55.5 -80.5q17 -35 17.5 -49.5t-1.5 -18.5q-4 -12 -23.5 -31t-48 -41.5t-63 -45.5t-68.5 -43q-66 -38 -136 -75.5t-145 -70.5q-22 -9 -46.5 -18.5 t-50.5 -19.5q-65 -24 -130 -52t-110 -62q21 -69 65 -128t102 -101.5t127 -67t140 -24.5h22t22 2q63 7 119.5 23t93.5 37q31 18 60 38t53.5 44.5t42 54t25.5 66.5q2 8 8 11.5t13 1.5q8 -1 11.5 -7t1.5 -12q-9 -42 -28.5 -76t-46.5 -61t-59 -49t-64 -40q-30 -18 -64 -30 t-66 -19.5t-58 -11t-38 -4.5q-12 -2 -23.5 -2.5t-22.5 -0.5q-81 0 -159 29t-142.5 79.5t-110.5 119.5t-64 149q-14 60 -12.5 129zM125 465.5q-2 -64.5 10 -121.5q47 34 110.5 60.5t125.5 49.5q26 10 50.5 19t44.5 19q74 32 143.5 69.5t134.5 74.5q42 24 75.5 47.5t58 42.5 t38.5 33t16 19q0 2 -3 13t-12 29q-20 42 -50.5 72t-66.5 50.5t-74 33t-72 19.5q-35 8 -69 8q-46 0 -95 -10.5t-94.5 -31.5t-86 -52.5t-69.5 -73.5q-35 -51 -60 -113t-39 -127t-16 -129.5zM560 1214q4 19 148 251q97 139 171 183q22 6 26 -5t-2 -19q-12 -14 -59 -60 q-70 -68 -119 -148l-99 -166q-29 -44 -40 -56q-12 -10 -22.5 -2.5t-3.5 22.5z" />
<glyph unicode="&#xea;" horiz-adv-x="1122" d="M90.5 458q1.5 69 16 139t41.5 136.5t64 121.5q37 54 92.5 92.5t117 60t124.5 27t116 -4.5q37 -8 78 -22t80 -36.5t72.5 -56t55.5 -80.5q17 -35 17.5 -49.5t-1.5 -18.5q-4 -12 -23.5 -31t-48 -41.5t-63 -45.5t-68.5 -43q-66 -38 -136 -75.5t-145 -70.5q-22 -9 -46.5 -18.5 t-50.5 -19.5q-65 -24 -130 -52t-110 -62q21 -69 65 -128t102 -101.5t127 -67t140 -24.5h22t22 2q63 7 119.5 23t93.5 37q31 18 60 38t53.5 44.5t42 54t25.5 66.5q2 8 8 11.5t13 1.5q8 -1 11.5 -7t1.5 -12q-9 -42 -28.5 -76t-46.5 -61t-59 -49t-64 -40q-30 -18 -64 -30 t-66 -19.5t-58 -11t-38 -4.5q-12 -2 -23.5 -2.5t-22.5 -0.5q-81 0 -159 29t-142.5 79.5t-110.5 119.5t-64 149q-14 60 -12.5 129zM125 465.5q-2 -64.5 10 -121.5q47 34 110.5 60.5t125.5 49.5q26 10 50.5 19t44.5 19q74 32 143.5 69.5t134.5 74.5q42 24 75.5 47.5t58 42.5 t38.5 33t16 19q0 2 -3 13t-12 29q-20 42 -50.5 72t-66.5 50.5t-74 33t-72 19.5q-35 8 -69 8q-46 0 -95 -10.5t-94.5 -31.5t-86 -52.5t-69.5 -73.5q-35 -51 -60 -113t-39 -127t-16 -129.5zM201.5 1223.5q1.5 7.5 7.5 12.5q60 57 107.5 114t90 114t84 112.5t89.5 108.5 q12 11 33.5 -2.5t45.5 -42.5q22 -27 36 -43.5t26.5 -31t27.5 -30t39 -40.5q22 -23 50 -51.5t57.5 -58t57.5 -59t49 -53.5q4 -6 3.5 -14t-5.5 -13t-13 -4t-12 6q-21 24 -48.5 53.5t-57 59.5t-57.5 58l-51 51q-24 25 -39 41.5t-27.5 30.5t-26.5 31t-36 44q-23 25 -30.5 29.5 t-8.5 4.5t-3.5 -3t-4.5 -6l-4 -6q-2 -2 -3.5 -4t-1.5 -3q-39 -58 -76 -111.5t-77 -105.5t-86.5 -103t-106.5 -103q-2 -2 -5 -3t-5 -1q-8 0 -15 9q-5 5 -3.5 12.5z" />
<glyph unicode="&#xeb;" horiz-adv-x="1122" d="M90.5 458q1.5 69 16 139t41.5 136.5t64 121.5q37 54 92.5 92.5t117 60t124.5 27t116 -4.5q37 -8 78 -22t80 -36.5t72.5 -56t55.5 -80.5q17 -35 17.5 -49.5t-1.5 -18.5q-4 -12 -23.5 -31t-48 -41.5t-63 -45.5t-68.5 -43q-66 -38 -136 -75.5t-145 -70.5q-22 -9 -46.5 -18.5 t-50.5 -19.5q-65 -24 -130 -52t-110 -62q21 -69 65 -128t102 -101.5t127 -67t140 -24.5h22t22 2q63 7 119.5 23t93.5 37q31 18 60 38t53.5 44.5t42 54t25.5 66.5q2 8 8 11.5t13 1.5q8 -1 11.5 -7t1.5 -12q-9 -42 -28.5 -76t-46.5 -61t-59 -49t-64 -40q-30 -18 -64 -30 t-66 -19.5t-58 -11t-38 -4.5q-12 -2 -23.5 -2.5t-22.5 -0.5q-81 0 -159 29t-142.5 79.5t-110.5 119.5t-64 149q-14 60 -12.5 129zM125 465.5q-2 -64.5 10 -121.5q47 34 110.5 60.5t125.5 49.5q26 10 50.5 19t44.5 19q74 32 143.5 69.5t134.5 74.5q42 24 75.5 47.5t58 42.5 t38.5 33t16 19q0 2 -3 13t-12 29q-20 42 -50.5 72t-66.5 50.5t-74 33t-72 19.5q-35 8 -69 8q-46 0 -95 -10.5t-94.5 -31.5t-86 -52.5t-69.5 -73.5q-35 -51 -60 -113t-39 -127t-16 -129.5zM269 1382q0 15 20 30t38 15q70 0 70 -56q0 -16 -24 -30q-21 -14 -40 -14 q-64 0 -64 55zM845 1379q0 36 24 48q14 6 54 6q19 0 37 -16.5t18 -32.5q0 -49 -75 -49q-21 0 -38 12q-20 12 -20 32z" />
<glyph unicode="&#xec;" horiz-adv-x="574" d="M56.5 1613.5q3.5 10.5 23.5 4.5q83 -40 171 -168q126 -166 140 -231q4 -18 -7 -22t-19 9q-5 9 -31 50l-100 149q-53 73 -112 132q-53 46 -64 59q-5 7 -1.5 17.5zM266 454q0 94 2 234t2 279q0 38 4 46.5t15 8.5t14.5 -8.5t3.5 -46.5q0 -139 -1.5 -279t-1.5 -234 q0 -60 0.5 -179t0.5 -222q0 -44 -5 -50.5t-14 -6.5q-7 0 -12.5 5t-5.5 52q0 103 -1 222t-1 179z" />
<glyph unicode="&#xed;" horiz-adv-x="574" d="M154 1214q4 19 148 251q97 139 171 183q22 6 26 -5t-2 -19q-12 -14 -59 -60q-70 -68 -119 -148l-99 -166q-29 -44 -40 -56q-12 -10 -22.5 -2.5t-3.5 22.5zM266 454q0 94 2 234t2 279q0 38 4 46.5t15 8.5t14.5 -8.5t3.5 -46.5q0 -139 -1.5 -279t-1.5 -234q0 -60 0.5 -179 t0.5 -222q0 -44 -5 -50.5t-14 -6.5q-7 0 -12.5 5t-5.5 52q0 103 -1 222t-1 179z" />
<glyph unicode="&#xee;" horiz-adv-x="574" d="M-128.5 1175.5q1.5 7.5 7.5 12.5q60 57 107.5 114t90 114t84 112.5t89.5 108.5q12 11 33.5 -2.5t45.5 -42.5q22 -27 36 -43.5t26.5 -31t27.5 -30t39 -40.5q22 -23 50 -51.5t57.5 -58t57.5 -59t49 -53.5q4 -6 3.5 -14t-5.5 -13t-13 -4t-12 6q-21 24 -48.5 53.5t-57 59.5 t-57.5 58l-51 51q-24 25 -39 41.5t-27.5 30.5t-26.5 31t-36 44q-23 25 -30.5 29.5t-8.5 4.5t-3.5 -3t-4.5 -6l-4 -6q-2 -2 -3.5 -4t-1.5 -3q-39 -58 -76 -111.5t-77 -105.5t-86.5 -103t-106.5 -103q-2 -2 -5 -3t-5 -1q-8 0 -15 9q-5 5 -3.5 12.5zM266 454q0 94 2 234t2 279 q0 38 4 46.5t15 8.5t14.5 -8.5t3.5 -46.5q0 -139 -1.5 -279t-1.5 -234q0 -60 0.5 -179t0.5 -222q0 -44 -5 -50.5t-14 -6.5q-7 0 -12.5 5t-5.5 52q0 103 -1 222t-1 179z" />
<glyph unicode="&#xef;" horiz-adv-x="574" d="M-54 1285q0 15 20 30t38 15q70 0 70 -56q0 -16 -24 -30q-21 -14 -40 -14q-64 0 -64 55zM266 454q0 94 2 234t2 279q0 38 4 46.5t15 8.5t14.5 -8.5t3.5 -46.5q0 -139 -1.5 -279t-1.5 -234q0 -60 0.5 -179t0.5 -222q0 -44 -5 -50.5t-14 -6.5q-7 0 -12.5 5t-5.5 52 q0 103 -1 222t-1 179zM522 1282q0 36 24 48q14 6 54 6q19 0 37 -16.5t18 -32.5q0 -49 -75 -49q-21 0 -38 12q-20 12 -20 32z" />
<glyph unicode="&#xf0;" horiz-adv-x="1042" d="M224 397q5 72 32 141t73 127q48 60 109 100.5t130 57.5q42 10 80.5 15.5t75.5 6.5q19 0 38 -1t38 -3q13 -2 25.5 -2.5t24.5 -1.5q-9 21 -18.5 42.5t-20.5 43.5q-33 66 -72 127.5t-79 121.5q-12 19 -24.5 38t-25.5 39q-14 -5 -26 -10.5t-24 -10.5q-23 -9 -45 -18.5 t-48 -22.5q-20 -10 -37.5 -19.5t-37 -22t-43 -29.5t-54.5 -41q-4 -4 -11 -4q-8 0 -14 7q-4 5 -3 12t7 12q32 25 56 42.5t44.5 30.5t38.5 23t38 20q27 14 50 23.5t46 18.5q11 5 21.5 9.5t22.5 9.5q-99 149 -210 205q-15 8 -8 24q3 6 10 8.5t13 -1.5q122 -61 227 -222 q2 2 4.5 2.5t4.5 2.5q66 32 128 59.5t127 50.5q7 2 13.5 -1t8.5 -10t-1 -13.5t-10 -8.5q-63 -22 -124 -49.5t-127 -59.5q-1 0 -5 -2q12 -19 24 -37t23 -36q41 -61 80 -123.5t73 -128.5q14 -29 26.5 -57t23.5 -56v-1q7 -16 13 -35q10 -29 20.5 -65t18.5 -78t13.5 -88t5.5 -95 q0 -188 -89 -316q-26 -38 -63.5 -68.5t-81 -52.5t-91.5 -34t-96 -12h-1q-78 1 -140.5 32t-104.5 91q-19 28 -33.5 62.5t-24 72.5t-13.5 78.5t-1 79.5zM259 395q-3 -36 0.5 -73.5t12.5 -73t22.5 -68t30.5 -57.5q36 -52 91.5 -79.5t124.5 -27.5h1q88 0 171 42q42 21 75.5 49 t56.5 62q83 118 83 295q0 95 -18 176.5t-38 138.5q-2 5 -4 11l-4 12q-17 0 -33.5 1t-33.5 3t-33 3t-33 1h-7q-71 -2 -147 -21q-64 -16 -120.5 -53.5t-100.5 -92.5q-43 -54 -67.5 -117.5t-29.5 -130.5z" />
<glyph unicode="&#xf1;" horiz-adv-x="1072" d="M155.5 126q-0.5 83 2.5 157q2 24 4 49.5t4 50.5q0 2 -0.5 3t0.5 3q0 1 0.5 1.5t0.5 1.5q2 16 3 32.5t3 33.5q7 63 13 126.5t4 123.5l-2 40t-3 40q-2 26 -3 51.5t-1 51.5q0 51 -4 94t-7 61q-2 7 2.5 12.5t11.5 7.5q17 0 19 -15q3 -19 7 -63.5t4 -96.5q0 -25 1.5 -50.5 t3.5 -50.5q1 -20 2 -41t1 -41q2 -48 -1.5 -96t-8.5 -99q11 26 21 49.5t19 40.5l21 41q38 72 74 134.5t85 123.5q20 26 58 54.5t83 51.5t92.5 36t86.5 8q42 -6 70 -34t46.5 -70.5t28 -95t14 -107t5 -106.5t0.5 -94v-40q1 -30 5 -71.5t9 -89.5q5 -32 8 -63.5t5 -60.5l3 -29 q3 -45 9 -102.5t22 -111.5q3 -15 -13 -22h-4q-13 0 -17 13q-16 57 -22 116.5t-9 104.5l-2 29q-2 29 -5.5 60t-6.5 63q-6 48 -10.5 90.5t-4.5 73.5v40q0 37 -0.5 85t-4.5 99t-12 100.5t-23 90t-38.5 66.5t-57.5 31q-30 5 -71.5 -6t-83 -31.5t-78 -46.5t-56.5 -52 q-47 -59 -82 -120.5t-72 -131.5l-22 -42q-10 -18 -21 -43t-21.5 -52t-20.5 -55t-18 -53q-2 -26 -4.5 -52t-3.5 -51q-5 -72 -4 -154t14 -160q1 -7 -2.5 -12.5t-10.5 -7.5h-4q-13 0 -16 15q-14 81 -14.5 164zM161.5 1256.5q-2.5 6.5 0.5 12.5q27 60 58 108.5t66 87.5 q32 33 71 48.5t83 10.5q45 -5 83 -31.5t64 -68.5l3 -6q19 -31 38.5 -61t44 -53.5t54.5 -38t70 -14.5h6q41 1 73 16t57 37.5t42.5 50.5t30 56.5t20 54.5t11.5 45q2 7 7.5 11t13.5 2q6 -1 10.5 -7t2.5 -13q-4 -21 -12.5 -50t-22.5 -60.5t-34.5 -62.5t-48.5 -56t-65 -41 t-84 -17h-7q-47 0 -82.5 16.5t-63.5 43t-49.5 59t-40.5 64.5l-4 6q-22 35 -53.5 57t-67.5 27q-70 8 -123 -48q-69 -75 -119 -187q-2 -6 -9 -8.5t-13 0.5q-8 3 -10.5 9.5z" />
<glyph unicode="&#xf2;" horiz-adv-x="1077" d="M125 474q1 67 16.5 142.5t48.5 146.5t84 131.5t125 96.5q32 16 70.5 24.5t80 9.5t84 -5.5t82.5 -21.5q46 -17 84 -54.5t65.5 -85.5t45.5 -103t26 -106q23 -150 3.5 -278t-81.5 -233q-55 -94 -140 -144.5t-188 -50.5q-47 0 -92 11t-84 32q-52 29 -89 67.5t-63 81.5 t-41.5 89t-24 90.5t-11 85.5t-1.5 74zM159 472q-1 -46 5 -108t28 -126t65 -123t115 -99q34 -20 75 -29.5t84 -9.5q93 0 171 46t129 133q116 198 74 489q-8 49 -25 100t-42.5 95.5t-59 78.5t-72.5 48q-35 13 -73 19t-74 6q-41 0 -77.5 -7.5t-68.5 -23.5q-68 -34 -116 -90.5 t-78 -124t-44.5 -139t-15.5 -135.5zM409.5 1613.5q3.5 10.5 23.5 4.5q83 -40 171 -168q126 -166 140 -231q4 -18 -7 -22t-19 9q-5 9 -31 50l-100 149q-53 73 -112 132q-53 46 -64 59q-5 7 -1.5 17.5z" />
<glyph unicode="&#xf3;" horiz-adv-x="1077" d="M125 474q1 67 16.5 142.5t48.5 146.5t84 131.5t125 96.5q32 16 70.5 24.5t80 9.5t84 -5.5t82.5 -21.5q46 -17 84 -54.5t65.5 -85.5t45.5 -103t26 -106q23 -150 3.5 -278t-81.5 -233q-55 -94 -140 -144.5t-188 -50.5q-47 0 -92 11t-84 32q-52 29 -89 67.5t-63 81.5 t-41.5 89t-24 90.5t-11 85.5t-1.5 74zM159 472q-1 -46 5 -108t28 -126t65 -123t115 -99q34 -20 75 -29.5t84 -9.5q93 0 171 46t129 133q116 198 74 489q-8 49 -25 100t-42.5 95.5t-59 78.5t-72.5 48q-35 13 -73 19t-74 6q-41 0 -77.5 -7.5t-68.5 -23.5q-68 -34 -116 -90.5 t-78 -124t-44.5 -139t-15.5 -135.5zM547 1214q4 19 148 251q97 139 171 183q22 6 26 -5t-2 -19q-12 -14 -59 -60q-70 -68 -119 -148l-99 -166q-29 -44 -40 -56q-12 -10 -22.5 -2.5t-3.5 22.5z" />
<glyph unicode="&#xf4;" horiz-adv-x="1077" d="M125 474q1 67 16.5 142.5t48.5 146.5t84 131.5t125 96.5q32 16 70.5 24.5t80 9.5t84 -5.5t82.5 -21.5q46 -17 84 -54.5t65.5 -85.5t45.5 -103t26 -106q23 -150 3.5 -278t-81.5 -233q-55 -94 -140 -144.5t-188 -50.5q-47 0 -92 11t-84 32q-52 29 -89 67.5t-63 81.5 t-41.5 89t-24 90.5t-11 85.5t-1.5 74zM159 472q-1 -46 5 -108t28 -126t65 -123t115 -99q34 -20 75 -29.5t84 -9.5q93 0 171 46t129 133q116 198 74 489q-8 49 -25 100t-42.5 95.5t-59 78.5t-72.5 48q-35 13 -73 19t-74 6q-41 0 -77.5 -7.5t-68.5 -23.5q-68 -34 -116 -90.5 t-78 -124t-44.5 -139t-15.5 -135.5zM185.5 1223.5q1.5 7.5 7.5 12.5q60 57 107.5 114t90 114t84 112.5t89.5 108.5q12 11 33.5 -2.5t45.5 -42.5q22 -27 36 -43.5t26.5 -31t27.5 -30t39 -40.5q22 -23 50 -51.5t57.5 -58t57.5 -59t49 -53.5q4 -6 3.5 -14t-5.5 -13t-13 -4 t-12 6q-21 24 -48.5 53.5t-57 59.5t-57.5 58l-51 51q-24 25 -39 41.5t-27.5 30.5t-26.5 31t-36 44q-23 25 -30.5 29.5t-8.5 4.5t-3.5 -3t-4.5 -6l-4 -6q-2 -2 -3.5 -4t-1.5 -3q-39 -58 -76 -111.5t-77 -105.5t-86.5 -103t-106.5 -103q-2 -2 -5 -3t-5 -1q-8 0 -15 9 q-5 5 -3.5 12.5z" />
<glyph unicode="&#xf5;" horiz-adv-x="1077" d="M125 474q1 67 16.5 142.5t48.5 146.5t84 131.5t125 96.5q32 16 70.5 24.5t80 9.5t84 -5.5t82.5 -21.5q46 -17 84 -54.5t65.5 -85.5t45.5 -103t26 -106q23 -150 3.5 -278t-81.5 -233q-55 -94 -140 -144.5t-188 -50.5q-47 0 -92 11t-84 32q-52 29 -89 67.5t-63 81.5 t-41.5 89t-24 90.5t-11 85.5t-1.5 74zM159 472q-1 -46 5 -108t28 -126t65 -123t115 -99q34 -20 75 -29.5t84 -9.5q93 0 171 46t129 133q116 198 74 489q-8 49 -25 100t-42.5 95.5t-59 78.5t-72.5 48q-35 13 -73 19t-74 6q-41 0 -77.5 -7.5t-68.5 -23.5q-68 -34 -116 -90.5 t-78 -124t-44.5 -139t-15.5 -135.5zM180.5 1256.5q-2.5 6.5 0.5 12.5q27 60 58 108.5t66 87.5q32 33 71 48.5t83 10.5q45 -5 83 -31.5t64 -68.5l3 -6q19 -31 38.5 -61t44 -53.5t54.5 -38t70 -14.5h6q41 1 73 16t57 37.5t42.5 50.5t30 56.5t20 54.5t11.5 45q2 7 7.5 11 t13.5 2q6 -1 10.5 -7t2.5 -13q-4 -21 -12.5 -50t-22.5 -60.5t-34.5 -62.5t-48.5 -56t-65 -41t-84 -17h-7q-47 0 -82.5 16.5t-63.5 43t-49.5 59t-40.5 64.5l-4 6q-22 35 -53.5 57t-67.5 27q-70 8 -123 -48q-69 -75 -119 -187q-2 -6 -9 -8.5t-13 0.5q-8 3 -10.5 9.5z" />
<glyph unicode="&#xf6;" horiz-adv-x="1077" d="M125 474q1 67 16.5 142.5t48.5 146.5t84 131.5t125 96.5q32 16 70.5 24.5t80 9.5t84 -5.5t82.5 -21.5q46 -17 84 -54.5t65.5 -85.5t45.5 -103t26 -106q23 -150 3.5 -278t-81.5 -233q-55 -94 -140 -144.5t-188 -50.5q-47 0 -92 11t-84 32q-52 29 -89 67.5t-63 81.5 t-41.5 89t-24 90.5t-11 85.5t-1.5 74zM159 472q-1 -46 5 -108t28 -126t65 -123t115 -99q34 -20 75 -29.5t84 -9.5q93 0 171 46t129 133q116 198 74 489q-8 49 -25 100t-42.5 95.5t-59 78.5t-72.5 48q-35 13 -73 19t-74 6q-41 0 -77.5 -7.5t-68.5 -23.5q-68 -34 -116 -90.5 t-78 -124t-44.5 -139t-15.5 -135.5zM713 1285q0 15 20 30t38 15q70 0 70 -56q0 -16 -24 -30q-21 -14 -40 -14q-64 0 -64 55zM1289 1282q0 36 24 48q14 6 54 6q19 0 37 -16.5t18 -32.5q0 -49 -75 -49q-21 0 -38 12q-20 12 -20 32z" />
<glyph unicode="&#xf7;" horiz-adv-x="984" d="M44 642q-2 7 1.5 13t10.5 8q21 6 43.5 9t42 4.5t33.5 1t17 -0.5q5 1 10.5 1t10.5 1q14 1 31 2t39.5 2t51.5 1.5t67 0.5q14 0 44 -0.5t65.5 -1.5t71.5 -3t63 -4q62 -4 100 -6t64 -2h11t23 -1t27.5 -4t26.5 -8q7 -2 9.5 -8.5t-0.5 -13.5q-5 -11 -16 -11q-3 0 -7 2 q-16 7 -40 8.5t-34 1.5q-26 0 -65 2t-101 6h-1q-112 8 -217.5 10t-209.5 -7q-6 0 -12 -0.5t-11 -0.5h-1h-12.5t-31.5 -1t-41 -4t-41 -9q-7 -2 -13.5 1.5t-8.5 10.5zM406 1051q0 44 46 44q44 0 44 -44t-45 -44t-45 44zM422 273q0 21 13.5 35.5t32.5 14.5q21 0 35 -14.5 t14 -35.5q0 -20 -14 -33.5t-35 -13.5q-19 0 -32.5 13.5t-13.5 33.5z" />
<glyph unicode="&#xf8;" horiz-adv-x="1077" d="M82 -23q3 6 14 20t27.5 33t37 42t43.5 48q-14 21 -26.5 44.5t-23.5 49.5q-14 34 -23.5 87t-8.5 119.5t14.5 146t45.5 168.5q26 73 63.5 124t79.5 84.5t85 52.5t79 28.5t62 11.5t34 2q50 0 92 -16.5t76.5 -41.5t61 -54.5t45.5 -55.5l134 158q3 3 8 4t7 -2q10 -7 2 -15 l-138 -163q28 -45 44.5 -93t24.5 -96t9 -95t0 -91q-5 -104 -40.5 -200t-98.5 -177q-57 -71 -134 -107.5t-165 -36.5q-31 0 -61 4t-58 13q-106 33 -177 128q-22 -24 -42 -46.5l-36 -40.5t-26.5 -30.5t-13.5 -18.5q-4 -4 -9 -4h-4q-10 7 -4 16zM156 371q4 -63 15.5 -100 t14.5 -44q9 -23 20 -43t22 -38q32 34 63.5 68t57 61.5t42.5 45.5t20 21l426 502q-17 23 -41 51t-55.5 52t-70 40.5t-83.5 17.5q-8 0 -32 -2t-57.5 -10.5t-73 -26t-78.5 -49t-74 -79t-59 -116.5q-40 -111 -50.5 -199.5t-6.5 -151.5zM240 127q66 -91 163 -122q27 -8 54 -12.5 t56 -4.5q79 0 150 34.5t122 98.5q60 75 94 167t39 191q1 40 0 83.5t-8 88t-21 88.5t-39 86l-423 -498q-16 -17 -37.5 -39.5t-46 -49t-51 -55t-52.5 -56.5z" />
<glyph unicode="&#xf9;" horiz-adv-x="1065" d="M135.5 612.5q1.5 78.5 9.5 172.5q1 21 1.5 38.5t2.5 34.5q0 19 1 38.5t3 42t5.5 50t9.5 63.5q1 8 7 12.5t13 2.5q7 -1 11.5 -7t2.5 -13q-5 -35 -8 -62t-5 -49.5t-3 -41.5l-2 -38q-1 -17 -1.5 -35t-2.5 -39q-7 -93 -8.5 -170t0.5 -148q3 -84 11.5 -153.5t20.5 -131.5 q3 -13 8.5 -29t12 -31.5t15 -28t17.5 -16.5q2 -1 12 -5t21 -8.5t20.5 -9t11.5 -5.5q19 -11 50.5 -17t79.5 -14q77 -11 139 -7.5t115 16.5q19 4 43 13t48 21t45 26t34 29q-3 50 -5 103t-2 116q-1 38 -1 76v77q1 60 0.5 120t-2.5 122q-2 54 0.5 105t5.5 110q1 22 1.5 47 t2.5 52q2 17 18 17q8 0 13 -5.5t5 -14.5q-1 -26 -2.5 -50.5t-2.5 -47.5q-3 -58 -5.5 -108.5t0.5 -103.5q2 -61 2 -122v-121v-152q2 -66 3.5 -120t4.5 -105q2 -16 3 -31t3 -30q3 -32 5.5 -64t2.5 -65q0 -7 -5 -12t-13 -5t-13 4.5t-5 11.5q-1 32 -3.5 64t-4.5 64q-1 6 -1 12 t-1 11q-18 -14 -39.5 -26.5t-44 -23t-44 -18t-38.5 -11.5q-68 -15 -148 -15q-54 0 -118 6q-26 3 -54.5 9.5t-55.5 14t-49 16t-34 14.5l-6 4l-6 4q-11 5 -20.5 11t-18 16t-15 26t-12.5 41q-6 30 -12.5 69t-12 82t-10 88t-5.5 87q-3 72 -1.5 150.5zM367.5 1621.5 q3.5 10.5 23.5 4.5q83 -40 171 -168q126 -166 140 -231q4 -18 -7 -22t-19 9q-5 9 -31 50l-100 149q-53 73 -112 132q-53 46 -64 59q-5 7 -1.5 17.5z" />
<glyph unicode="&#xfa;" horiz-adv-x="1065" d="M135.5 612.5q1.5 78.5 9.5 172.5q1 21 1.5 38.5t2.5 34.5q0 19 1 38.5t3 42t5.5 50t9.5 63.5q1 8 7 12.5t13 2.5q7 -1 11.5 -7t2.5 -13q-5 -35 -8 -62t-5 -49.5t-3 -41.5l-2 -38q-1 -17 -1.5 -35t-2.5 -39q-7 -93 -8.5 -170t0.5 -148q3 -84 11.5 -153.5t20.5 -131.5 q3 -13 8.5 -29t12 -31.5t15 -28t17.5 -16.5q2 -1 12 -5t21 -8.5t20.5 -9t11.5 -5.5q19 -11 50.5 -17t79.5 -14q77 -11 139 -7.5t115 16.5q19 4 43 13t48 21t45 26t34 29q-3 50 -5 103t-2 116q-1 38 -1 76v77q1 60 0.5 120t-2.5 122q-2 54 0.5 105t5.5 110q1 22 1.5 47 t2.5 52q2 17 18 17q8 0 13 -5.5t5 -14.5q-1 -26 -2.5 -50.5t-2.5 -47.5q-3 -58 -5.5 -108.5t0.5 -103.5q2 -61 2 -122v-121v-152q2 -66 3.5 -120t4.5 -105q2 -16 3 -31t3 -30q3 -32 5.5 -64t2.5 -65q0 -7 -5 -12t-13 -5t-13 4.5t-5 11.5q-1 32 -3.5 64t-4.5 64q-1 6 -1 12 t-1 11q-18 -14 -39.5 -26.5t-44 -23t-44 -18t-38.5 -11.5q-68 -15 -148 -15q-54 0 -118 6q-26 3 -54.5 9.5t-55.5 14t-49 16t-34 14.5l-6 4l-6 4q-11 5 -20.5 11t-18 16t-15 26t-12.5 41q-6 30 -12.5 69t-12 82t-10 88t-5.5 87q-3 72 -1.5 150.5zM535 1214q4 19 148 251 q97 139 171 183q22 6 26 -5t-2 -19q-12 -14 -59 -60q-70 -68 -119 -148l-99 -166q-29 -44 -40 -56q-12 -10 -22.5 -2.5t-3.5 22.5z" />
<glyph unicode="&#xfb;" horiz-adv-x="1065" d="M135.5 612.5q1.5 78.5 9.5 172.5q1 21 1.5 38.5t2.5 34.5q0 19 1 38.5t3 42t5.5 50t9.5 63.5q1 8 7 12.5t13 2.5q7 -1 11.5 -7t2.5 -13q-5 -35 -8 -62t-5 -49.5t-3 -41.5l-2 -38q-1 -17 -1.5 -35t-2.5 -39q-7 -93 -8.5 -170t0.5 -148q3 -84 11.5 -153.5t20.5 -131.5 q3 -13 8.5 -29t12 -31.5t15 -28t17.5 -16.5q2 -1 12 -5t21 -8.5t20.5 -9t11.5 -5.5q19 -11 50.5 -17t79.5 -14q77 -11 139 -7.5t115 16.5q19 4 43 13t48 21t45 26t34 29q-3 50 -5 103t-2 116q-1 38 -1 76v77q1 60 0.5 120t-2.5 122q-2 54 0.5 105t5.5 110q1 22 1.5 47 t2.5 52q2 17 18 17q8 0 13 -5.5t5 -14.5q-1 -26 -2.5 -50.5t-2.5 -47.5q-3 -58 -5.5 -108.5t0.5 -103.5q2 -61 2 -122v-121v-152q2 -66 3.5 -120t4.5 -105q2 -16 3 -31t3 -30q3 -32 5.5 -64t2.5 -65q0 -7 -5 -12t-13 -5t-13 4.5t-5 11.5q-1 32 -3.5 64t-4.5 64q-1 6 -1 12 t-1 11q-18 -14 -39.5 -26.5t-44 -23t-44 -18t-38.5 -11.5q-68 -15 -148 -15q-54 0 -118 6q-26 3 -54.5 9.5t-55.5 14t-49 16t-34 14.5l-6 4l-6 4q-11 5 -20.5 11t-18 16t-15 26t-12.5 41q-6 30 -12.5 69t-12 82t-10 88t-5.5 87q-3 72 -1.5 150.5zM137.5 1223.5 q1.5 7.5 7.5 12.5q60 57 107.5 114t90 114t84 112.5t89.5 108.5q12 11 33.5 -2.5t45.5 -42.5q22 -27 36 -43.5t26.5 -31t27.5 -30t39 -40.5q22 -23 50 -51.5t57.5 -58t57.5 -59t49 -53.5q4 -6 3.5 -14t-5.5 -13t-13 -4t-12 6q-21 24 -48.5 53.5t-57 59.5t-57.5 58l-51 51 q-24 25 -39 41.5t-27.5 30.5t-26.5 31t-36 44q-23 25 -30.5 29.5t-8.5 4.5t-3.5 -3t-4.5 -6l-4 -6q-2 -2 -3.5 -4t-1.5 -3q-39 -58 -76 -111.5t-77 -105.5t-86.5 -103t-106.5 -103q-2 -2 -5 -3t-5 -1q-8 0 -15 9q-5 5 -3.5 12.5z" />
<glyph unicode="&#xfc;" horiz-adv-x="1065" d="M135.5 612.5q1.5 78.5 9.5 172.5q1 21 1.5 38.5t2.5 34.5q0 19 1 38.5t3 42t5.5 50t9.5 63.5q1 8 7 12.5t13 2.5q7 -1 11.5 -7t2.5 -13q-5 -35 -8 -62t-5 -49.5t-3 -41.5l-2 -38q-1 -17 -1.5 -35t-2.5 -39q-7 -93 -8.5 -170t0.5 -148q3 -84 11.5 -153.5t20.5 -131.5 q3 -13 8.5 -29t12 -31.5t15 -28t17.5 -16.5q2 -1 12 -5t21 -8.5t20.5 -9t11.5 -5.5q19 -11 50.5 -17t79.5 -14q77 -11 139 -7.5t115 16.5q19 4 43 13t48 21t45 26t34 29q-3 50 -5 103t-2 116q-1 38 -1 76v77q1 60 0.5 120t-2.5 122q-2 54 0.5 105t5.5 110q1 22 1.5 47 t2.5 52q2 17 18 17q8 0 13 -5.5t5 -14.5q-1 -26 -2.5 -50.5t-2.5 -47.5q-3 -58 -5.5 -108.5t0.5 -103.5q2 -61 2 -122v-121v-152q2 -66 3.5 -120t4.5 -105q2 -16 3 -31t3 -30q3 -32 5.5 -64t2.5 -65q0 -7 -5 -12t-13 -5t-13 4.5t-5 11.5q-1 32 -3.5 64t-4.5 64q-1 6 -1 12 t-1 11q-18 -14 -39.5 -26.5t-44 -23t-44 -18t-38.5 -11.5q-68 -15 -148 -15q-54 0 -118 6q-26 3 -54.5 9.5t-55.5 14t-49 16t-34 14.5l-6 4l-6 4q-11 5 -20.5 11t-18 16t-15 26t-12.5 41q-6 30 -12.5 69t-12 82t-10 88t-5.5 87q-3 72 -1.5 150.5zM193 1377q0 15 20 30t38 15 q70 0 70 -56q0 -16 -24 -30q-21 -14 -40 -14q-64 0 -64 55zM769 1374q0 36 24 48q14 6 54 6q19 0 37 -16.5t18 -32.5q0 -49 -75 -49q-21 0 -38 12q-20 12 -20 32z" />
<glyph unicode="&#xfd;" horiz-adv-x="1066" d="M20 1010q1 7 8 11q6 5 13 3t12 -8q38 -59 69 -116t61 -114q17 -35 34.5 -68.5t37.5 -65.5q34 -60 63.5 -114t55.5 -100q25 -48 45 -84t33 -56q33 -56 61.5 -111.5t45.5 -94.5q16 33 32 68t36 72q13 28 25 56.5t24 56.5q8 17 16 35t16 38q45 97 88.5 188.5t78.5 163.5 l15 33q27 54 52 109t37 115q2 8 7.5 11.5t13.5 1.5t11.5 -7.5t1.5 -13.5q-14 -62 -39 -119t-52 -113l-16 -32q-35 -73 -78 -163.5t-87 -189.5q-9 -17 -16.5 -35.5t-16.5 -36.5q-12 -28 -24.5 -56.5t-26.5 -56.5q-41 -83 -76 -158.5t-66.5 -149t-62 -147t-62.5 -152.5 q-4 -9 -17 -40.5t-27 -65.5q-17 -40 -37 -87l-32 13q20 47 37 87q14 34 27 65.5t17 40.5q44 110 87 212.5t91 209.5q-4 16 -14.5 42t-26 57t-34 65.5t-39.5 68.5q-14 23 -34 59t-46 84q-25 45 -54.5 99.5t-63.5 113.5q-20 34 -37.5 67.5t-35.5 68.5q-29 56 -59.5 112.5 t-68.5 113.5q-4 7 -3 14zM392 1214q4 19 148 251q97 139 171 183q22 6 26 -5t-2 -19q-12 -14 -59 -60q-70 -68 -119 -148l-99 -166q-29 -44 -40 -56q-12 -10 -22.5 -2.5t-3.5 22.5z" />
<glyph unicode="&#xfe;" horiz-adv-x="1095" d="M174.5 1120.5q-0.5 52.5 1.5 101.5q1 8 1 15.5t1 15.5q2 52 6.5 108t19.5 105q2 8 8.5 11t13.5 1t10 -8.5t1 -13.5q-14 -46 -18 -99.5t-6 -104.5q-1 -8 -1.5 -16t-0.5 -16q-2 -48 -1.5 -99.5t2.5 -108.5q1 -29 1.5 -58t0.5 -59q1 -39 1 -78.5t1 -78.5q10 15 22.5 32 t24 32t21 27t15.5 18q42 46 83.5 77.5t89.5 54.5q56 26 118 31q27 2 58.5 0t63.5 -9.5t62.5 -22t56.5 -36.5q28 -24 51 -57.5t33 -64.5q23 -72 36 -146t15 -144q3 -163 -49 -291q-14 -33 -32.5 -69t-43.5 -69t-56 -59.5t-69 -41.5q-57 -22 -117 -25h-15q-45 0 -96 12 q-54 13 -104.5 34.5t-104.5 47.5q-13 6 -25.5 12.5t-26.5 12.5q1 -9 1 -17.5v-17.5q3 -75 5.5 -152t2.5 -154q0 -26 0.5 -51.5t1.5 -51.5t1.5 -52t0.5 -52v-19q0 -10 -0.5 -19t0.5 -18q0 -4 1 -7.5t2 -8.5q2 -6 3 -13.5t0 -15.5q0 -7 -5 -11.5t-12 -4.5h-1q-7 0 -12 5t-5 13 q1 5 0 10l-2 10q-2 5 -2.5 10.5t-1.5 10.5v40v18q0 26 -0.5 51.5t-1.5 51.5t-1.5 52t-0.5 52q0 76 -2.5 153t-4.5 152q-2 27 -2.5 55t-1.5 55q-5 134 -6 267t-3 264q0 48 -0.5 97.5t-1.5 98.5q0 30 -0.5 59t-1.5 57q-2 57 -2.5 109.5zM216 675q2 -125 3 -251.5t6 -254.5v-18 t1 -18l34 -16l34 -16q51 -24 100.5 -46t100 -34t102 -11t106.5 22q34 13 62 37.5t50.5 55t40 64t29.5 63.5q50 125 46 277q-2 68 -14 139t-35 141q-9 26 -29.5 56t-43.5 50t-50.5 32.5t-56.5 19.5t-57 9t-52 0q-28 -3 -54.5 -10t-51.5 -19q-45 -20 -84.5 -50t-77.5 -73 q-8 -8 -23.5 -28t-32.5 -43t-31.5 -44t-19.5 -31q-1 -1 -1 -1.5t-1 -1.5z" />
<glyph unicode="&#xff;" horiz-adv-x="883" d="M20 1010q1 7 8 11q6 5 13 3t12 -8q38 -59 69 -116t61 -114q17 -35 34.5 -68.5t37.5 -65.5q34 -60 63.5 -114t55.5 -100q25 -48 45 -84t33 -56q33 -56 61.5 -111.5t45.5 -94.5q16 33 32 68t36 72q13 28 25 56.5t24 56.5q8 17 16 35t16 38q45 97 88.5 188.5t78.5 163.5 l15 33q27 54 52 109t37 115q2 8 7.5 11.5t13.5 1.5t11.5 -7.5t1.5 -13.5q-14 -62 -39 -119t-52 -113l-16 -32q-35 -73 -78 -163.5t-87 -189.5q-9 -17 -16.5 -35.5t-16.5 -36.5q-12 -28 -24.5 -56.5t-26.5 -56.5q-41 -83 -76 -158.5t-66.5 -149t-62 -147t-62.5 -152.5 q-4 -9 -17 -40.5t-27 -65.5q-17 -40 -37 -87l-32 13q20 47 37 87q14 34 27 65.5t17 40.5q44 110 87 212.5t91 209.5q-4 16 -14.5 42t-26 57t-34 65.5t-39.5 68.5q-14 23 -34 59t-46 84q-25 45 -54.5 99.5t-63.5 113.5q-20 34 -37.5 67.5t-35.5 68.5q-29 56 -59.5 112.5 t-68.5 113.5q-4 7 -3 14zM201 1285q0 15 20 30t38 15q70 0 70 -56q0 -16 -24 -30q-21 -14 -40 -14q-64 0 -64 55zM777 1282q0 36 24 48q14 6 54 6q19 0 37 -16.5t18 -32.5q0 -49 -75 -49q-21 0 -38 12q-20 12 -20 32z" />
<glyph unicode="&#x152;" horiz-adv-x="2445" d="M120 596q0 131 31.5 247.5t85 215.5t124.5 179t149 137.5t158.5 91.5t153.5 41q130 20 266.5 -19.5t232.5 -153.5q47 -57 78 -128q23 -55 38 -115l4 92q0 50 -2 104t-7 102.5t-13 88t-19 60.5q-3 8 -0.5 14.5t8.5 9.5q14 8 24 -8q2 -3 2 -8t2 -8q18 9 59 16t102 12.5 t139 10t170 9.5l33 2q152 11 275.5 -8t208.5 -64q6 -2 8.5 -10t-0.5 -15q-5 -8 -17 -8h-4q-2 0 -4 2q-81 42 -200 59.5t-265 9.5l-34 -2q-40 -3 -87.5 -5.5t-95.5 -5.5t-94 -6.5t-83 -8t-63 -9.5t-34 -11h-2q8 -32 13.5 -72t8.5 -83t4 -86t0 -82q-1 -73 -5 -145.5 t-10 -144.5q0 -26 -1 -54t-3 -57q39 4 108 11t153 14t176.5 14.5t179 13.5t160 9t119.5 2q8 0 13 -4.5t5 -12.5q0 -7 -5 -13t-13 -6h-15q-51 0 -126 -3.5t-161.5 -9.5t-177.5 -13t-172.5 -14t-147.5 -13q-63 -6 -99 -10q-1 -10 -2 -22l-1 -18q-1 -19 -3 -38q-1 -6 -1 -12 q-1 -3 -1 -7q-1 -18 -1 -36q-1 -26 -2 -53q-5 -54 -7.5 -110.5t0.5 -110.5v-24q0 -13 2 -28q1 -35 3 -73.5t8 -76t17.5 -71t30.5 -58.5q16 -19 63.5 -32.5t113 -22t142 -11.5t151.5 0q89 2 175.5 12.5t183.5 23.5q8 2 13.5 -1.5t5.5 -10.5q2 -8 -2 -14.5t-13 -7.5 q-97 -14 -185 -24.5t-176 -13.5h-54q-29 0 -69 1t-85 3.5t-90.5 8t-85 14.5t-70 22t-44.5 31q-23 28 -36 65t-20 76.5t-9.5 80.5t-3.5 79v27q0 7 -1 14q-17 -36 -46 -82q-77 -117 -151 -175.5t-170.5 -93.5t-218.5 -35q-20 0 -41.5 1.5t-43.5 3.5q-608 65 -608 647zM156 596 q0 -275 144.5 -428.5t430.5 -183.5q21 -3 41.5 -3.5t40.5 -0.5q116 0 207.5 34t153.5 81.5t133.5 146.5t78.5 160t15 141q4 40 7 78q0 15 1 32q1 20 1 39q0 5 1 9q1 3 1 6q1 18 3 38q-7 0 -12 3.5t-5 10.5q-2 7 2 13t11 6q4 0 6 1q2 29 3 59q2 29 4 57q-1 78 -14 150 q-28 159 -118 269q-112 141 -367 164q-23 0 -48.5 -1.5t-50.5 -4.5q-69 -6 -145 -39t-150.5 -89t-142.5 -133t-119.5 -172.5t-82 -207t-30.5 -235.5z" />
<glyph unicode="&#x153;" horiz-adv-x="1837" d="M97 478q2 64 17.5 137.5t47.5 142.5t81.5 127t119.5 93q31 16 68.5 24.5t77.5 9.5t81.5 -6t80.5 -21q45 -17 81 -53t63 -83t45 -99.5t26 -102.5q1 -5 1.5 -9t0.5 -8q15 54 37.5 104t51.5 92q34 51 85.5 87t109.5 56t116.5 25t108.5 -5q34 -7 72.5 -20t75 -34t68.5 -52 t53 -75q21 -43 15 -66q-4 -10 -22.5 -28t-45.5 -39t-60 -42.5t-65 -39.5q-119 -73 -261 -136q-20 -9 -43 -17.5t-46 -19.5q-30 -12 -61 -24t-60.5 -25t-55.5 -27t-46 -30q19 -65 59.5 -120t94.5 -95t118.5 -63t130.5 -23q11 0 20.5 1t18.5 1q61 9 114.5 24t86.5 35 q30 16 57 34.5t49.5 41t38.5 50t24 61.5q3 17 20 14q7 -2 11 -8t2 -12q-8 -39 -26.5 -70.5t-44 -57t-55.5 -46t-60 -37.5q-27 -17 -59.5 -28t-62.5 -18t-54 -11t-36 -5q-11 -2 -21.5 -2h-22.5q-75 0 -146 26t-131 71.5t-103.5 108t-62.5 136.5q-11 -46 -27.5 -88.5 t-39.5 -81.5q-53 -89 -135 -138.5t-181 -49.5q-47 0 -89.5 11.5t-80.5 31.5q-75 42 -120 102.5t-68.5 126.5t-30.5 130t-6 112zM133 476q-1 -30 1 -67t9.5 -77.5t21 -82t36.5 -80t56.5 -72.5t79.5 -59q35 -20 74 -29t81 -9q90 0 164.5 44t124.5 127q111 194 69 472 q-7 47 -23.5 96t-41.5 91.5t-57 75.5t-70 47q-34 11 -69.5 18t-70.5 7q-38 0 -74.5 -8.5t-65.5 -23.5q-65 -32 -111 -86.5t-75.5 -119.5t-43.5 -134t-15 -130zM896 462.5q-2 -60.5 10 -113.5q42 32 101.5 56.5t118.5 47.5q23 8 45 16.5t42 15.5q71 32 135 67.5t124 71.5 q39 22 71 43t55 38.5t36 30.5t14 19q5 5 -11 38q-19 39 -48 67t-63 47t-69.5 30.5t-66.5 17.5q-15 5 -32 6.5t-34 1.5q-42 0 -87.5 -10t-88 -29.5t-80 -49t-63.5 -68.5q-33 -47 -57 -104.5t-37 -118t-15 -121z" />
<glyph unicode="&#x178;" horiz-adv-x="1301" d="M35 1471.5q-1 7.5 4 12.5t12 6t12 -4q48 -41 81.5 -93t63.5 -103q11 -19 21 -37l20 -36q14 -20 28.5 -41.5t30.5 -44.5q29 -45 58.5 -89t49.5 -85q34 -67 63.5 -112.5t60.5 -86.5l34 -46t35 -52l12 -19q18 -29 37.5 -56t39.5 -54l22 46t21 45q34 70 61.5 126t40.5 80 q13 25 33.5 66t45.5 86q18 34 36 68.5t34 65t27.5 54t17.5 35.5q8 14 20 43t25 61q12 29 25 59t25 57.5t23 50t20 36.5q4 5 11 7t13 -2q5 -4 7 -11.5t-3 -14.5q-8 -12 -18.5 -33.5t-22.5 -48.5t-24 -56.5t-23 -57.5q-14 -34 -26.5 -61.5t-20.5 -43.5q-6 -12 -17.5 -36 t-27.5 -54t-34 -65t-36 -69q-25 -47 -45.5 -87t-33.5 -66q-6 -12 -17 -32.5t-24.5 -47.5t-29 -59t-31.5 -66q-33 -70 -61.5 -129.5t-50.5 -104t-36.5 -72.5t-19.5 -36q-8 -11 -22.5 -34.5t-32.5 -52.5t-37 -62t-35.5 -63t-28 -55t-13.5 -39q-3 -14 -17 -14h-3 q-7 2 -11.5 7.5t-2.5 13.5q3 17 16 45.5t31 62t38.5 68.5t39 65t32 50.5t17.5 26.5t14 25t24 47.5t31.5 64.5t36.5 75q-47 61 -89 127l-12 19q-18 27 -35 50.5t-32 45.5q-16 21 -32 43t-31.5 46t-31.5 52.5t-33 63.5q-20 39 -48.5 82.5t-57.5 87.5q-16 23 -31 45.5t-28 42.5 q-11 17 -21.5 35t-21.5 36q-29 51 -60 101t-76 88q-5 4 -6 11.5zM344 1740q0 15 20 30t38 15q70 0 70 -56q0 -16 -24 -30q-21 -14 -40 -14q-64 0 -64 55zM920 1737q0 36 24 48q14 6 54 6q19 0 37 -16.5t18 -32.5q0 -49 -75 -49q-21 0 -38 12q-20 12 -20 32z" />
<glyph unicode="&#x2c6;" horiz-adv-x="1117" d="M192.5 1223.5q1.5 7.5 7.5 12.5q60 57 107.5 114t90 114t84 112.5t89.5 108.5q12 11 33.5 -2.5t45.5 -42.5q22 -27 36 -43.5t26.5 -31t27.5 -30t39 -40.5q22 -23 50 -51.5t57.5 -58t57.5 -59t49 -53.5q4 -6 3.5 -14t-5.5 -13t-13 -4t-12 6q-21 24 -48.5 53.5t-57 59.5 t-57.5 58l-51 51q-24 25 -39 41.5t-27.5 30.5t-26.5 31t-36 44q-23 25 -30.5 29.5t-8.5 4.5t-3.5 -3t-4.5 -6l-4 -6q-2 -2 -3.5 -4t-1.5 -3q-39 -58 -76 -111.5t-77 -105.5t-86.5 -103t-106.5 -103q-2 -2 -5 -3t-5 -1q-8 0 -15 9q-5 5 -3.5 12.5z" />
<glyph unicode="&#x2dc;" horiz-adv-x="1139" d="M181.5 1256.5q-2.5 6.5 0.5 12.5q27 60 58 108.5t66 87.5q32 33 71 48.5t83 10.5q45 -5 83 -31.5t64 -68.5l3 -6q19 -31 38.5 -61t44 -53.5t54.5 -38t70 -14.5h6q41 1 73 16t57 37.5t42.5 50.5t30 56.5t20 54.5t11.5 45q2 7 7.5 11t13.5 2q6 -1 10.5 -7t2.5 -13 q-4 -21 -12.5 -50t-22.5 -60.5t-34.5 -62.5t-48.5 -56t-65 -41t-84 -17h-7q-47 0 -82.5 16.5t-63.5 43t-49.5 59t-40.5 64.5l-4 6q-22 35 -53.5 57t-67.5 27q-70 8 -123 -48q-69 -75 -119 -187q-2 -6 -9 -8.5t-13 0.5q-8 3 -10.5 9.5z" />
<glyph unicode="&#x2000;" horiz-adv-x="1128" />
<glyph unicode="&#x2001;" horiz-adv-x="2256" />
<glyph unicode="&#x2002;" horiz-adv-x="1128" />
<glyph unicode="&#x2003;" horiz-adv-x="2256" />
<glyph unicode="&#x2004;" horiz-adv-x="752" />
<glyph unicode="&#x2005;" horiz-adv-x="564" />
<glyph unicode="&#x2006;" horiz-adv-x="376" />
<glyph unicode="&#x2007;" horiz-adv-x="376" />
<glyph unicode="&#x2008;" horiz-adv-x="282" />
<glyph unicode="&#x2009;" horiz-adv-x="451" />
<glyph unicode="&#x200a;" horiz-adv-x="125" />
<glyph unicode="&#x2010;" horiz-adv-x="853" d="M111 535q0 8 6.5 14.5t12.5 4.5q5 -1 47 -0.5t104 2.5t134.5 4.5t138.5 5.5t115.5 5.5t65.5 3.5q8 2 14 -2t9 -10q3 -8 -0.5 -14t-11.5 -8q-21 -6 -73.5 -10.5t-119.5 -7t-139.5 -3.5t-134 -1.5t-104 -0.5h-47.5q-6 0 -11.5 5t-5.5 12z" />
<glyph unicode="&#x2011;" horiz-adv-x="853" d="M111 535q0 8 6.5 14.5t12.5 4.5q5 -1 47 -0.5t104 2.5t134.5 4.5t138.5 5.5t115.5 5.5t65.5 3.5q8 2 14 -2t9 -10q3 -8 -0.5 -14t-11.5 -8q-21 -6 -73.5 -10.5t-119.5 -7t-139.5 -3.5t-134 -1.5t-104 -0.5h-47.5q-6 0 -11.5 5t-5.5 12z" />
<glyph unicode="&#x2012;" horiz-adv-x="853" d="M111 535q0 8 6.5 14.5t12.5 4.5q5 -1 47 -0.5t104 2.5t134.5 4.5t138.5 5.5t115.5 5.5t65.5 3.5q8 2 14 -2t9 -10q3 -8 -0.5 -14t-11.5 -8q-21 -6 -73.5 -10.5t-119.5 -7t-139.5 -3.5t-134 -1.5t-104 -0.5h-47.5q-6 0 -11.5 5t-5.5 12z" />
<glyph unicode="&#x2013;" horiz-adv-x="904" d="M44 642q-2 7 1.5 13t10.5 8q21 6 43.5 9t42 4.5t33.5 1t17 -0.5q5 1 10.5 1t10.5 1q14 1 31 2t39.5 2t51.5 1.5t67 0.5q58 0 165 -9q62 -4 100 -6t64 -2h11t23 -1t27.5 -4t26.5 -8q7 -2 9.5 -8.5t-0.5 -13.5q-5 -11 -16 -11q-3 0 -7 2q-16 7 -40 8.5t-34 1.5q-26 0 -65 2 t-101 6h-1q-105 9 -162 9q-76 0 -117.5 -2t-68.5 -4q-6 0 -12 -0.5t-11 -0.5h-1h-12.5t-31.5 -1t-41 -4t-41 -9q-7 -2 -13.5 1.5t-8.5 10.5z" />
<glyph unicode="&#x2014;" horiz-adv-x="1808" d="M67 642q-1 8 3.5 13t12.5 6q16 1 30 0h19t23 1q19 1 72 2t158 1q47 0 135.5 -1.5t230.5 -5.5q243 -6 367 -6l233 6l205 8l58 -1q11 0 21.5 -1t21.5 -2l18 -2t18 -1q8 0 13 -5t4 -13q0 -7 -5 -12t-12 -5q-11 1 -20.5 1.5t-19.5 1.5q-9 2 -19 2.5t-21 1.5l-56 1l-205 -8 l-234 -7q-61 0 -153 1.5t-215 5.5q-142 4 -230.5 5.5t-134.5 1.5h-73.5t-66 -0.5t-53.5 -1.5t-34 -2q-27 -1 -46 0h-13t-13 -1t-12.5 3.5t-6.5 12.5z" />
<glyph unicode="&#x2018;" horiz-adv-x="369" d="M135 1567q-1 8 3.5 13.5t12.5 6.5q7 1 12.5 -3.5t6.5 -12.5q8 -80 16.5 -150.5t16.5 -129.5q7 -58 12 -103t8 -75q1 -8 -3.5 -13t-12.5 -6h-1q-16 0 -18 16q-2 30 -7.5 75t-12.5 102q-8 59 -16 129.5t-17 150.5z" />
<glyph unicode="&#x2019;" horiz-adv-x="336" d="M89.5 1118.5q0.5 7.5 3.5 22.5t9 40.5t15 66.5q4 16 6 26q2 7 7 31t11.5 55.5t13.5 66.5t13.5 65t11 51t5.5 24q2 8 7.5 12t12.5 2t11.5 -7.5t2.5 -13.5q-1 -3 -5.5 -23.5t-10.5 -50.5t-13.5 -65t-14 -67t-11.5 -56t-7 -32q-1 -5 -2.5 -11l-3.5 -14q-3 -13 -7.5 -33 t-8.5 -39.5t-7.5 -35t-3.5 -20.5q2 -16 -14 -19h-3q-6 0 -11 4t-6 10q-1 3 -0.5 10.5z" />
<glyph unicode="&#x201a;" horiz-adv-x="488" d="M70 -162q-1 30 5.5 63t18 64.5t26.5 59.5t31 49q3 4 8 9t10 13q11 15 24 32.5t27 32.5t29 26.5t30 15.5q8 2 13 -1.5t7 -10.5q2 -6 -1 -13t-11 -9q-11 -3 -23.5 -13.5t-24.5 -24.5t-22.5 -28.5t-19.5 -26.5q-5 -7 -9.5 -13t-8.5 -11q-15 -18 -29 -43.5t-24.5 -54 t-16.5 -58.5t-5 -57q0 -7 -5.5 -13t-13.5 -6q-6 0 -10.5 5.5t-4.5 12.5z" />
<glyph unicode="&#x201c;" horiz-adv-x="806" d="M123 1561q-2 7 1.5 13t10.5 8q8 2 14 -1.5t8 -10.5q28 -100 52.5 -183t42.5 -143.5t29 -94t11 -34.5q5 -16 -11 -21q-2 -1 -6 -1q-13 0 -16 12q0 1 -11 34.5t-29.5 94t-43 144t-52.5 183.5zM437 1589q-2 7 1 13t11 8q7 2 13 -1t8 -11q30 -100 56.5 -187.5t47 -153 t32.5 -103.5t12 -39q5 -16 -11 -21q-2 -1 -5 -1q-14 0 -17 12q0 1 -12.5 39t-32.5 103.5t-46.5 153t-56.5 188.5z" />
<glyph unicode="&#x201d;" horiz-adv-x="754" d="M137 999.5q-2 7.5 0 17.5q12 46 44 234q29 156 49 222q24 90 31 94q7 11 19.5 2.5t2.5 -26.5q-31 -85 -101 -474q-16 -69 -18 -70q-7 -11 -18 -8q-7 1 -9 8.5zM489 999.5q-2 7.5 0 17.5q12 46 44 234q29 156 49 222q24 90 31 94q7 11 19.5 2.5t2.5 -26.5 q-31 -85 -101 -474q-16 -69 -18 -70q-7 -11 -18 -8q-7 1 -9 8.5z" />
<glyph unicode="&#x201e;" horiz-adv-x="720" d="M68 -162q-1 30 5.5 63t18 64.5t26.5 59.5t31 49q3 4 8 9t10 13q11 15 24 32.5t27 32.5t29 26.5t30 15.5q8 2 13 -1.5t7 -10.5q2 -6 -1 -13t-11 -9q-11 -3 -23.5 -13.5t-24.5 -24.5t-22.5 -28.5t-19.5 -26.5q-5 -7 -9.5 -13t-8.5 -11q-15 -18 -29 -43.5t-24.5 -54 t-16.5 -58.5t-5 -57q0 -7 -5.5 -13t-13.5 -6q-6 0 -10.5 5.5t-4.5 12.5zM412 -171q6 37 19 76t31 77t39.5 73.5t45.5 65.5q8 8 16.5 17t16.5 17q19 19 37 42q12 13 24 3q6 -4 7 -10.5t-3 -11.5q-9 -14 -20 -25l-22 -22q-8 -8 -15 -16.5t-15 -16.5q-22 -28 -42 -61.5t-37 -70 t-30 -73.5t-19 -72q-1 -6 -6 -8.5t-11 -2.5h-5q-5 1 -9 6t-2 13z" />
<glyph unicode="&#x2022;" horiz-adv-x="638" d="M157 770q0 28 9 52t28 41q13 10 36.5 25t59.5 15h6h6q35 0 62 -13.5t45 -36t27 -50.5t9 -58q4 -27 -8 -52.5t-29 -45.5q-9 -14 -35 -25.5t-65 -11.5h-6q-34 0 -61 14t-45.5 36.5t-28.5 51t-10 58.5z" />
<glyph unicode="&#x2026;" horiz-adv-x="1383" d="M227 21v25q0 34 44 34t44 -34v-25q0 -34 -44 -34t-44 34zM653 29v29q0 34 44 34q43 0 43 -34v-29q0 -34 -43 -34q-44 0 -44 34zM1089 35q0 6 4 17t4 16q4 33 43 33q45 0 45 -35q0 -65 -50 -65q-17 0 -30 8q-16 10 -16 26z" />
<glyph unicode="&#x202f;" horiz-adv-x="451" />
<glyph unicode="&#x2039;" horiz-adv-x="727" d="M133 570q-3 11 5 18q26 25 54 45t55 40t53 39t51 40q33 30 64.5 62.5t61.5 64.5q35 33 65 68q5 4 10 8.5t10 9.5l28.5 28.5t21.5 31.5q6 15 23 10q8 -3 10.5 -10t-0.5 -13q-9 -23 -25.5 -41t-33.5 -33q-5 -5 -9.5 -8.5t-7.5 -8.5q-17 -17 -33 -33.5t-32 -33.5 q-32 -32 -64 -64.5t-66 -63.5q-26 -23 -52 -42.5t-54 -39.5q-20 -14 -40.5 -29t-39.5 -31q92 -26 155 -94q10 -13 18 -21.5t16 -15.5q9 -10 16 -18.5t15.5 -17l18.5 -18.5t25 -24q11 -8 20 -17t19 -18q29 -23 57 -49.5t52 -56.5q9 -14 -4 -25q-3 -3 -10 -3q-11 0 -15 7 q-22 28 -48 52.5t-54 48.5q-11 9 -20.5 17t-20.5 18q-15 14 -25.5 24t-19.5 19t-16.5 18t-16.5 20q-8 8 -15.5 16t-17.5 19q-20 23 -59 50t-112 44q-9 2 -13 11z" />
<glyph unicode="&#x203a;" horiz-adv-x="682" d="M103.5 1044q2.5 7 9.5 10q7 4 14 1t9 -10q8 -18 22 -33t29 -30q6 -4 10 -8.5t9 -9.5q18 -17 34 -34l32 -34q30 -33 63 -65t67 -61q23 -23 45.5 -42t43.5 -38q26 -22 51.5 -44.5t53.5 -48.5q7 -6 6 -16q-1 -4 -3.5 -7.5t-7.5 -4.5q-50 -21 -89.5 -54t-77.5 -68 q-20 -20 -42 -39t-45 -37q-54 -42 -92 -77t-67 -73q-6 -6 -14 -6q-3 0 -5.5 1t-6.5 3q-5 5 -6.5 12t4.5 12q40 51 85 90t77 65q24 17 45.5 36.5t42.5 37.5q33 34 70 64.5t81 53.5q-21 19 -41.5 37.5t-42.5 35.5q-22 19 -44 38.5t-47 40.5q-33 32 -65.5 64t-63.5 67 q-17 17 -33 33.5t-33 33.5q-4 5 -8 9t-9 7q-18 17 -34.5 34.5t-25.5 39.5q-3 7 -0.5 14z" />
<glyph unicode="&#x205f;" horiz-adv-x="564" />
<glyph unicode="&#x20ac;" horiz-adv-x="1250" d="M-15 935q0 7 2 10.5t15 6.5v2q2 -2 6 -2q17 2 51.5 2h98.5l166 -1q47 99 119 210q36 56 78.5 111.5t92 102.5t108.5 81t128 48q27 5 53.5 8t53 2.5t51 -6.5t47.5 -20q63 -40 110 -117l-2 33q-2 7 3 12t11 5h1q8 0 13 -4t5 -9l9 -120q0 -5 -4.5 -11t-10.5 -8 q-13 -3 -19 12q-53 127 -133 176q-20 13 -43 18t-46.5 5.5t-47.5 -3t-46 -7.5q-63 -13 -117.5 -45.5t-102 -77.5t-88 -98.5t-75.5 -107.5q-33 -51 -60.5 -98t-49.5 -92l642 -1q8 0 13.5 -5.5t5.5 -13.5q0 -7 -5.5 -11t-13.5 -4h-149.5t-167.5 0.5t-173.5 0.5h-168.5 q-14 -32 -26 -63t-21 -63q-16 -49 -25.5 -97.5t-16.5 -98.5l37 3q138 7 264 7.5t238 -3.5q7 -2 12 -7t5 -13q0 -5 -6 -9.5t-13 -6.5q-112 7 -236 6t-263 -8l-42 -3q-8 -92 6.5 -172t49.5 -147q22 -46 49.5 -84.5t57.5 -66.5q22 -20 52.5 -37t62.5 -28q118 -38 233 -7.5 t232 128.5q15 13 34.5 33t37.5 38.5t31 31.5t14 13q5 6 11.5 6.5t11.5 -4.5q9 -13 0 -25q-1 -1 -14 -14.5t-31 -32.5t-38.5 -38.5t-35.5 -32.5q-88 -77 -178 -114.5t-179 -37.5q-36 0 -70.5 6t-69.5 17q-37 14 -70.5 32t-56.5 41q-21 21 -39.5 43t-33 43.5t-25.5 40 t-18 31.5q-72 145 -59 335l-84 -3h-19q-9 1 -24 1h-30.5t-29 -1.5t-18.5 -3.5q-4 -1 -10 -1t-8 1q-5 3 -7.5 10t0.5 15q2 1 3 3t4 4q2 2 3 2t3 2q7 3 14 0q12 2 35.5 2h64.5h19l87 3q10 101 47 208q8 29 18.5 57.5t23.5 58.5h-111.5h-93.5t-67.5 -0.5t-32.5 -0.5h-4 q-8 0 -11.5 5t-3.5 12z" />
<glyph unicode="&#x2122;" horiz-adv-x="1808" d="M84 1555q-2 7 3 12.5t13 7.5q17 2 64.5 -1t110.5 -8q29 -2 59 -4t56 -3t46.5 -1h31.5q14 1 50 2.5t82 3.5t96.5 4t93.5 3.5t72.5 2.5t33.5 1q6 0 10.5 -4.5t4.5 -12.5q2 -7 -2.5 -12t-12.5 -5q-1 0 -29 -1t-71 -2.5t-94 -3t-98 -3t-83.5 -3t-50.5 -2.5q-5 -2 -11 -2h-11 q-29 0 -76.5 2.5t-98.5 6.5q-28 2 -55.5 4t-50.5 3t-39.5 1.5t-23.5 -0.5q-9 -2 -14.5 3t-5.5 11zM449 1541q0 17 19 17q17 0 17 -17q0 -48 3.5 -96.5t8.5 -99.5q5 -38 8 -77t5 -77q1 -56 3.5 -95.5t4.5 -68t5 -49t6 -36.5q2 -17 4 -33.5t2 -36.5q1 -7 -3.5 -12t-12.5 -5 q-7 0 -12.5 4t-5.5 11q-2 20 -3.5 35.5t-4.5 30.5q-2 17 -4.5 37.5t-5 50t-4 69.5t-1.5 96q-2 38 -5.5 77t-6.5 77q-7 49 -12 99.5t-5 98.5zM790.5 894.5q1.5 6.5 6.5 11.5q8 6 20 26t25 48t27 63t26 72t22.5 73.5t16.5 69.5q7 46 20 101t26 104q15 56 32 114q2 7 10 11 q6 4 13 0q3 -1 14 -8.5t26.5 -31t33 -66t34.5 -112.5q26 -103 42 -202t32 -201q0 -9 2 -16t2 -15q17 20 30 41t23 37l4 10q22 37 34 79t25 84q2 15 6 29t9 28q16 57 31 113.5t28 113.5q8 29 14.5 57t14.5 57q2 4 6 7.5t8 3.5q6 2 10.5 -0.5t7.5 -5.5q17 -28 28.5 -55 t18.5 -64q3 -18 14 -62.5t26 -102t33.5 -122t37.5 -121.5t37 -100t33 -59q5 -5 5 -11.5t-5 -11.5q-12 -9 -26 0q-19 19 -40 70t-42 115.5t-40 134.5t-34 128.5t-24 96.5t-9 39q-4 20 -9 37t-14 33q-5 -17 -9 -36t-9 -36q-14 -57 -29 -114.5t-32 -113.5q-5 -14 -8 -28t-7 -27 q-11 -45 -23.5 -88t-35.5 -85l-6 -8q-12 -21 -32 -52.5t-50 -59.5q-10 -7 -19 -4t-9 13q-3 17 -5.5 32t-4.5 31q-16 105 -32 203t-41 200q-21 82 -40 123t-33 58q-6 -22 -15.5 -57t-20 -75.5t-20 -82t-16.5 -76.5q-5 -31 -14.5 -67.5t-22 -75t-27 -75.5t-29 -68t-28 -53.5 t-24.5 -31.5q-4 -4 -12 -4q-9 0 -15 6q-4 5 -2.5 11.5z" />
<glyph unicode="&#x25fc;" horiz-adv-x="1105" d="M0 0v1105h1105v-1105h-1105z" />
<glyph unicode="&#xfb01;" horiz-adv-x="1284" d="M78 893q-1 7 4 12t12 7q48 5 94 8t79 4q17 2 28 2t16 1q14 1 31 2q14 1 32.5 2t39.5 3q-1 21 -1 42v118q-2 70 -0.5 142t15.5 141q33 158 222 206q65 16 129 7.5t142 -41.5q8 -2 10 -9t0 -12q-2 -8 -9 -10.5t-15 0.5q-73 31 -132.5 38.5t-116.5 -7.5q-168 -42 -195 -178 q-14 -67 -16 -137.5t-2 -139.5q1 -20 1 -39v-120q20 2 37 2.5t31 2.5q14 0 28.5 1t28.5 3q106 10 193 22q87 13 292 20h3q7 1 12 -4.5t5 -12.5q0 -30 -1.5 -85t-3.5 -108q-3 -64 -4.5 -129.5t-0.5 -133.5v-128q0 -62 -0.5 -124.5t-1.5 -126.5t-2 -132q0 -7 -5 -12t-12 -5 q-8 0 -13 5t-5 12q1 68 2.5 132t2 126t0 124t-1.5 127q-1 70 1.5 136t5.5 130q2 53 3 107q1 42 2 68q-192 -9 -285 -21q-97 -12 -183 -22q-30 -3 -59 -3q-14 -2 -31.5 -2.5t-37.5 -1.5q2 -42 3 -83t3 -86q3 -152 4.5 -302t-12.5 -285l-2 -11q-3 -39 -12.5 -108.5 t-32.5 -166.5q-5 -14 -17 -14q-3 0 -4 1q-8 2 -11 7.5t-2 12.5q23 97 32 165t13 106l2 12q13 133 12 282t-5 301q-2 45 -2.5 84.5t-0.5 81.5q-20 -2 -38 -2.5t-32 -1.5q-17 -1 -30 -2q-10 0 -46 -3q-32 -2 -77.5 -4.5t-93.5 -7.5h-2q-14 0 -17 15zM1066 1389q0 11 7.5 19 t18.5 8t19 -8t8 -19q0 -12 -8 -19.5t-19 -7.5t-18.5 7.5t-7.5 19.5z" />
<glyph unicode="&#xfb02;" horiz-adv-x="1273" d="M72 784q-1 7 4 12t12 7q48 5 94 8t79 4q17 2 28 2t16 1q14 1 31 2q14 1 32.5 2t39.5 3q-1 21 -1 47v224q0 68 5.5 138.5t35.5 144.5q82 175 389 211q92 8 170.5 10.5t131.5 2.5q18 0 18 -16v-113q0 -122 -1 -231.5t-3 -210t-5.5 -193t-8.5 -180.5q-5 -102 -8.5 -192.5 t-6 -173.5t-3.5 -161t-1 -155q0 -8 -5 -13.5t-13 -5.5q-18 0 -18 19q0 78 1 156t3.5 161t6.5 173.5t10 192.5q5 87 8.5 179.5t5.5 193t2.5 210t-0.5 231.5v97q-45 -1 -118 -5q-74 -3 -155 -7q-289 -33 -365 -186q-31 -73 -38 -141.5t-6 -135.5q1 -80 1 -120v-150 q20 2 37 2.5t31 2.5q14 0 28.5 1t28.5 3q78 5 158 6t162 -19q17 -7 13 -21q-1 -6 -7 -10t-13 -2q-80 19 -156 18t-154 -7q-30 -3 -59 -3q-14 -2 -31.5 -2.5t-37.5 -1.5q2 -42 3 -78t3 -81q3 -92 4.5 -221.5t-12.5 -264.5l-2 -11q-3 -39 -12.5 -108.5t-32.5 -166.5 q-5 -14 -17 -14q-3 0 -4 1q-8 2 -11 7.5t-2 12.5q23 97 32 165t13 106l2 12q13 133 12 261.5t-5 220.5q-2 45 -2.5 79.5t-0.5 76.5q-20 -2 -38 -2.5t-32 -1.5q-17 -1 -30 -2q-10 0 -46 -3q-32 -2 -77.5 -4.5t-93.5 -7.5h-2q-14 0 -17 15z" />
</font>
</defs>
</svg>
