<svg xmlns="http://www.w3.org/2000/svg" viewBox="0 0 117.97 89.04"><title>sc-logo_1</title><g id="Layer_2" data-name="Layer 2"><g id="Layer_1-2" data-name="Layer 1"><path d="M73,.47c-9.54,9.56-13.55,22.69-13.52,36q.06,25.52.08,51.06a1.5,1.5,0,0,0,3,0c0-15.34.54-30.76.08-46.09-.43-14.33,2-28.3,12.49-38.85A1.5,1.5,0,0,0,73,.47Z"/><path d="M39.46,12.59C48.71,20.73,59.33,32.95,59.52,46a1.5,1.5,0,0,0,3,0c-.2-13.94-11-26.83-20.94-35.56-1.44-1.27-3.57.84-2.12,2.12Z"/><path d="M116.52,0C92.27.13,71.29,21.82,72.7,46.31A47.42,47.42,0,0,0,82.5,72c8.2,10.64,20.88,15.95,34,17,1.92.16,1.91-2.84,0-3-12.63-1-24.9-6.4-32.45-16.9A44.42,44.42,0,0,1,75.7,46.31C74.36,23.47,93.87,3.13,116.52,3a1.5,1.5,0,0,0,0-3Z"/></g><g id="Layer_2-2" data-name="Layer 2"><path d="M28.46.47C18.74,11,14.29,23.74,13.93,37.93c-.22,8.76.57,17.42-1.34,26.06A41,41,0,0,1,.46,85.47c-1.4,1.33.72,3.45,2.12,2.12C13.41,77.31,17.06,63.5,17,48.89c0-8.88-.45-17.74,2.1-26.37A49.62,49.62,0,0,1,30.58,2.59C31.89,1.18,29.78-1,28.46.47Z"/></g></g></svg>